BlackCompressedLatin_decomp.ufo
<glyph name="quotedbl" format="1">
  <advance width="427.6"/>
  <unicode hex="0022"/>
  <outline>
    <contour>
      <point x="181.8" y="628" type="line"/>
      <point x="191.8" y="846" type="line"/>
      <point x="48.8" y="846" type="line"/>
      <point x="58.8" y="628" type="line"/>
    </contour>
    <contour>
      <point x="368.8" y="628" type="line"/>
      <point x="378.8" y="846" type="line"/>
      <point x="235.8" y="846" type="line"/>
      <point x="245.8" y="628" type="line"/>
    </contour>
  </outline>
</glyph>
<glyph name="numbersign" format="1">
  <advance width="582.4"/>
  <unicode hex="0023"/>
  <outline>
    <contour>
      <point x="41.0" y="217" type="curve"/>
      <point x="465.0" y="217" type="curve"/>
      <point x="493.0" y="328" type="curve"/>
      <point x="69.0" y="328" type="curve"/>
    </contour>
    <contour>
      <point x="89.0" y="429" type="curve"/>
      <point x="515.0" y="429" type="curve"/>
      <point x="543.0" y="540" type="curve"/>
      <point x="115.0" y="540" type="curve"/>
    </contour>
    <contour>
      <point x="386.0" y="39" type="curve"/>
      <point x="548.0" y="722" type="curve"/>
      <point x="405.0" y="722" type="curve"/>
      <point x="243.0" y="39" type="curve"/>
    </contour>
    <contour>
      <point x="173.0" y="46" type="curve"/>
      <point x="335.0" y="722" type="curve"/>
      <point x="192.0" y="722" type="curve"/>
      <point x="36.0" y="46" type="curve"/>
    </contour>
  </outline>
</glyph>
<glyph name="dollar" format="1">
  <advance width="511.2"/>
  <unicode hex="0024"/>
  <outline>
    <contour>
      <point x="174.0" y="91"/>
      <point x="62.0" y="91"/>
      <point x="174.0" y="91" type="curve"/>
      <point x="174.0" y="211"/>
      <point x="174.0" y="91"/>
      <point x="174.0" y="211" type="curve"/>
      <point x="62.0" y="211"/>
      <point x="174.0" y="211"/>
      <point x="62.0" y="211" type="curve"/>
      <point x="62.0" y="91"/>
      <point x="62.0" y="211"/>
      <point x="62.0" y="91" type="curve"/>
    </contour>
    <contour>
      <point x="320.0" y="636"/>
      <point x="432.0" y="636"/>
      <point x="320.0" y="636" type="curve"/>
      <point x="320.0" y="516"/>
      <point x="320.0" y="636"/>
      <point x="320.0" y="516" type="curve"/>
      <point x="432.0" y="516"/>
      <point x="320.0" y="516"/>
      <point x="432.0" y="516" type="curve"/>
      <point x="432.0" y="636"/>
      <point x="432.0" y="516"/>
      <point x="432.0" y="636" type="curve"/>
    </contour>
    <contour>
      <point x="315.0" y="-42"/>
      <point x="172.0" y="-42"/>
      <point x="315.0" y="-42" type="curve"/>
      <point x="315.0" y="-12"/>
      <point x="315.0" y="67"/>
      <point x="315.0" y="97" type="curve"/>
      <point x="172.0" y="97"/>
      <point x="315.0" y="97"/>
      <point x="172.0" y="97" type="curve"/>
      <point x="172.0" y="67"/>
      <point x="172.0" y="-12"/>
      <point x="172.0" y="-42" type="curve"/>
    </contour>
    <contour>
      <point x="324.0" y="632"/>
      <point x="181.0" y="632"/>
      <point x="324.0" y="632" type="curve"/>
      <point x="324.0" y="662"/>
      <point x="324.0" y="743"/>
      <point x="324.0" y="773" type="curve"/>
      <point x="181.0" y="773"/>
      <point x="324.0" y="773"/>
      <point x="181.0" y="773" type="curve"/>
      <point x="181.0" y="743"/>
      <point x="181.0" y="662"/>
      <point x="181.0" y="632" type="curve"/>
    </contour>
    <contour>
      <point x="62.0" y="91"/>
      <point x="140.0" y="190"/>
      <point x="62.0" y="91" type="curve"/>
      <point x="110.0" y="63"/>
      <point x="169.0" y="42"/>
      <point x="237.0" y="42" type="curve"/>
      <point x="373.0" y="42"/>
      <point x="476.0" y="109"/>
      <point x="476.0" y="221" type="curve"/>
      <point x="476.0" y="317"/>
      <point x="394.0" y="374"/>
      <point x="296.0" y="423" type="curve"/>
      <point x="242.0" y="450"/>
      <point x="195.0" y="469"/>
      <point x="195.0" y="520" type="curve"/>
      <point x="195.0" y="552"/>
      <point x="217.0" y="578"/>
      <point x="253.0" y="578" type="curve"/>
      <point x="296.0" y="578"/>
      <point x="325.0" y="564"/>
      <point x="361.0" y="542" type="curve"/>
      <point x="432.0" y="636"/>
      <point x="361.0" y="542"/>
      <point x="432.0" y="636" type="curve"/>
      <point x="376.0" y="670"/>
      <point x="328.0" y="688"/>
      <point x="259.0" y="688" type="curve"/>
      <point x="138.0" y="688"/>
      <point x="52.0" y="623"/>
      <point x="52.0" y="520" type="curve"/>
      <point x="52.0" y="425"/>
      <point x="117.0" y="370"/>
      <point x="212.0" y="323" type="curve"/>
      <point x="271.0" y="295"/>
      <point x="333.0" y="273"/>
      <point x="333.0" y="216" type="curve"/>
      <point x="333.0" y="176"/>
      <point x="297.0" y="152"/>
      <point x="250.0" y="152" type="curve"/>
      <point x="206.0" y="152"/>
      <point x="170.0" y="173"/>
      <point x="140.0" y="190" type="curve"/>
    </contour>
  </outline>
</glyph>
<glyph name="ampersand" format="1">
  <advance width="604.4"/>
  <unicode hex="0026"/>
  <outline>
    <contour>
      <point x="582.8" y="45" type="line"/>
      <point x="506.8" y="142"/>
      <point x="415.8" y="276"/>
      <point x="333.8" y="378" type="curve"/>
      <point x="291.8" y="432"/>
      <point x="232.8" y="479"/>
      <point x="232.8" y="549" type="curve"/>
      <point x="232.8" y="582"/>
      <point x="236.8" y="617"/>
      <point x="265.8" y="617" type="curve"/>
      <point x="295.8" y="617"/>
      <point x="301.8" y="586"/>
      <point x="301.8" y="551" type="curve"/>
      <point x="301.8" y="492"/>
      <point x="269.8" y="453"/>
      <point x="219.8" y="420" type="curve"/>
      <point x="129.8" y="359"/>
      <point x="48.8" y="307"/>
      <point x="48.8" y="201" type="curve"/>
      <point x="48.8" y="77"/>
      <point x="134.8" y="-5"/>
      <point x="259.8" y="-5" type="curve"/>
      <point x="433.8" y="-5"/>
      <point x="518.8" y="135"/>
      <point x="564.8" y="312" type="curve"/>
      <point x="441.8" y="340"/>
      <point x="564.8" y="312"/>
      <point x="441.8" y="340" type="curve"/>
      <point x="409.8" y="220"/>
      <point x="381.8" y="106"/>
      <point x="266.8" y="106" type="curve"/>
      <point x="216.8" y="106"/>
      <point x="191.8" y="147"/>
      <point x="191.8" y="201" type="curve"/>
      <point x="191.8" y="261"/>
      <point x="227.8" y="297"/>
      <point x="278.8" y="332" type="curve"/>
      <point x="366.8" y="392"/>
      <point x="443.8" y="446"/>
      <point x="444.8" y="551" type="curve"/>
      <point x="444.8" y="657"/>
      <point x="374.8" y="727"/>
      <point x="270.8" y="727" type="curve"/>
      <point x="166.8" y="727"/>
      <point x="99.8" y="655"/>
      <point x="99.8" y="549" type="curve"/>
      <point x="99.8" y="450"/>
      <point x="169.8" y="387"/>
      <point x="231.8" y="311" type="curve"/>
      <point x="307.8" y="214"/>
      <point x="408.8" y="70"/>
      <point x="478.8" y="-21" type="curve"/>
    </contour>
  </outline>
</glyph>
<glyph name="quotesingle" format="1">
  <advance width="240.6"/>
  <unicode hex="0027"/>
  <outline>
    <contour>
      <point x="181.8" y="628" type="line"/>
      <point x="191.8" y="846" type="line"/>
      <point x="48.8" y="846" type="line"/>
      <point x="58.8" y="628" type="line"/>
    </contour>
  </outline>
</glyph>
<glyph name="parenleft" format="1">
  <advance width="336.2"/>
  <unicode hex="0028"/>
  <outline>
    <contour>
      <point x="333.8" y="-204"/>
      <point x="248.8" y="-282"/>
      <point x="333.8" y="-204" type="curve"/>
      <point x="206.8" y="-37"/>
      <point x="175.8" y="116"/>
      <point x="175.8" y="326" type="curve"/>
      <point x="175.8" y="537"/>
      <point x="207.8" y="690"/>
      <point x="332.8" y="860" type="curve"/>
      <point x="247.8" y="931"/>
      <point x="332.8" y="860"/>
      <point x="247.8" y="931" type="curve"/>
      <point x="99.8" y="737"/>
      <point x="36.8" y="571"/>
      <point x="36.8" y="326" type="curve"/>
      <point x="36.8" y="80"/>
      <point x="100.8" y="-86"/>
      <point x="248.8" y="-282" type="curve"/>
    </contour>
  </outline>
</glyph>
<glyph name="parenright" format="1">
  <advance width="338.2"/>
  <unicode hex="0029"/>
  <outline>
    <contour>
      <point x="79.2" y="-295"/>
      <point x="-4.8" y="-224"/>
      <point x="79.2" y="-295" type="curve"/>
      <point x="229.2" y="-92"/>
      <point x="302.2" y="76"/>
      <point x="302.2" y="329" type="curve"/>
      <point x="302.2" y="576"/>
      <point x="236.2" y="741"/>
      <point x="82.2" y="934" type="curve"/>
      <point x="-1.8" y="856"/>
      <point x="82.2" y="934"/>
      <point x="-1.8" y="856" type="curve"/>
      <point x="127.2" y="688"/>
      <point x="162.2" y="536"/>
      <point x="162.2" y="324" type="curve"/>
      <point x="162.2" y="108"/>
      <point x="119.2" y="-46"/>
      <point x="-4.8" y="-224" type="curve"/>
    </contour>
  </outline>
</glyph>
<glyph name="asterisk" format="1">
  <advance width="526.156438057"/>
  <unicode hex="002A"/>
  <outline>
    <contour>
      <point x="306.480534736" y="541" type="line"/>
      <point x="313.480534736" y="759" type="line"/>
      <point x="213.480534736" y="759" type="line"/>
      <point x="220.480534736" y="541" type="line"/>
    </contour>
    <contour>
      <point x="277.480534736" y="500" type="line"/>
      <point x="484.480534736" y="568" type="line"/>
      <point x="450.480534736" y="662" type="line"/>
      <point x="248.480534736" y="581" type="line"/>
    </contour>
    <contour>
      <point x="230.480534736" y="513" type="line"/>
      <point x="365.480534736" y="341" type="line"/>
      <point x="441.480534736" y="406" type="line"/>
      <point x="296.480534736" y="568" type="line"/>
    </contour>
    <contour>
      <point x="230.480534736" y="569" type="line"/>
      <point x="84.4805347361" y="406" type="line"/>
      <point x="161.480534736" y="342" type="line"/>
      <point x="296.480534736" y="514" type="line"/>
    </contour>
    <contour>
      <point x="278.480534736" y="581" type="line"/>
      <point x="75.4805347361" y="662" type="line"/>
      <point x="41.4805347361" y="568" type="line"/>
      <point x="248.480534736" y="500" type="line"/>
    </contour>
  </outline>
</glyph>
<glyph name="plus" format="1">
  <advance width="594.6"/>
  <unicode hex="002B"/>
  <outline>
    <contour>
      <point x="36.8" y="255"/>
      <point x="36.8" y="376"/>
      <point x="36.8" y="255" type="curve"/>
      <point x="36.8" y="255"/>
      <point x="557.8" y="255"/>
      <point x="557.8" y="255" type="curve"/>
      <point x="557.8" y="376"/>
      <point x="557.8" y="255"/>
      <point x="557.8" y="376" type="curve"/>
      <point x="557.8" y="376"/>
      <point x="36.8" y="376"/>
      <point x="36.8" y="376" type="curve"/>
    </contour>
    <contour>
      <point x="373.8" y="58"/>
      <point x="220.8" y="58"/>
      <point x="363.8" y="58" type="curve"/>
      <point x="363.8" y="58"/>
      <point x="363.8" y="578"/>
      <point x="363.8" y="578" type="curve"/>
      <point x="220.8" y="578"/>
      <point x="373.8" y="578"/>
      <point x="230.8" y="578" type="curve"/>
      <point x="230.8" y="578"/>
      <point x="230.8" y="58"/>
      <point x="230.8" y="58" type="curve"/>
    </contour>
  </outline>
</glyph>
<glyph name="hyphen" format="1">
  <advance width="343.0"/>
  <unicode hex="002D"/>
  <outline>
    <contour>
      <point x="61.6" y="223"/>
      <point x="61.6" y="344"/>
      <point x="61.6" y="223" type="curve"/>
      <point x="134.6" y="223"/>
      <point x="207.6" y="223"/>
      <point x="280.6" y="223" type="curve"/>
      <point x="280.6" y="344"/>
      <point x="280.6" y="223"/>
      <point x="280.6" y="344" type="curve"/>
      <point x="207.6" y="344"/>
      <point x="134.6" y="344"/>
      <point x="61.6" y="344" type="curve"/>
    </contour>
  </outline>
</glyph>
<glyph name="period" format="1">
  <advance width="260.0"/>
  <unicode hex="002E"/>
  <outline>
    <contour>
      <point x="204.0" y="62"/>
      <point x="56.0" y="62"/>
      <point x="204.0" y="62" type="curve"/>
      <point x="204.0" y="110"/>
      <point x="172.0" y="134"/>
      <point x="129.0" y="134" type="curve"/>
      <point x="85.0" y="134"/>
      <point x="56.0" y="108"/>
      <point x="56.0" y="62" type="curve"/>
      <point x="204.0" y="62"/>
      <point x="56.0" y="62"/>
      <point x="204.0" y="62" type="curve"/>
      <point x="204.0" y="13"/>
      <point x="173.0" y="-9"/>
      <point x="129.0" y="-9" type="curve"/>
      <point x="84.0" y="-9"/>
      <point x="56.0" y="15"/>
      <point x="56.0" y="62" type="curve"/>
    </contour>
  </outline>
</glyph>
<glyph name="slash" format="1">
  <advance width="508.4"/>
  <unicode hex="002F"/>
  <outline>
    <contour>
      <point x="166.2" y="-13"/>
      <point x="23.2" y="-13"/>
      <point x="166.2" y="-13" type="curve"/>
      <point x="272.2" y="252"/>
      <point x="379.2" y="517"/>
      <point x="485.2" y="782" type="curve"/>
      <point x="342.2" y="782"/>
      <point x="485.2" y="782"/>
      <point x="342.2" y="782" type="curve"/>
      <point x="236.2" y="517"/>
      <point x="129.2" y="252"/>
      <point x="23.2" y="-13" type="curve"/>
    </contour>
  </outline>
</glyph>
<glyph name="zero" format="1">
  <advance width="638.2"/>
  <unicode hex="0030"/>
  <outline>
    <contour>
      <point x="186.6" y="360"/>
      <point x="49.6" y="360"/>
      <point x="186.6" y="360" type="curve"/>
      <point x="186.6" y="497"/>
      <point x="196.6" y="612"/>
      <point x="314.6" y="612" type="curve"/>
      <point x="432.6" y="612"/>
      <point x="452.6" y="500"/>
      <point x="452.6" y="363" type="curve"/>
      <point x="452.6" y="226"/>
      <point x="442.6" y="111"/>
      <point x="325.6" y="111" type="curve"/>
      <point x="206.6" y="111"/>
      <point x="186.6" y="223"/>
      <point x="186.6" y="360" type="curve"/>
      <point x="49.6" y="360"/>
      <point x="186.6" y="360"/>
      <point x="49.6" y="360" type="curve"/>
      <point x="49.6" y="150"/>
      <point x="127.6" y="-5"/>
      <point x="318.6" y="-5" type="curve"/>
      <point x="511.6" y="-5"/>
      <point x="588.6" y="150"/>
      <point x="588.6" y="363" type="curve"/>
      <point x="588.6" y="572"/>
      <point x="515.6" y="727"/>
      <point x="327.6" y="727" type="curve"/>
      <point x="132.6" y="727"/>
      <point x="49.6" y="573"/>
      <point x="49.6" y="360" type="curve"/>
    </contour>
  </outline>
</glyph>
<glyph name="one" format="1">
  <advance width="420.4"/>
  <unicode hex="0031"/>
  <outline>
    <contour>
      <point x="245.0" y="0"/>
      <point x="245.0" y="111"/>
      <point x="245.0" y="0" type="curve"/>
      <point x="290.0" y="0"/>
      <point x="336.0" y="0"/>
      <point x="382.0" y="0" type="curve"/>
      <point x="382.0" y="111"/>
      <point x="382.0" y="0"/>
      <point x="382.0" y="111" type="curve"/>
      <point x="245.0" y="111"/>
      <point x="382.0" y="111"/>
      <point x="245.0" y="111" type="curve"/>
    </contour>
    <contour>
      <point x="245.0" y="111"/>
      <point x="245.0" y="0"/>
      <point x="245.0" y="111" type="curve"/>
      <point x="107.0" y="111"/>
      <point x="245.0" y="111"/>
      <point x="107.0" y="111" type="curve"/>
      <point x="107.0" y="0"/>
      <point x="107.0" y="111"/>
      <point x="107.0" y="0" type="curve"/>
      <point x="153.0" y="0"/>
      <point x="199.0" y="0"/>
      <point x="245.0" y="0" type="curve"/>
    </contour>
    <contour>
      <point x="101.0" y="476"/>
      <point x="16.0" y="565"/>
      <point x="101.0" y="476" type="curve"/>
      <point x="276.0" y="648"/>
      <point x="101.0" y="476"/>
      <point x="276.0" y="648" type="curve"/>
      <point x="172.0" y="722"/>
      <point x="276.0" y="648"/>
      <point x="172.0" y="722" type="curve"/>
      <point x="16.0" y="565"/>
      <point x="172.0" y="722"/>
      <point x="16.0" y="565" type="curve"/>
    </contour>
    <contour>
      <point x="315.0" y="0"/>
      <point x="172.0" y="0"/>
      <point x="315.0" y="0" type="curve"/>
      <point x="315.0" y="241"/>
      <point x="315.0" y="481"/>
      <point x="315.0" y="722" type="curve"/>
      <point x="172.0" y="722"/>
      <point x="315.0" y="722"/>
      <point x="172.0" y="722" type="curve"/>
      <point x="172.0" y="481"/>
      <point x="172.0" y="241"/>
      <point x="172.0" y="0" type="curve"/>
    </contour>
  </outline>
</glyph>
<glyph name="two" format="1">
  <advance width="540.6"/>
  <unicode hex="0032"/>
  <outline>
    <contour>
      <point x="487.0" y="110"/>
      <point x="375.0" y="110"/>
      <point x="487.0" y="110" type="curve"/>
      <point x="487.0" y="206"/>
      <point x="487.0" y="94"/>
      <point x="487.0" y="190" type="curve"/>
      <point x="375.0" y="190"/>
      <point x="487.0" y="190"/>
      <point x="375.0" y="190" type="curve"/>
      <point x="375.0" y="94"/>
      <point x="375.0" y="206"/>
      <point x="375.0" y="110" type="curve"/>
    </contour>
    <contour>
      <point x="46.0" y="0"/>
      <point x="47.0" y="110"/>
      <point x="46.0" y="0" type="curve"/>
      <point x="222.0" y="0"/>
      <point x="381.0" y="0"/>
      <point x="487.0" y="0" type="curve"/>
      <point x="487.0" y="110"/>
      <point x="487.0" y="0"/>
      <point x="487.0" y="110" type="curve"/>
      <point x="358.0" y="110"/>
      <point x="177.0" y="111"/>
      <point x="47.0" y="111" type="curve"/>
    </contour>
    <contour>
      <point x="142.0" y="518"/>
      <point x="44.0" y="576"/>
      <point x="142.0" y="518" type="curve"/>
      <point x="173.0" y="570"/>
      <point x="191.0" y="612"/>
      <point x="245.0" y="612" type="curve"/>
      <point x="298.0" y="612"/>
      <point x="315.0" y="565"/>
      <point x="315.0" y="502" type="curve"/>
      <point x="315.0" y="410"/>
      <point x="273.0" y="349"/>
      <point x="209.0" y="282" type="curve"/>
      <point x="155.0" y="223"/>
      <point x="105.0" y="171"/>
      <point x="47.0" y="111" type="curve"/>
      <point x="46.0" y="0"/>
      <point x="47.0" y="110"/>
      <point x="46.0" y="0" type="curve"/>
      <point x="176.0" y="54"/>
      <point x="236.0" y="133"/>
      <point x="298.0" y="201" type="curve"/>
      <point x="391.0" y="296"/>
      <point x="447.0" y="375"/>
      <point x="447.0" y="508" type="curve"/>
      <point x="447.0" y="643"/>
      <point x="379.0" y="727"/>
      <point x="251.0" y="727" type="curve"/>
      <point x="149.0" y="727"/>
      <point x="81.0" y="668"/>
      <point x="44.0" y="576" type="curve"/>
    </contour>
  </outline>
</glyph>
<glyph name="three" format="1">
  <advance width="485.4"/>
  <unicode hex="0033"/>
  <outline>
    <contour>
      <point x="37.6" y="60"/>
      <point x="115.6" y="143"/>
      <point x="37.6" y="60" type="curve"/>
      <point x="91.6" y="20"/>
      <point x="136.6" y="-5"/>
      <point x="204.6" y="-5" type="curve"/>
      <point x="347.6" y="-5"/>
      <point x="436.6" y="69"/>
      <point x="436.6" y="209" type="curve"/>
      <point x="436.6" y="332"/>
      <point x="322.6" y="407"/>
      <point x="138.6" y="407" type="curve"/>
      <point x="138.6" y="314"/>
      <point x="138.6" y="407"/>
      <point x="138.6" y="314" type="curve"/>
      <point x="233.6" y="314"/>
      <point x="299.6" y="268"/>
      <point x="299.6" y="204" type="curve"/>
      <point x="299.6" y="147"/>
      <point x="263.6" y="111"/>
      <point x="210.6" y="111" type="curve"/>
      <point x="173.6" y="111"/>
      <point x="146.6" y="122"/>
      <point x="115.6" y="143" type="curve"/>
    </contour>
    <contour>
      <point x="128.6" y="562"/>
      <point x="37.6" y="633"/>
      <point x="128.6" y="562" type="curve"/>
      <point x="142.6" y="583"/>
      <point x="167.6" y="612"/>
      <point x="201.6" y="612" type="curve"/>
      <point x="250.6" y="612"/>
      <point x="275.6" y="578"/>
      <point x="275.6" y="525" type="curve"/>
      <point x="275.6" y="470"/>
      <point x="221.6" y="428"/>
      <point x="138.6" y="428" type="curve"/>
      <point x="138.6" y="335"/>
      <point x="138.6" y="428"/>
      <point x="138.6" y="335" type="curve"/>
      <point x="297.6" y="335"/>
      <point x="410.6" y="407"/>
      <point x="410.6" y="529" type="curve"/>
      <point x="410.6" y="654"/>
      <point x="335.6" y="727"/>
      <point x="214.6" y="727" type="curve"/>
      <point x="136.6" y="727"/>
      <point x="69.6" y="684"/>
      <point x="37.6" y="633" type="curve"/>
    </contour>
  </outline>
</glyph>
<glyph name="four" format="1">
  <advance width="515.2"/>
  <unicode hex="0034"/>
  <outline>
    <contour>
      <point x="333.4" y="110" type="line"/>
      <point x="208.4" y="110" type="line"/>
      <point x="208.4" y="0" type="line"/>
      <point x="333.4" y="0" type="line"/>
    </contour>
    <contour>
      <point x="333.4" y="0" type="line"/>
      <point x="462.4" y="0" type="line"/>
      <point x="462.4" y="110" type="line"/>
      <point x="333.4" y="110" type="line"/>
    </contour>
    <contour>
      <point x="87.4" y="248" type="line"/>
      <point x="381.4" y="693" type="line"/>
      <point x="263.4" y="696" type="line"/>
      <point x="30.4" y="348" type="line"/>
    </contour>
    <contour>
      <point x="482.4" y="348" type="line"/>
      <point x="30.4" y="348" type="line"/>
      <point x="31.4" y="226" type="line"/>
      <point x="482.4" y="226" type="line"/>
    </contour>
    <contour>
      <point x="406.4" y="47" type="line"/>
      <point x="406.4" y="696" type="line"/>
      <point x="266.4" y="696" type="line"/>
      <point x="266.4" y="47" type="line"/>
    </contour>
  </outline>
</glyph>
<glyph name="five" format="1">
  <advance width="477.6"/>
  <unicode hex="0035"/>
  <outline>
    <contour>
      <point x="53.4" y="722"/>
      <point x="189.4" y="612"/>
      <point x="53.4" y="722" type="curve"/>
      <point x="53.4" y="625"/>
      <point x="53.4" y="517"/>
      <point x="53.4" y="378" type="curve"/>
      <point x="189.4" y="335"/>
      <point x="53.4" y="378"/>
      <point x="189.4" y="335" type="curve"/>
      <point x="189.4" y="424"/>
      <point x="189.4" y="523"/>
      <point x="189.4" y="612" type="curve"/>
    </contour>
    <contour>
      <point x="189.4" y="335"/>
      <point x="53.4" y="378"/>
      <point x="189.4" y="335" type="curve"/>
      <point x="198.4" y="352"/>
      <point x="209.4" y="365"/>
      <point x="231.4" y="365" type="curve"/>
      <point x="280.4" y="365"/>
      <point x="291.4" y="310"/>
      <point x="291.4" y="244" type="curve"/>
      <point x="291.4" y="175"/>
      <point x="264.4" y="110"/>
      <point x="204.4" y="110" type="curve"/>
      <point x="167.4" y="110"/>
      <point x="143.4" y="121"/>
      <point x="113.4" y="142" type="curve"/>
      <point x="42.4" y="43"/>
      <point x="113.4" y="142"/>
      <point x="42.4" y="43" type="curve"/>
      <point x="92.4" y="10"/>
      <point x="137.4" y="-5"/>
      <point x="197.4" y="-5" type="curve"/>
      <point x="336.4" y="-5"/>
      <point x="434.4" y="100"/>
      <point x="434.4" y="242" type="curve"/>
      <point x="434.4" y="379"/>
      <point x="371.4" y="483"/>
      <point x="252.4" y="483" type="curve"/>
      <point x="184.4" y="483"/>
      <point x="122.4" y="464"/>
      <point x="53.4" y="378" type="curve"/>
    </contour>
    <contour>
      <point x="407.4" y="722"/>
      <point x="407.4" y="612"/>
      <point x="407.4" y="722" type="curve"/>
      <point x="302.4" y="722"/>
      <point x="158.4" y="722"/>
      <point x="53.4" y="722" type="curve"/>
      <point x="189.4" y="612"/>
      <point x="53.4" y="722"/>
      <point x="189.4" y="612" type="curve"/>
      <point x="249.4" y="612"/>
      <point x="347.4" y="612"/>
      <point x="407.4" y="612" type="curve"/>
    </contour>
  </outline>
</glyph>
<glyph name="six" format="1">
  <advance width="537.4"/>
  <unicode hex="0036"/>
  <outline>
    <contour>
      <point x="163.4" y="209"/>
      <point x="96.4" y="237"/>
      <point x="163.4" y="209" type="curve"/>
      <point x="180.4" y="280"/>
      <point x="212.4" y="335"/>
      <point x="275.4" y="335" type="curve"/>
      <point x="333.4" y="335"/>
      <point x="350.4" y="288"/>
      <point x="350.4" y="226" type="curve"/>
      <point x="350.4" y="167"/>
      <point x="331.4" y="120"/>
      <point x="278.4" y="120" type="curve"/>
      <point x="209.4" y="120"/>
      <point x="183.4" y="180"/>
      <point x="183.4" y="260" type="curve"/>
      <point x="183.4" y="446"/>
      <point x="275.4" y="560"/>
      <point x="461.4" y="625" type="curve"/>
      <point x="422.4" y="728"/>
      <point x="461.4" y="625"/>
      <point x="422.4" y="728" type="curve"/>
      <point x="184.4" y="648"/>
      <point x="46.4" y="502"/>
      <point x="46.4" y="254" type="curve"/>
      <point x="46.4" y="96"/>
      <point x="126.4" y="-12"/>
      <point x="276.4" y="-12" type="curve"/>
      <point x="415.4" y="-12"/>
      <point x="493.4" y="83"/>
      <point x="493.4" y="226" type="curve"/>
      <point x="493.4" y="363"/>
      <point x="423.4" y="451"/>
      <point x="301.4" y="451" type="curve"/>
      <point x="171.4" y="451"/>
      <point x="101.4" y="323"/>
      <point x="96.4" y="237" type="curve"/>
    </contour>
  </outline>
</glyph>
<glyph name="seven" format="1">
  <advance width="472.0"/>
  <unicode hex="0037"/>
  <outline>
    <contour>
      <point x="170.8" y="528" type="curve"/>
      <point x="170.8" y="612" type="curve"/>
      <point x="58.8" y="612" type="curve"/>
      <point x="58.8" y="528" type="curve"/>
    </contour>
    <contour>
      <point x="58.8" y="612" type="curve"/>
      <point x="452.8" y="612" type="curve"/>
      <point x="452.8" y="722" type="curve"/>
      <point x="58.8" y="722" type="curve"/>
    </contour>
    <contour>
      <point x="370.8" y="722" type="curve"/>
      <point x="44.8" y="0" type="curve"/>
      <point x="186.8" y="0" type="curve"/>
      <point x="452.8" y="612" type="curve"/>
    </contour>
  </outline>
</glyph>
<glyph name="eight" format="1">
  <advance width="535.0"/>
  <unicode hex="0038"/>
  <outline>
    <contour>
      <point x="66.0" y="536"/>
      <point x="209.0" y="536"/>
      <point x="66.0" y="536" type="curve"/>
      <point x="66.0" y="432"/>
      <point x="134.0" y="390"/>
      <point x="226.0" y="338" type="curve"/>
      <point x="292.0" y="299"/>
      <point x="340.0" y="265"/>
      <point x="340.0" y="195" type="curve"/>
      <point x="340.0" y="144"/>
      <point x="317.0" y="111"/>
      <point x="269.0" y="111" type="curve"/>
      <point x="219.0" y="111"/>
      <point x="195.0" y="143"/>
      <point x="195.0" y="195" type="curve"/>
      <point x="195.0" y="267"/>
      <point x="244.0" y="297"/>
      <point x="311.0" y="337" type="curve"/>
      <point x="400.0" y="390"/>
      <point x="469.0" y="432"/>
      <point x="469.0" y="534" type="curve"/>
      <point x="469.0" y="659"/>
      <point x="396.0" y="727"/>
      <point x="269.0" y="727" type="curve"/>
      <point x="144.0" y="727"/>
      <point x="66.0" y="658"/>
      <point x="66.0" y="536" type="curve"/>
      <point x="209.0" y="536"/>
      <point x="66.0" y="536"/>
      <point x="209.0" y="536" type="curve"/>
      <point x="209.0" y="579"/>
      <point x="224.0" y="612"/>
      <point x="265.0" y="612" type="curve"/>
      <point x="307.0" y="612"/>
      <point x="326.0" y="581"/>
      <point x="326.0" y="534" type="curve"/>
      <point x="326.0" y="474"/>
      <point x="281.0" y="448"/>
      <point x="225.0" y="416" type="curve"/>
      <point x="124.0" y="357"/>
      <point x="52.0" y="309"/>
      <point x="52.0" y="195" type="curve"/>
      <point x="52.0" y="66"/>
      <point x="131.0" y="-5"/>
      <point x="262.0" y="-5" type="curve"/>
      <point x="397.0" y="-5"/>
      <point x="483.0" y="64"/>
      <point x="483.0" y="195" type="curve"/>
      <point x="483.0" y="308"/>
      <point x="411.0" y="359"/>
      <point x="312.0" y="417" type="curve"/>
      <point x="255.0" y="451"/>
      <point x="209.0" y="474"/>
      <point x="209.0" y="536" type="curve"/>
    </contour>
  </outline>
</glyph>
<glyph name="nine" format="1">
  <advance width="538.0"/>
  <unicode hex="0039"/>
  <outline>
    <contour>
      <point x="385.8" y="475"/>
      <point x="453.8" y="448"/>
      <point x="385.8" y="475" type="curve"/>
      <point x="361.8" y="409"/>
      <point x="329.8" y="387"/>
      <point x="267.8" y="387" type="curve"/>
      <point x="208.8" y="387"/>
      <point x="181.8" y="437"/>
      <point x="181.8" y="502" type="curve"/>
      <point x="181.8" y="558"/>
      <point x="206.8" y="602"/>
      <point x="256.8" y="602" type="curve"/>
      <point x="328.8" y="602"/>
      <point x="354.8" y="542"/>
      <point x="354.8" y="462" type="curve"/>
      <point x="354.8" y="276"/>
      <point x="264.8" y="158"/>
      <point x="88.8" y="94" type="curve"/>
      <point x="143.8" y="-15"/>
      <point x="88.8" y="94"/>
      <point x="143.8" y="-15" type="curve"/>
      <point x="347.8" y="58"/>
      <point x="490.8" y="220"/>
      <point x="490.8" y="468" type="curve"/>
      <point x="490.8" y="626"/>
      <point x="411.8" y="734"/>
      <point x="261.8" y="734" type="curve"/>
      <point x="122.8" y="734"/>
      <point x="44.8" y="639"/>
      <point x="44.8" y="496" type="curve"/>
      <point x="44.8" y="359"/>
      <point x="121.8" y="271"/>
      <point x="254.8" y="271" type="curve"/>
      <point x="367.8" y="271"/>
      <point x="426.8" y="376"/>
      <point x="453.8" y="448" type="curve"/>
    </contour>
  </outline>
</glyph>
<glyph name="colon" format="1">
  <advance width="272.8"/>
  <unicode hex="003A"/>
  <outline>
    <contour>
      <point x="210.4" y="361"/>
      <point x="62.4" y="361"/>
      <point x="210.4" y="361" type="curve"/>
      <point x="210.4" y="409"/>
      <point x="178.4" y="433"/>
      <point x="135.4" y="433" type="curve"/>
      <point x="91.4" y="433"/>
      <point x="62.4" y="407"/>
      <point x="62.4" y="361" type="curve"/>
      <point x="210.4" y="361"/>
      <point x="62.4" y="361"/>
      <point x="210.4" y="361" type="curve"/>
      <point x="210.4" y="312"/>
      <point x="179.4" y="290"/>
      <point x="135.4" y="290" type="curve"/>
      <point x="90.4" y="290"/>
      <point x="62.4" y="314"/>
      <point x="62.4" y="361" type="curve"/>
    </contour>
    <contour>
      <point x="210.4" y="66"/>
      <point x="62.4" y="66"/>
      <point x="210.4" y="66" type="curve"/>
      <point x="210.4" y="114"/>
      <point x="178.4" y="138"/>
      <point x="135.4" y="138" type="curve"/>
      <point x="91.4" y="138"/>
      <point x="62.4" y="112"/>
      <point x="62.4" y="66" type="curve"/>
      <point x="210.4" y="66"/>
      <point x="62.4" y="66"/>
      <point x="210.4" y="66" type="curve"/>
      <point x="210.4" y="17"/>
      <point x="179.4" y="-5"/>
      <point x="135.4" y="-5" type="curve"/>
      <point x="90.4" y="-5"/>
      <point x="62.4" y="19"/>
      <point x="62.4" y="66" type="curve"/>
    </contour>
  </outline>
</glyph>
<glyph name="semicolon" format="1">
  <advance width="291.8"/>
  <unicode hex="003B"/>
  <outline>
    <contour>
      <point x="60.8" y="-216" type="line"/>
      <point x="166.8" y="-216"/>
      <point x="235.8" y="-146"/>
      <point x="235.8" y="-39" type="curve"/>
      <point x="235.8" y="50"/>
      <point x="198.8" y="96"/>
      <point x="147.8" y="96" type="curve"/>
      <point x="99.8" y="96"/>
      <point x="67.8" y="71"/>
      <point x="67.8" y="24" type="curve"/>
      <point x="67.8" y="-14"/>
      <point x="90.8" y="-44"/>
      <point x="133.8" y="-44" type="curve"/>
      <point x="133.8" y="-71"/>
      <point x="131.8" y="-126"/>
      <point x="60.8" y="-138" type="curve"/>
    </contour>
    <contour>
      <point x="220.8" y="376"/>
      <point x="72.8" y="376"/>
      <point x="220.8" y="376" type="curve"/>
      <point x="220.8" y="424"/>
      <point x="188.8" y="448"/>
      <point x="145.8" y="448" type="curve"/>
      <point x="101.8" y="448"/>
      <point x="72.8" y="422"/>
      <point x="72.8" y="376" type="curve"/>
      <point x="220.8" y="376"/>
      <point x="72.8" y="376"/>
      <point x="220.8" y="376" type="curve"/>
      <point x="220.8" y="327"/>
      <point x="189.8" y="305"/>
      <point x="145.8" y="305" type="curve"/>
      <point x="100.8" y="305"/>
      <point x="72.8" y="329"/>
      <point x="72.8" y="376" type="curve"/>
    </contour>
  </outline>
</glyph>
<glyph name="less" format="1">
  <advance width="556.0"/>
  <unicode hex="003C"/>
  <outline>
    <contour>
      <point x="490.4" y="631"/>
      <point x="490.4" y="509"/>
      <point x="490.4" y="631" type="curve"/>
      <point x="338.4" y="541"/>
      <point x="186.4" y="451"/>
      <point x="34.4" y="361" type="curve"/>
      <point x="34.4" y="239"/>
      <point x="34.4" y="361"/>
      <point x="34.4" y="239" type="curve"/>
      <point x="186.4" y="329"/>
      <point x="338.4" y="419"/>
      <point x="490.4" y="509" type="curve"/>
    </contour>
    <contour>
      <point x="498.4" y="97"/>
      <point x="498.4" y="-25"/>
      <point x="498.4" y="97" type="curve"/>
      <point x="343.4" y="185"/>
      <point x="188.4" y="273"/>
      <point x="34.4" y="361" type="curve"/>
      <point x="34.4" y="239"/>
      <point x="34.4" y="361"/>
      <point x="34.4" y="239" type="curve"/>
      <point x="188.4" y="151"/>
      <point x="343.4" y="63"/>
      <point x="498.4" y="-25" type="curve"/>
    </contour>
  </outline>
</glyph>
<glyph name="equal" format="1">
  <advance width="605.4"/>
  <unicode hex="003D"/>
  <outline>
    <contour>
      <point x="67.2" y="159"/>
      <point x="67.2" y="276"/>
      <point x="67.2" y="159" type="curve"/>
      <point x="224.2" y="159"/>
      <point x="381.2" y="159"/>
      <point x="538.2" y="159" type="curve"/>
      <point x="538.2" y="276"/>
      <point x="538.2" y="159"/>
      <point x="538.2" y="276" type="curve"/>
      <point x="381.2" y="276"/>
      <point x="224.2" y="276"/>
      <point x="67.2" y="276" type="curve"/>
    </contour>
    <contour>
      <point x="67.2" y="381"/>
      <point x="67.2" y="498"/>
      <point x="67.2" y="381" type="curve"/>
      <point x="224.2" y="381"/>
      <point x="381.2" y="381"/>
      <point x="538.2" y="381" type="curve"/>
      <point x="538.2" y="498"/>
      <point x="538.2" y="381"/>
      <point x="538.2" y="498" type="curve"/>
      <point x="381.2" y="498"/>
      <point x="224.2" y="498"/>
      <point x="67.2" y="498" type="curve"/>
    </contour>
  </outline>
</glyph>
<glyph name="greater" format="1">
  <advance width="557.6"/>
  <unicode hex="003E"/>
  <outline>
    <contour>
      <point x="66.2" y="-25"/>
      <point x="66.2" y="97"/>
      <point x="66.2" y="-25" type="curve"/>
      <point x="218.2" y="65"/>
      <point x="371.2" y="155"/>
      <point x="523.2" y="245" type="curve"/>
      <point x="523.2" y="367"/>
      <point x="523.2" y="245"/>
      <point x="523.2" y="367" type="curve"/>
      <point x="371.2" y="277"/>
      <point x="218.2" y="187"/>
      <point x="66.2" y="97" type="curve"/>
    </contour>
    <contour>
      <point x="59.2" y="509"/>
      <point x="59.2" y="631"/>
      <point x="59.2" y="509" type="curve"/>
      <point x="213.2" y="421"/>
      <point x="368.2" y="333"/>
      <point x="523.2" y="245" type="curve"/>
      <point x="523.2" y="367"/>
      <point x="523.2" y="245"/>
      <point x="523.2" y="367" type="curve"/>
      <point x="368.2" y="455"/>
      <point x="213.2" y="543"/>
      <point x="59.2" y="631" type="curve"/>
    </contour>
  </outline>
</glyph>
<glyph name="question" format="1">
  <advance width="484.0"/>
  <unicode hex="003F"/>
  <outline>
    <contour>
      <point x="165.4" y="380"/>
      <point x="295.4" y="380"/>
      <point x="165.4" y="380" type="curve"/>
      <point x="165.4" y="343"/>
      <point x="165.4" y="258"/>
      <point x="165.4" y="221" type="curve"/>
      <point x="295.4" y="221"/>
      <point x="165.4" y="221"/>
      <point x="295.4" y="221" type="curve"/>
      <point x="295.4" y="258"/>
      <point x="295.4" y="343"/>
      <point x="295.4" y="380" type="curve"/>
    </contour>
    <contour>
      <point x="105.4" y="581" type="line"/>
      <point x="137.4" y="615"/>
      <point x="165.4" y="634"/>
      <point x="209.4" y="634" type="curve"/>
      <point x="273.4" y="634"/>
      <point x="306.4" y="585"/>
      <point x="306.4" y="518" type="curve"/>
      <point x="306.4" y="436"/>
      <point x="259.4" y="380"/>
      <point x="179.4" y="380" type="curve"/>
      <point x="179.4" y="341"/>
      <point x="178.4" y="313"/>
      <point x="178.4" y="274" type="curve"/>
      <point x="338.4" y="274"/>
      <point x="442.4" y="367"/>
      <point x="442.4" y="518" type="curve"/>
      <point x="442.4" y="664"/>
      <point x="351.4" y="752"/>
      <point x="215.4" y="752" type="curve"/>
      <point x="136.4" y="752"/>
      <point x="75.4" y="727"/>
      <point x="30.4" y="672" type="curve"/>
    </contour>
    <contour>
      <point x="305.4" y="62"/>
      <point x="157.4" y="62"/>
      <point x="305.4" y="62" type="curve"/>
      <point x="305.4" y="110"/>
      <point x="273.4" y="134"/>
      <point x="230.4" y="134" type="curve"/>
      <point x="186.4" y="134"/>
      <point x="157.4" y="108"/>
      <point x="157.4" y="62" type="curve"/>
      <point x="305.4" y="62"/>
      <point x="157.4" y="62"/>
      <point x="305.4" y="62" type="curve"/>
      <point x="305.4" y="13"/>
      <point x="274.4" y="-9"/>
      <point x="230.4" y="-9" type="curve"/>
      <point x="185.4" y="-9"/>
      <point x="157.4" y="15"/>
      <point x="157.4" y="62" type="curve"/>
    </contour>
  </outline>
</glyph>
<glyph name="at" format="1">
  <advance width="731.6"/>
  <unicode hex="0040"/>
  <outline>
    <contour>
      <point x="470.8" y="-4"/>
      <point x="525.8" y="-98"/>
      <point x="470.8" y="-4" type="curve"/>
      <point x="440.8" y="-23"/>
      <point x="417.8" y="-31"/>
      <point x="381.8" y="-31" type="curve"/>
      <point x="249.8" y="-31"/>
      <point x="169.8" y="71"/>
      <point x="169.8" y="214" type="curve"/>
      <point x="169.8" y="350"/>
      <point x="243.8" y="447"/>
      <point x="369.8" y="447" type="curve"/>
      <point x="491.8" y="447"/>
      <point x="563.8" y="348"/>
      <point x="563.8" y="213" type="curve"/>
      <point x="563.8" y="167"/>
      <point x="564.8" y="127"/>
      <point x="547.8" y="127" type="curve"/>
      <point x="533.8" y="127"/>
      <point x="534.8" y="167"/>
      <point x="534.8" y="218" type="curve"/>
      <point x="534.8" y="332"/>
      <point x="475.8" y="412"/>
      <point x="367.8" y="412" type="curve"/>
      <point x="248.8" y="412"/>
      <point x="199.8" y="335"/>
      <point x="199.8" y="214" type="curve"/>
      <point x="199.8" y="92"/>
      <point x="243.8" y="10"/>
      <point x="356.8" y="10" type="curve"/>
      <point x="458.8" y="10"/>
      <point x="501.8" y="88"/>
      <point x="514.8" y="198" type="curve"/>
      <point x="423.8" y="220"/>
      <point x="514.8" y="198"/>
      <point x="423.8" y="220" type="curve"/>
      <point x="413.8" y="170"/>
      <point x="419.8" y="120"/>
      <point x="371.8" y="120" type="curve"/>
      <point x="335.8" y="120"/>
      <point x="325.8" y="165"/>
      <point x="325.8" y="220" type="curve"/>
      <point x="325.8" y="263"/>
      <point x="327.8" y="301"/>
      <point x="361.8" y="301" type="curve"/>
      <point x="405.8" y="301"/>
      <point x="404.8" y="261"/>
      <point x="404.8" y="212" type="curve"/>
      <point x="404.8" y="104"/>
      <point x="438.8" y="22"/>
      <point x="536.8" y="22" type="curve"/>
      <point x="640.8" y="22"/>
      <point x="682.8" y="104"/>
      <point x="682.8" y="219" type="curve"/>
      <point x="682.8" y="425"/>
      <point x="569.8" y="562"/>
      <point x="372.8" y="562" type="curve"/>
      <point x="162.8" y="562"/>
      <point x="44.8" y="424"/>
      <point x="44.8" y="208" type="curve"/>
      <point x="44.8" y="-5"/>
      <point x="168.8" y="-142"/>
      <point x="375.8" y="-142" type="curve"/>
      <point x="438.8" y="-142"/>
      <point x="472.8" y="-132"/>
      <point x="525.8" y="-98" type="curve"/>
    </contour>
  </outline>
</glyph>
<glyph name="A" format="1">
  <advance width="673.8"/>
  <unicode hex="0041"/>
  <outline>
    <contour>
      <point x="124.8" y="110"/>
      <point x="123.8" y="0"/>
      <point x="124.8" y="110" type="curve"/>
      <point x="-13.2" y="110"/>
      <point x="134.8" y="110"/>
      <point x="-3.2" y="110" type="curve"/>
      <point x="-3.2" y="0"/>
      <point x="-3.2" y="110"/>
      <point x="-3.2" y="0" type="curve"/>
      <point x="42.8" y="0"/>
      <point x="78.8" y="0"/>
      <point x="123.8" y="0" type="curve"/>
    </contour>
    <contour>
      <point x="124.8" y="0"/>
      <point x="124.8" y="110"/>
      <point x="124.8" y="0" type="curve"/>
      <point x="180.8" y="0"/>
      <point x="124.8" y="0"/>
      <point x="293.8" y="0" type="curve"/>
      <point x="293.8" y="110"/>
      <point x="293.8" y="0"/>
      <point x="293.8" y="110" type="curve"/>
      <point x="124.8" y="110"/>
      <point x="293.8" y="110"/>
      <point x="124.8" y="110" type="curve"/>
    </contour>
    <contour>
      <point x="534.8" y="0"/>
      <point x="534.8" y="110"/>
      <point x="534.8" y="0" type="curve"/>
      <point x="579.8" y="0"/>
      <point x="615.8" y="0"/>
      <point x="661.8" y="0" type="curve"/>
      <point x="661.8" y="110"/>
      <point x="661.8" y="0"/>
      <point x="661.8" y="110" type="curve"/>
      <point x="524.8" y="110"/>
      <point x="671.8" y="110"/>
      <point x="534.8" y="110" type="curve"/>
    </contour>
    <contour>
      <point x="534.8" y="110"/>
      <point x="534.8" y="0"/>
      <point x="534.8" y="110" type="curve"/>
      <point x="364.8" y="110"/>
      <point x="534.8" y="110"/>
      <point x="364.8" y="110" type="curve"/>
      <point x="364.8" y="0"/>
      <point x="364.8" y="110"/>
      <point x="364.8" y="0" type="curve"/>
      <point x="421.8" y="0"/>
      <point x="477.8" y="0"/>
      <point x="534.8" y="0" type="curve"/>
    </contour>
    <contour>
      <point x="446.8" y="294"/>
      <point x="492.8" y="177"/>
      <point x="446.8" y="294" type="curve"/>
      <point x="374.8" y="294"/>
      <point x="301.8" y="294"/>
      <point x="229.8" y="294" type="curve"/>
      <point x="170.8" y="177"/>
      <point x="229.8" y="294"/>
      <point x="170.8" y="177" type="curve"/>
      <point x="277.8" y="177"/>
      <point x="385.8" y="177"/>
      <point x="492.8" y="177" type="curve"/>
    </contour>
    <contour>
      <point x="617.8" y="0"/>
      <point x="468.8" y="0"/>
      <point x="617.8" y="0" type="curve"/>
      <point x="549.8" y="241"/>
      <point x="474.8" y="481"/>
      <point x="406.8" y="722" type="curve"/>
      <point x="276.8" y="722"/>
      <point x="406.8" y="722"/>
      <point x="276.8" y="722" type="curve"/>
      <point x="342.8" y="482"/>
      <point x="401.8" y="240"/>
      <point x="468.8" y="0" type="curve"/>
    </contour>
    <contour>
      <point x="193.8" y="0"/>
      <point x="37.8" y="0"/>
      <point x="193.8" y="0" type="curve"/>
      <point x="267.8" y="240"/>
      <point x="330.8" y="482"/>
      <point x="405.8" y="722" type="curve"/>
      <point x="275.8" y="722"/>
      <point x="405.8" y="722"/>
      <point x="275.8" y="722" type="curve"/>
      <point x="199.8" y="480"/>
      <point x="112.8" y="242"/>
      <point x="37.8" y="0" type="curve"/>
    </contour>
    <contour>
      <point x="337.8" y="780" type="move" name="top"/>
    </contour>
    <contour>
      <point x="605.8" y="5" type="move" name="bottom"/>
    </contour>
  </outline>
</glyph>
<glyph name="B" format="1">
  <advance width="610.6"/>
  <unicode hex="0042"/>
  <outline>
    <contour>
      <point x="196.4" y="722"/>
      <point x="196.4" y="612"/>
      <point x="196.4" y="722" type="curve"/>
      <point x="151.4" y="722"/>
      <point x="107.4" y="722"/>
      <point x="63.4" y="722" type="curve"/>
      <point x="63.4" y="612"/>
      <point x="63.4" y="722"/>
      <point x="63.4" y="612" type="curve"/>
      <point x="196.4" y="612"/>
      <point x="63.4" y="612"/>
      <point x="196.4" y="612" type="curve"/>
    </contour>
    <contour>
      <point x="195.4" y="110"/>
      <point x="195.4" y="0"/>
      <point x="195.4" y="110" type="curve"/>
      <point x="62.4" y="110"/>
      <point x="195.4" y="110"/>
      <point x="62.4" y="110" type="curve"/>
      <point x="62.4" y="0"/>
      <point x="62.4" y="110"/>
      <point x="62.4" y="0" type="curve"/>
      <point x="107.4" y="0"/>
      <point x="151.4" y="0"/>
      <point x="195.4" y="0" type="curve"/>
    </contour>
    <contour>
      <point x="188.4" y="680"/>
      <point x="188.4" y="654"/>
      <point x="188.4" y="612" type="curve"/>
      <point x="238.4" y="612"/>
      <point x="271.4" y="612"/>
      <point x="321.4" y="612" type="curve"/>
      <point x="370.4" y="612"/>
      <point x="389.4" y="580"/>
      <point x="389.4" y="536" type="curve"/>
      <point x="389.4" y="492"/>
      <point x="370.4" y="459"/>
      <point x="325.4" y="459" type="curve"/>
      <point x="274.4" y="459"/>
      <point x="239.4" y="459"/>
      <point x="188.4" y="459" type="curve"/>
      <point x="188.4" y="417"/>
      <point x="188.4" y="390"/>
      <point x="188.4" y="348" type="curve"/>
      <point x="222.4" y="348"/>
      <point x="244.4" y="348"/>
      <point x="278.4" y="348" type="curve"/>
      <point x="396.4" y="348"/>
      <point x="530.4" y="398"/>
      <point x="530.4" y="530" type="curve"/>
      <point x="530.4" y="652"/>
      <point x="455.4" y="722"/>
      <point x="331.4" y="722" type="curve"/>
      <point x="277.4" y="722"/>
      <point x="242.4" y="722"/>
      <point x="188.4" y="722" type="curve"/>
    </contour>
    <contour>
      <point x="271.4" y="0"/>
      <point x="122.4" y="0"/>
      <point x="271.4" y="0" type="curve"/>
      <point x="271.4" y="241"/>
      <point x="271.4" y="481"/>
      <point x="271.4" y="722" type="curve"/>
      <point x="122.4" y="722"/>
      <point x="271.4" y="722"/>
      <point x="122.4" y="722" type="curve"/>
      <point x="122.4" y="481"/>
      <point x="122.4" y="241"/>
      <point x="122.4" y="0" type="curve"/>
    </contour>
    <contour>
      <point x="188.4" y="417"/>
      <point x="188.4" y="390"/>
      <point x="188.4" y="348" type="curve"/>
      <point x="239.4" y="348"/>
      <point x="274.4" y="348"/>
      <point x="325.4" y="348" type="curve"/>
      <point x="396.4" y="348"/>
      <point x="424.4" y="297"/>
      <point x="424.4" y="228" type="curve"/>
      <point x="424.4" y="159"/>
      <point x="394.4" y="110"/>
      <point x="326.4" y="110" type="curve"/>
      <point x="274.4" y="110"/>
      <point x="240.4" y="110"/>
      <point x="188.4" y="110" type="curve"/>
      <point x="188.4" y="68"/>
      <point x="188.4" y="42"/>
      <point x="188.4" y="0" type="curve"/>
      <point x="244.4" y="0"/>
      <point x="280.4" y="0"/>
      <point x="336.4" y="0" type="curve"/>
      <point x="479.4" y="0"/>
      <point x="567.4" y="82"/>
      <point x="567.4" y="224" type="curve"/>
      <point x="567.4" y="383"/>
      <point x="434.4" y="459"/>
      <point x="278.4" y="459" type="curve"/>
      <point x="244.4" y="459"/>
      <point x="222.4" y="459"/>
      <point x="188.4" y="459" type="curve"/>
    </contour>
  </outline>
</glyph>
<glyph name="C" format="1">
  <advance width="610.2"/>
  <unicode hex="0043"/>
  <outline>
    <contour>
      <point x="442.2" y="654"/>
      <point x="554.2" y="654"/>
      <point x="442.2" y="654" type="curve"/>
      <point x="442.2" y="534"/>
      <point x="442.2" y="654"/>
      <point x="442.2" y="534" type="curve"/>
      <point x="554.2" y="534"/>
      <point x="442.2" y="534"/>
      <point x="554.2" y="534" type="curve"/>
      <point x="554.2" y="654"/>
      <point x="554.2" y="534"/>
      <point x="554.2" y="654" type="curve"/>
    </contour>
    <contour>
      <point x="554.2" y="654"/>
      <point x="476.2" y="566"/>
      <point x="554.2" y="654" type="curve"/>
      <point x="496.2" y="697"/>
      <point x="426.2" y="727"/>
      <point x="346.2" y="727" type="curve"/>
      <point x="143.2" y="727"/>
      <point x="47.2" y="571"/>
      <point x="47.2" y="345" type="curve"/>
      <point x="47.2" y="138"/>
      <point x="140.2" y="-5"/>
      <point x="332.2" y="-5" type="curve"/>
      <point x="435.2" y="-5"/>
      <point x="505.2" y="29"/>
      <point x="566.2" y="99" type="curve"/>
      <point x="483.2" y="181"/>
      <point x="566.2" y="99"/>
      <point x="483.2" y="181" type="curve"/>
      <point x="439.2" y="138"/>
      <point x="401.2" y="110"/>
      <point x="339.2" y="110" type="curve"/>
      <point x="222.2" y="110"/>
      <point x="190.2" y="216"/>
      <point x="190.2" y="350" type="curve"/>
      <point x="190.2" y="496"/>
      <point x="219.2" y="612"/>
      <point x="341.2" y="612" type="curve"/>
      <point x="393.2" y="612"/>
      <point x="439.2" y="594"/>
      <point x="476.2" y="566" type="curve"/>
    </contour>
    <contour>
      <point x="338.2" y="780" type="move" name="top"/>
    </contour>
    <contour>
      <point x="375.2" y="5" type="move" name="bottom"/>
    </contour>
  </outline>
</glyph>
<glyph name="D" format="1">
  <advance width="697.2"/>
  <unicode hex="0044"/>
  <outline>
    <contour>
      <point x="200.2" y="110"/>
      <point x="200.2" y="0"/>
      <point x="200.2" y="110" type="curve"/>
      <point x="63.2" y="110"/>
      <point x="200.2" y="110"/>
      <point x="63.2" y="110" type="curve"/>
      <point x="63.2" y="0"/>
      <point x="63.2" y="110"/>
      <point x="63.2" y="0" type="curve"/>
      <point x="109.2" y="0"/>
      <point x="155.2" y="0"/>
      <point x="200.2" y="0" type="curve"/>
    </contour>
    <contour>
      <point x="200.2" y="722"/>
      <point x="200.2" y="612"/>
      <point x="200.2" y="722" type="curve"/>
      <point x="155.2" y="722"/>
      <point x="109.2" y="722"/>
      <point x="63.2" y="722" type="curve"/>
      <point x="63.2" y="612"/>
      <point x="63.2" y="722"/>
      <point x="63.2" y="612" type="curve"/>
      <point x="200.2" y="612"/>
      <point x="63.2" y="612"/>
      <point x="200.2" y="612" type="curve"/>
    </contour>
    <contour>
      <point x="127.2" y="722"/>
      <point x="270.2" y="722"/>
      <point x="127.2" y="722" type="curve"/>
      <point x="127.2" y="481"/>
      <point x="127.2" y="241"/>
      <point x="127.2" y="0" type="curve"/>
      <point x="270.2" y="0"/>
      <point x="127.2" y="0"/>
      <point x="270.2" y="0" type="curve"/>
      <point x="270.2" y="241"/>
      <point x="270.2" y="481"/>
      <point x="270.2" y="722" type="curve"/>
    </contour>
    <contour>
      <point x="200.2" y="0"/>
      <point x="200.2" y="110"/>
      <point x="200.2" y="0" type="curve"/>
      <point x="248.2" y="0"/>
      <point x="296.2" y="0"/>
      <point x="345.2" y="0" type="curve"/>
      <point x="554.2" y="0"/>
      <point x="649.2" y="134"/>
      <point x="649.2" y="354" type="curve"/>
      <point x="649.2" y="581"/>
      <point x="557.2" y="722"/>
      <point x="343.2" y="722" type="curve"/>
      <point x="296.2" y="722"/>
      <point x="248.2" y="722"/>
      <point x="200.2" y="722" type="curve"/>
      <point x="200.2" y="612"/>
      <point x="200.2" y="722"/>
      <point x="200.2" y="612" type="curve"/>
      <point x="246.2" y="612"/>
      <point x="291.2" y="612"/>
      <point x="337.2" y="612" type="curve"/>
      <point x="473.2" y="612"/>
      <point x="506.2" y="504"/>
      <point x="506.2" y="352" type="curve"/>
      <point x="506.2" y="212"/>
      <point x="479.2" y="110"/>
      <point x="358.2" y="110" type="curve"/>
      <point x="305.2" y="110"/>
      <point x="253.2" y="110"/>
      <point x="200.2" y="110" type="curve"/>
    </contour>
    <contour>
      <point x="317.2" y="780" type="move" name="top"/>
    </contour>
  </outline>
</glyph>
<glyph name="F" format="1">
  <advance width="521.8"/>
  <unicode hex="0046"/>
  <outline>
    <contour>
      <point x="198.6" y="0"/>
      <point x="198.6" y="110"/>
      <point x="198.6" y="0" type="curve"/>
      <point x="244.6" y="0"/>
      <point x="198.6" y="0"/>
      <point x="336.6" y="0" type="curve"/>
      <point x="336.6" y="110"/>
      <point x="336.6" y="0"/>
      <point x="336.6" y="110" type="curve"/>
      <point x="198.6" y="110"/>
      <point x="336.6" y="110"/>
      <point x="198.6" y="110" type="curve"/>
    </contour>
    <contour>
      <point x="198.6" y="722"/>
      <point x="198.6" y="612"/>
      <point x="198.6" y="722" type="curve"/>
      <point x="153.6" y="722"/>
      <point x="107.6" y="722"/>
      <point x="61.6" y="722" type="curve"/>
      <point x="61.6" y="612"/>
      <point x="61.6" y="722"/>
      <point x="61.6" y="612" type="curve"/>
      <point x="198.6" y="612"/>
      <point x="61.6" y="612"/>
      <point x="198.6" y="612" type="curve"/>
    </contour>
    <contour>
      <point x="198.6" y="110"/>
      <point x="198.6" y="0"/>
      <point x="198.6" y="110" type="curve"/>
      <point x="61.6" y="110"/>
      <point x="198.6" y="110"/>
      <point x="61.6" y="110" type="curve"/>
      <point x="61.6" y="0"/>
      <point x="61.6" y="110"/>
      <point x="61.6" y="0" type="curve"/>
      <point x="107.6" y="0"/>
      <point x="153.6" y="0"/>
      <point x="198.6" y="0" type="curve"/>
    </contour>
    <contour>
      <point x="386.6" y="667"/>
      <point x="498.6" y="667"/>
      <point x="386.6" y="667" type="curve"/>
      <point x="386.6" y="547"/>
      <point x="386.6" y="667"/>
      <point x="386.6" y="547" type="curve"/>
      <point x="498.6" y="547"/>
      <point x="386.6" y="547"/>
      <point x="498.6" y="547" type="curve"/>
      <point x="498.6" y="667"/>
      <point x="498.6" y="547"/>
      <point x="498.6" y="667" type="curve"/>
    </contour>
    <contour>
      <point x="201.6" y="317"/>
      <point x="201.6" y="428"/>
      <point x="201.6" y="317" type="curve"/>
      <point x="282.6" y="317"/>
      <point x="362.6" y="317"/>
      <point x="443.6" y="317" type="curve"/>
      <point x="443.6" y="428"/>
      <point x="443.6" y="317"/>
      <point x="443.6" y="428" type="curve"/>
      <point x="362.6" y="428"/>
      <point x="282.6" y="428"/>
      <point x="201.6" y="428" type="curve"/>
    </contour>
    <contour>
      <point x="270.6" y="0"/>
      <point x="127.6" y="0"/>
      <point x="270.6" y="0" type="curve"/>
      <point x="270.6" y="0"/>
      <point x="270.6" y="722"/>
      <point x="270.6" y="722" type="curve"/>
      <point x="127.6" y="722"/>
      <point x="270.6" y="722"/>
      <point x="127.6" y="722" type="curve"/>
      <point x="127.6" y="481"/>
      <point x="127.6" y="241"/>
      <point x="127.6" y="0" type="curve"/>
    </contour>
    <contour>
      <point x="190.6" y="612"/>
      <point x="190.6" y="722"/>
      <point x="190.6" y="612" type="curve"/>
      <point x="292.6" y="612"/>
      <point x="395.6" y="612"/>
      <point x="498.6" y="612" type="curve"/>
      <point x="498.6" y="722"/>
      <point x="498.6" y="612"/>
      <point x="498.6" y="722" type="curve"/>
      <point x="395.6" y="722"/>
      <point x="292.6" y="722"/>
      <point x="190.6" y="722" type="curve"/>
    </contour>
  </outline>
</glyph>
<glyph name="H" format="1">
  <advance width="719.2"/>
  <unicode hex="0048"/>
  <outline>
    <contour>
      <point x="544.6" y="612"/>
      <point x="544.6" y="722"/>
      <point x="544.6" y="612" type="curve"/>
      <point x="681.6" y="612"/>
      <point x="544.6" y="612"/>
      <point x="681.6" y="612" type="curve"/>
      <point x="681.6" y="722"/>
      <point x="681.6" y="612"/>
      <point x="681.6" y="722" type="curve"/>
      <point x="635.6" y="722"/>
      <point x="589.6" y="722"/>
      <point x="544.6" y="722" type="curve"/>
    </contour>
    <contour>
      <point x="544.6" y="0"/>
      <point x="544.6" y="110"/>
      <point x="544.6" y="0" type="curve"/>
      <point x="589.6" y="0"/>
      <point x="635.6" y="0"/>
      <point x="681.6" y="0" type="curve"/>
      <point x="681.6" y="110"/>
      <point x="681.6" y="0"/>
      <point x="681.6" y="110" type="curve"/>
      <point x="544.6" y="110"/>
      <point x="681.6" y="110"/>
      <point x="544.6" y="110" type="curve"/>
    </contour>
    <contour>
      <point x="544.6" y="110"/>
      <point x="544.6" y="0"/>
      <point x="544.6" y="110" type="curve"/>
      <point x="407.6" y="110"/>
      <point x="544.6" y="110"/>
      <point x="407.6" y="110" type="curve"/>
      <point x="407.6" y="0"/>
      <point x="407.6" y="110"/>
      <point x="407.6" y="0" type="curve"/>
      <point x="452.6" y="0"/>
      <point x="498.6" y="0"/>
      <point x="544.6" y="0" type="curve"/>
    </contour>
    <contour>
      <point x="544.6" y="722"/>
      <point x="544.6" y="612"/>
      <point x="544.6" y="722" type="curve"/>
      <point x="498.6" y="722"/>
      <point x="452.6" y="722"/>
      <point x="407.6" y="722" type="curve"/>
      <point x="407.6" y="612"/>
      <point x="407.6" y="722"/>
      <point x="407.6" y="612" type="curve"/>
      <point x="544.6" y="612"/>
      <point x="407.6" y="612"/>
      <point x="544.6" y="612" type="curve"/>
    </contour>
    <contour>
      <point x="174.6" y="612"/>
      <point x="174.6" y="722"/>
      <point x="174.6" y="612" type="curve"/>
      <point x="312.6" y="612"/>
      <point x="174.6" y="612"/>
      <point x="312.6" y="612" type="curve"/>
      <point x="312.6" y="722"/>
      <point x="312.6" y="612"/>
      <point x="312.6" y="722" type="curve"/>
      <point x="266.6" y="722"/>
      <point x="220.6" y="722"/>
      <point x="174.6" y="722" type="curve"/>
    </contour>
    <contour>
      <point x="174.6" y="722"/>
      <point x="174.6" y="612"/>
      <point x="174.6" y="722" type="curve"/>
      <point x="129.6" y="722"/>
      <point x="83.6" y="722"/>
      <point x="37.6" y="722" type="curve"/>
      <point x="37.6" y="612"/>
      <point x="37.6" y="722"/>
      <point x="37.6" y="612" type="curve"/>
      <point x="174.6" y="612"/>
      <point x="37.6" y="612"/>
      <point x="174.6" y="612" type="curve"/>
    </contour>
    <contour>
      <point x="174.6" y="0"/>
      <point x="174.6" y="110"/>
      <point x="174.6" y="0" type="curve"/>
      <point x="220.6" y="0"/>
      <point x="174.6" y="0"/>
      <point x="312.6" y="0" type="curve"/>
      <point x="312.6" y="110"/>
      <point x="312.6" y="0"/>
      <point x="312.6" y="110" type="curve"/>
      <point x="174.6" y="110"/>
      <point x="312.6" y="110"/>
      <point x="174.6" y="110" type="curve"/>
    </contour>
    <contour>
      <point x="174.6" y="110"/>
      <point x="174.6" y="0"/>
      <point x="174.6" y="110" type="curve"/>
      <point x="37.6" y="110"/>
      <point x="174.6" y="110"/>
      <point x="37.6" y="110" type="curve"/>
      <point x="37.6" y="0"/>
      <point x="37.6" y="110"/>
      <point x="37.6" y="0" type="curve"/>
      <point x="83.6" y="0"/>
      <point x="129.6" y="0"/>
      <point x="174.6" y="0" type="curve"/>
    </contour>
    <contour>
      <point x="246.6" y="0"/>
      <point x="103.6" y="0"/>
      <point x="246.6" y="0" type="curve"/>
      <point x="246.6" y="0"/>
      <point x="246.6" y="722"/>
      <point x="246.6" y="722" type="curve"/>
      <point x="103.6" y="722"/>
      <point x="246.6" y="722"/>
      <point x="103.6" y="722" type="curve"/>
      <point x="103.6" y="481"/>
      <point x="103.6" y="241"/>
      <point x="103.6" y="0" type="curve"/>
    </contour>
    <contour>
      <point x="542.6" y="418"/>
      <point x="542.6" y="307"/>
      <point x="542.6" y="418" type="curve"/>
      <point x="419.6" y="418"/>
      <point x="297.6" y="418"/>
      <point x="174.6" y="418" type="curve"/>
      <point x="174.6" y="307"/>
      <point x="174.6" y="418"/>
      <point x="174.6" y="307" type="curve"/>
      <point x="297.6" y="307"/>
      <point x="419.6" y="307"/>
      <point x="542.6" y="307" type="curve"/>
    </contour>
    <contour>
      <point x="615.6" y="47"/>
      <point x="472.6" y="47"/>
      <point x="615.6" y="47" type="curve"/>
      <point x="615.6" y="256"/>
      <point x="615.6" y="466"/>
      <point x="615.6" y="675" type="curve"/>
      <point x="472.6" y="675"/>
      <point x="615.6" y="675"/>
      <point x="472.6" y="675" type="curve"/>
      <point x="472.6" y="675"/>
      <point x="472.6" y="47"/>
      <point x="472.6" y="47" type="curve"/>
    </contour>
  </outline>
</glyph>
<glyph name="I" format="1">
  <advance width="351.8"/>
  <unicode hex="0049"/>
  <outline>
    <contour>
      <point x="177.2" y="722"/>
      <point x="177.2" y="612"/>
      <point x="177.2" y="722" type="curve"/>
      <point x="131.2" y="722"/>
      <point x="85.2" y="722"/>
      <point x="39.2" y="722" type="curve"/>
      <point x="39.2" y="612"/>
      <point x="39.2" y="722"/>
      <point x="39.2" y="612" type="curve"/>
      <point x="177.2" y="612"/>
      <point x="39.2" y="612"/>
      <point x="177.2" y="612" type="curve"/>
    </contour>
    <contour>
      <point x="177.2" y="612"/>
      <point x="177.2" y="722"/>
      <point x="177.2" y="612" type="curve"/>
      <point x="314.2" y="612"/>
      <point x="177.2" y="612"/>
      <point x="314.2" y="612" type="curve"/>
      <point x="314.2" y="722"/>
      <point x="314.2" y="612"/>
      <point x="314.2" y="722" type="curve"/>
      <point x="268.2" y="722"/>
      <point x="222.2" y="722"/>
      <point x="177.2" y="722" type="curve"/>
    </contour>
    <contour>
      <point x="177.2" y="0"/>
      <point x="177.2" y="110"/>
      <point x="177.2" y="0" type="curve"/>
      <point x="222.2" y="0"/>
      <point x="268.2" y="0"/>
      <point x="314.2" y="0" type="curve"/>
      <point x="314.2" y="110"/>
      <point x="314.2" y="0"/>
      <point x="314.2" y="110" type="curve"/>
      <point x="177.2" y="110"/>
      <point x="314.2" y="110"/>
      <point x="177.2" y="110" type="curve"/>
    </contour>
    <contour>
      <point x="177.2" y="110"/>
      <point x="177.2" y="0"/>
      <point x="177.2" y="110" type="curve"/>
      <point x="39.2" y="110"/>
      <point x="177.2" y="110"/>
      <point x="39.2" y="110" type="curve"/>
      <point x="39.2" y="0"/>
      <point x="39.2" y="110"/>
      <point x="39.2" y="0" type="curve"/>
      <point x="85.2" y="0"/>
      <point x="131.2" y="0"/>
      <point x="177.2" y="0" type="curve"/>
    </contour>
    <contour>
      <point x="247.2" y="0"/>
      <point x="104.2" y="0"/>
      <point x="247.2" y="0" type="curve"/>
      <point x="247.2" y="241"/>
      <point x="247.2" y="481"/>
      <point x="247.2" y="722" type="curve"/>
      <point x="104.2" y="722"/>
      <point x="247.2" y="722"/>
      <point x="104.2" y="722" type="curve"/>
      <point x="104.2" y="481"/>
      <point x="104.2" y="241"/>
      <point x="104.2" y="0" type="curve"/>
    </contour>
    <contour>
      <point x="178.2" y="780" type="move" name="top"/>
    </contour>
    <contour>
      <point x="236.2" y="5" type="move" name="bottom"/>
    </contour>
  </outline>
</glyph>
<glyph name="J" format="1">
  <advance width="398.4"/>
  <unicode hex="004A"/>
  <outline>
    <contour>
      <point x="243.0" y="722"/>
      <point x="243.0" y="612"/>
      <point x="243.0" y="722" type="curve"/>
      <point x="199.0" y="722"/>
      <point x="155.0" y="722"/>
      <point x="110.0" y="722" type="curve"/>
      <point x="110.0" y="612"/>
      <point x="110.0" y="722"/>
      <point x="110.0" y="612" type="curve"/>
      <point x="243.0" y="612"/>
      <point x="110.0" y="612"/>
      <point x="243.0" y="612" type="curve"/>
    </contour>
    <contour>
      <point x="243.0" y="612"/>
      <point x="243.0" y="722"/>
      <point x="243.0" y="612" type="curve"/>
      <point x="376.0" y="612"/>
      <point x="243.0" y="612"/>
      <point x="376.0" y="612" type="curve"/>
      <point x="376.0" y="722"/>
      <point x="376.0" y="612"/>
      <point x="376.0" y="722" type="curve"/>
      <point x="332.0" y="722"/>
      <point x="287.0" y="722"/>
      <point x="243.0" y="722" type="curve"/>
    </contour>
    <contour>
      <point x="-4.0" y="45"/>
      <point x="61.0" y="133"/>
      <point x="-4.0" y="45" type="curve"/>
      <point x="22.0" y="23"/>
      <point x="62.0" y="-4"/>
      <point x="113.0" y="-4" type="curve"/>
      <point x="251.0" y="-4"/>
      <point x="314.0" y="85"/>
      <point x="314.0" y="246" type="curve"/>
      <point x="314.0" y="403"/>
      <point x="314.0" y="564"/>
      <point x="314.0" y="722" type="curve"/>
      <point x="171.0" y="722"/>
      <point x="314.0" y="722"/>
      <point x="171.0" y="722" type="curve"/>
      <point x="171.0" y="564"/>
      <point x="171.0" y="403"/>
      <point x="171.0" y="246" type="curve"/>
      <point x="171.0" y="172"/>
      <point x="172.0" y="109"/>
      <point x="113.0" y="109" type="curve"/>
      <point x="90.0" y="109"/>
      <point x="78.0" y="121"/>
      <point x="61.0" y="133" type="curve"/>
    </contour>
  </outline>
</glyph>
<glyph name="K" format="1">
  <advance width="667.4"/>
  <unicode hex="004B"/>
  <outline>
    <contour>
      <point x="487.6" y="722"/>
      <point x="487.6" y="612"/>
      <point x="487.6" y="722" type="curve"/>
      <point x="440.6" y="722"/>
      <point x="388.6" y="722"/>
      <point x="342.6" y="722" type="curve"/>
      <point x="342.6" y="612"/>
      <point x="342.6" y="722"/>
      <point x="342.6" y="612" type="curve"/>
      <point x="480.6" y="612"/>
      <point x="349.6" y="612"/>
      <point x="487.6" y="612" type="curve"/>
    </contour>
    <contour>
      <point x="483.6" y="0"/>
      <point x="483.6" y="110"/>
      <point x="483.6" y="0" type="curve"/>
      <point x="549.6" y="0"/>
      <point x="556.6" y="0"/>
      <point x="622.6" y="0" type="curve"/>
      <point x="622.6" y="110"/>
      <point x="622.6" y="0"/>
      <point x="622.6" y="110" type="curve"/>
      <point x="426.6" y="110"/>
      <point x="679.6" y="110"/>
      <point x="483.6" y="110" type="curve"/>
    </contour>
    <contour>
      <point x="457.6" y="612"/>
      <point x="457.6" y="722"/>
      <point x="457.6" y="612" type="curve"/>
      <point x="594.6" y="612"/>
      <point x="457.6" y="612"/>
      <point x="594.6" y="612" type="curve"/>
      <point x="594.6" y="722"/>
      <point x="594.6" y="612"/>
      <point x="594.6" y="722" type="curve"/>
      <point x="549.6" y="722"/>
      <point x="503.6" y="722"/>
      <point x="457.6" y="722" type="curve"/>
    </contour>
    <contour>
      <point x="170.6" y="722"/>
      <point x="170.6" y="612"/>
      <point x="170.6" y="722" type="curve"/>
      <point x="126.6" y="722"/>
      <point x="82.6" y="722"/>
      <point x="37.6" y="722" type="curve"/>
      <point x="37.6" y="612"/>
      <point x="37.6" y="722"/>
      <point x="37.6" y="612" type="curve"/>
      <point x="170.6" y="612"/>
      <point x="37.6" y="612"/>
      <point x="170.6" y="612" type="curve"/>
    </contour>
    <contour>
      <point x="170.6" y="612"/>
      <point x="170.6" y="722"/>
      <point x="170.6" y="612" type="curve"/>
      <point x="308.6" y="612"/>
      <point x="134.6" y="612"/>
      <point x="272.6" y="612" type="curve"/>
      <point x="272.6" y="722"/>
      <point x="272.6" y="612"/>
      <point x="272.6" y="722" type="curve"/>
      <point x="226.6" y="722"/>
      <point x="216.6" y="722"/>
      <point x="170.6" y="722" type="curve"/>
    </contour>
    <contour>
      <point x="170.6" y="0"/>
      <point x="170.6" y="110"/>
      <point x="170.6" y="0" type="curve"/>
      <point x="220.6" y="0"/>
      <point x="134.6" y="0"/>
      <point x="285.6" y="0" type="curve"/>
      <point x="285.6" y="110"/>
      <point x="285.6" y="0"/>
      <point x="285.6" y="110" type="curve"/>
      <point x="134.6" y="110"/>
      <point x="321.6" y="110"/>
      <point x="170.6" y="110" type="curve"/>
    </contour>
    <contour>
      <point x="170.6" y="110"/>
      <point x="170.6" y="0"/>
      <point x="170.6" y="110" type="curve"/>
      <point x="37.6" y="110"/>
      <point x="170.6" y="110"/>
      <point x="37.6" y="110" type="curve"/>
      <point x="37.6" y="0"/>
      <point x="37.6" y="110"/>
      <point x="37.6" y="0" type="curve"/>
      <point x="82.6" y="0"/>
      <point x="126.6" y="0"/>
      <point x="170.6" y="0" type="curve"/>
    </contour>
    <contour>
      <point x="462.6" y="658"/>
      <point x="561.6" y="722"/>
      <point x="462.6" y="722" type="curve"/>
      <point x="229.6" y="380" type="line"/>
      <point x="381.6" y="380"/>
      <point x="229.6" y="380"/>
      <point x="381.6" y="380" type="curve"/>
      <point x="561.6" y="658" type="line"/>
    </contour>
    <contour>
      <point x="242.6" y="0"/>
      <point x="99.6" y="0"/>
      <point x="242.6" y="0" type="curve"/>
      <point x="242.6" y="0"/>
      <point x="242.6" y="722"/>
      <point x="242.6" y="722" type="curve"/>
      <point x="99.6" y="722"/>
      <point x="242.6" y="722"/>
      <point x="99.6" y="722" type="curve"/>
      <point x="99.6" y="481"/>
      <point x="99.6" y="241"/>
      <point x="99.6" y="0" type="curve"/>
    </contour>
    <contour>
      <point x="593.6" y="0"/>
      <point x="479.6" y="52"/>
      <point x="593.6" y="52" type="curve"/>
      <point x="381.6" y="380" type="line"/>
      <point x="229.6" y="380"/>
      <point x="381.6" y="380"/>
      <point x="229.6" y="380" type="curve"/>
      <point x="479.6" y="0" type="line"/>
    </contour>
    <contour>
      <point x="354.6" y="0" type="move" name="bottom"/>
    </contour>
  </outline>
</glyph>
<glyph name="M" format="1">
  <advance width="806.2"/>
  <unicode hex="004D"/>
  <outline>
    <contour>
      <point x="661.4" y="0"/>
      <point x="661.4" y="110"/>
      <point x="661.4" y="0" type="curve"/>
      <point x="704.4" y="0"/>
      <point x="746.4" y="0"/>
      <point x="789.4" y="0" type="curve"/>
      <point x="789.4" y="110"/>
      <point x="789.4" y="0"/>
      <point x="789.4" y="110" type="curve"/>
      <point x="661.4" y="110"/>
      <point x="789.4" y="110"/>
      <point x="661.4" y="110" type="curve"/>
    </contour>
    <contour>
      <point x="661.4" y="110"/>
      <point x="661.4" y="0"/>
      <point x="661.4" y="110" type="curve"/>
      <point x="544.4" y="110"/>
      <point x="661.4" y="110"/>
      <point x="544.4" y="110" type="curve"/>
      <point x="544.4" y="0"/>
      <point x="544.4" y="110"/>
      <point x="544.4" y="0" type="curve"/>
      <point x="583.4" y="0"/>
      <point x="623.4" y="0"/>
      <point x="661.4" y="0" type="curve"/>
    </contour>
    <contour>
      <point x="146.4" y="110"/>
      <point x="146.4" y="0"/>
      <point x="146.4" y="110" type="curve"/>
      <point x="18.4" y="110"/>
      <point x="146.4" y="110"/>
      <point x="18.4" y="110" type="curve"/>
      <point x="18.4" y="0"/>
      <point x="18.4" y="110"/>
      <point x="18.4" y="0" type="curve"/>
      <point x="61.4" y="0"/>
      <point x="103.4" y="0"/>
      <point x="146.4" y="0" type="curve"/>
    </contour>
    <contour>
      <point x="189.4" y="722"/>
      <point x="189.4" y="612"/>
      <point x="189.4" y="722" type="curve"/>
      <point x="146.4" y="722"/>
      <point x="104.4" y="722"/>
      <point x="62.4" y="722" type="curve"/>
      <point x="61.4" y="612"/>
      <point x="62.4" y="722"/>
      <point x="61.4" y="612" type="curve"/>
      <point x="189.4" y="612"/>
      <point x="61.4" y="612"/>
      <point x="189.4" y="612" type="curve"/>
    </contour>
    <contour>
      <point x="616.4" y="612"/>
      <point x="616.4" y="722"/>
      <point x="616.4" y="612" type="curve"/>
      <point x="743.4" y="612"/>
      <point x="616.4" y="612"/>
      <point x="743.4" y="612" type="curve"/>
      <point x="743.4" y="722"/>
      <point x="743.4" y="612"/>
      <point x="743.4" y="722" type="curve"/>
      <point x="700.4" y="722"/>
      <point x="658.4" y="722"/>
      <point x="616.4" y="722" type="curve"/>
    </contour>
    <contour>
      <point x="146.4" y="0"/>
      <point x="146.4" y="110"/>
      <point x="146.4" y="0" type="curve"/>
      <point x="184.4" y="0"/>
      <point x="146.4" y="0"/>
      <point x="263.4" y="0" type="curve"/>
      <point x="263.4" y="110"/>
      <point x="263.4" y="0"/>
      <point x="263.4" y="110" type="curve"/>
      <point x="146.4" y="110"/>
      <point x="263.4" y="110"/>
      <point x="146.4" y="110" type="curve"/>
    </contour>
    <contour>
      <point x="741.4" y="0"/>
      <point x="598.4" y="0"/>
      <point x="741.4" y="0" type="curve"/>
      <point x="725.4" y="241"/>
      <point x="704.4" y="481"/>
      <point x="689.4" y="722" type="curve"/>
      <point x="559.4" y="722"/>
      <point x="689.4" y="722"/>
      <point x="559.4" y="722" type="curve"/>
      <point x="574.4" y="481"/>
      <point x="583.4" y="241"/>
      <point x="598.4" y="0" type="curve"/>
    </contour>
    <contour>
      <point x="205.4" y="0"/>
      <point x="83.4" y="0"/>
      <point x="205.4" y="0" type="curve"/>
      <point x="219.4" y="241"/>
      <point x="233.4" y="481"/>
      <point x="247.4" y="722" type="curve"/>
      <point x="127.4" y="722"/>
      <point x="247.4" y="722"/>
      <point x="127.4" y="722" type="curve"/>
      <point x="112.4" y="481"/>
      <point x="98.4" y="241"/>
      <point x="83.4" y="0" type="curve"/>
    </contour>
    <contour>
      <point x="460.4" y="0"/>
      <point x="339.4" y="0"/>
      <point x="460.4" y="0" type="curve"/>
      <point x="390.4" y="241"/>
      <point x="319.4" y="481"/>
      <point x="249.4" y="722" type="curve"/>
      <point x="129.4" y="722"/>
      <point x="249.4" y="722"/>
      <point x="129.4" y="722" type="curve"/>
      <point x="199.4" y="481"/>
      <point x="269.4" y="241"/>
      <point x="339.4" y="0" type="curve"/>
    </contour>
    <contour>
      <point x="467.4" y="0"/>
      <point x="345.4" y="0"/>
      <point x="467.4" y="0" type="curve"/>
      <point x="536.4" y="241"/>
      <point x="605.4" y="481"/>
      <point x="673.4" y="722" type="curve"/>
      <point x="553.4" y="722"/>
      <point x="673.4" y="722"/>
      <point x="553.4" y="722" type="curve"/>
      <point x="484.4" y="481"/>
      <point x="414.4" y="241"/>
      <point x="345.4" y="0" type="curve"/>
    </contour>
  </outline>
</glyph>
<glyph name="O" format="1">
  <advance width="670.4"/>
  <unicode hex="004F"/>
  <outline>
    <contour>
      <point x="190.2" y="360"/>
      <point x="47.2" y="360"/>
      <point x="190.2" y="360" type="curve"/>
      <point x="190.2" y="495"/>
      <point x="212.2" y="612"/>
      <point x="332.2" y="612" type="curve"/>
      <point x="447.2" y="612"/>
      <point x="480.2" y="498"/>
      <point x="480.2" y="363" type="curve"/>
      <point x="480.2" y="227"/>
      <point x="456.2" y="111"/>
      <point x="337.2" y="111" type="curve"/>
      <point x="220.2" y="111"/>
      <point x="190.2" y="224"/>
      <point x="190.2" y="360" type="curve"/>
      <point x="47.2" y="360"/>
      <point x="190.2" y="360"/>
      <point x="47.2" y="360" type="curve"/>
      <point x="47.2" y="151"/>
      <point x="140.2" y="-5"/>
      <point x="332.2" y="-5" type="curve"/>
      <point x="527.2" y="-5"/>
      <point x="623.2" y="152"/>
      <point x="623.2" y="363" type="curve"/>
      <point x="623.2" y="570"/>
      <point x="531.2" y="727"/>
      <point x="338.2" y="727" type="curve"/>
      <point x="144.2" y="727"/>
      <point x="47.2" y="570"/>
      <point x="47.2" y="360" type="curve"/>
    </contour>
    <contour>
      <point x="336.2" y="780" type="move" name="top"/>
    </contour>
  </outline>
</glyph>
<glyph name="P" format="1">
  <advance width="572.8"/>
  <unicode hex="0050"/>
  <outline>
    <contour>
      <point x="199.4" y="722"/>
      <point x="199.4" y="612"/>
      <point x="199.4" y="722" type="curve"/>
      <point x="154.4" y="722"/>
      <point x="108.4" y="722"/>
      <point x="62.4" y="722" type="curve"/>
      <point x="62.4" y="612"/>
      <point x="62.4" y="722"/>
      <point x="62.4" y="612" type="curve"/>
      <point x="199.4" y="612"/>
      <point x="62.4" y="612"/>
      <point x="199.4" y="612" type="curve"/>
    </contour>
    <contour>
      <point x="199.4" y="110"/>
      <point x="199.4" y="0"/>
      <point x="199.4" y="110" type="curve"/>
      <point x="62.4" y="110"/>
      <point x="199.4" y="110"/>
      <point x="62.4" y="110" type="curve"/>
      <point x="62.4" y="0"/>
      <point x="62.4" y="110"/>
      <point x="62.4" y="0" type="curve"/>
      <point x="108.4" y="0"/>
      <point x="154.4" y="0"/>
      <point x="199.4" y="0" type="curve"/>
    </contour>
    <contour>
      <point x="199.4" y="0"/>
      <point x="199.4" y="110"/>
      <point x="199.4" y="0" type="curve"/>
      <point x="245.4" y="0"/>
      <point x="199.4" y="0"/>
      <point x="337.4" y="0" type="curve"/>
      <point x="337.4" y="110"/>
      <point x="337.4" y="0"/>
      <point x="337.4" y="110" type="curve"/>
      <point x="199.4" y="110"/>
      <point x="337.4" y="110"/>
      <point x="199.4" y="110" type="curve"/>
    </contour>
    <contour>
      <point x="179.4" y="301"/>
      <point x="223.4" y="389"/>
      <point x="178.4" y="298" type="curve"/>
      <point x="228.4" y="268"/>
      <point x="281.4" y="252"/>
      <point x="343.4" y="252" type="curve"/>
      <point x="464.4" y="254"/>
      <point x="542.4" y="337"/>
      <point x="542.4" y="475" type="curve"/>
      <point x="542.4" y="622"/>
      <point x="450.4" y="722"/>
      <point x="306.4" y="722" type="curve"/>
      <point x="271.4" y="722"/>
      <point x="236.4" y="722"/>
      <point x="202.4" y="722" type="curve"/>
      <point x="202.4" y="612"/>
      <point x="202.4" y="722"/>
      <point x="202.4" y="612" type="curve"/>
      <point x="230.4" y="612"/>
      <point x="258.4" y="612"/>
      <point x="287.4" y="612" type="curve"/>
      <point x="360.4" y="612"/>
      <point x="399.4" y="555"/>
      <point x="399.4" y="480" type="curve"/>
      <point x="399.4" y="412"/>
      <point x="379.4" y="357"/>
      <point x="323.4" y="357" type="curve"/>
      <point x="283.4" y="357"/>
      <point x="257.4" y="369"/>
      <point x="223.4" y="389" type="curve"/>
    </contour>
    <contour>
      <point x="270.4" y="0"/>
      <point x="127.4" y="0"/>
      <point x="270.4" y="0" type="curve"/>
      <point x="270.4" y="241"/>
      <point x="270.4" y="481"/>
      <point x="270.4" y="722" type="curve"/>
      <point x="127.4" y="722"/>
      <point x="270.4" y="722"/>
      <point x="127.4" y="722" type="curve"/>
      <point x="127.4" y="481"/>
      <point x="127.4" y="241"/>
      <point x="127.4" y="0" type="curve"/>
    </contour>
  </outline>
</glyph>
<glyph name="Q" format="1">
  <advance width="646.6"/>
  <unicode hex="0051"/>
  <outline>
    <contour>
      <point x="280.4" y="27"/>
      <point x="403.4" y="82"/>
      <point x="280.4" y="27" type="curve"/>
      <point x="358.4" y="-141"/>
      <point x="465.4" y="-211"/>
      <point x="639.4" y="-211" type="curve"/>
      <point x="639.4" y="-95"/>
      <point x="639.4" y="-211"/>
      <point x="639.4" y="-95" type="curve"/>
      <point x="521.4" y="-95"/>
      <point x="458.4" y="-34"/>
      <point x="403.4" y="82" type="curve"/>
    </contour>
    <contour>
      <point x="189.4" y="360"/>
      <point x="46.4" y="360"/>
      <point x="189.4" y="360" type="curve"/>
      <point x="189.4" y="493"/>
      <point x="216.4" y="605"/>
      <point x="331.4" y="605" type="curve"/>
      <point x="448.4" y="605"/>
      <point x="481.4" y="495"/>
      <point x="481.4" y="360" type="curve"/>
      <point x="481.4" y="226"/>
      <point x="456.4" y="110"/>
      <point x="340.4" y="110" type="curve"/>
      <point x="221.4" y="111"/>
      <point x="189.4" y="224"/>
      <point x="189.4" y="360" type="curve"/>
      <point x="46.4" y="360"/>
      <point x="189.4" y="360"/>
      <point x="46.4" y="360" type="curve"/>
      <point x="46.4" y="151"/>
      <point x="141.4" y="-5"/>
      <point x="333.4" y="-5" type="curve"/>
      <point x="529.4" y="-5"/>
      <point x="624.4" y="154"/>
      <point x="624.4" y="366" type="curve"/>
      <point x="624.4" y="574"/>
      <point x="534.4" y="732"/>
      <point x="342.4" y="732" type="curve"/>
      <point x="145.4" y="732"/>
      <point x="46.4" y="572"/>
      <point x="46.4" y="360" type="curve"/>
    </contour>
  </outline>
</glyph>
<glyph name="R" format="1">
  <advance width="640.4"/>
  <unicode hex="0052"/>
  <outline>
    <contour>
      <point x="534.6" y="0"/>
      <point x="534.6" y="110"/>
      <point x="534.6" y="0" type="curve"/>
      <point x="565.6" y="0"/>
      <point x="595.6" y="0"/>
      <point x="627.6" y="0" type="curve"/>
      <point x="627.6" y="110"/>
      <point x="627.6" y="0"/>
      <point x="627.6" y="110" type="curve"/>
      <point x="534.6" y="110"/>
      <point x="627.6" y="110"/>
      <point x="534.6" y="110" type="curve"/>
    </contour>
    <contour>
      <point x="196.6" y="722"/>
      <point x="196.6" y="612"/>
      <point x="196.6" y="722" type="curve"/>
      <point x="151.6" y="722"/>
      <point x="105.6" y="722"/>
      <point x="61.6" y="722" type="curve"/>
      <point x="61.6" y="612"/>
      <point x="61.6" y="722"/>
      <point x="61.6" y="612" type="curve"/>
      <point x="196.6" y="612"/>
      <point x="61.6" y="612"/>
      <point x="196.6" y="612" type="curve"/>
    </contour>
    <contour>
      <point x="196.6" y="110"/>
      <point x="196.6" y="0"/>
      <point x="196.6" y="110" type="curve"/>
      <point x="61.6" y="110"/>
      <point x="196.6" y="110"/>
      <point x="61.6" y="110" type="curve"/>
      <point x="61.6" y="0"/>
      <point x="61.6" y="110"/>
      <point x="61.6" y="0" type="curve"/>
      <point x="105.6" y="0"/>
      <point x="151.6" y="0"/>
      <point x="196.6" y="0" type="curve"/>
    </contour>
    <contour>
      <point x="196.6" y="0"/>
      <point x="196.6" y="110"/>
      <point x="196.6" y="0" type="curve"/>
      <point x="240.6" y="0"/>
      <point x="196.6" y="0"/>
      <point x="328.6" y="0" type="curve"/>
      <point x="328.6" y="110"/>
      <point x="328.6" y="0"/>
      <point x="328.6" y="110" type="curve"/>
      <point x="196.6" y="110"/>
      <point x="328.6" y="110"/>
      <point x="196.6" y="110" type="curve"/>
    </contour>
    <contour>
      <point x="278.6" y="354"/>
      <point x="426.6" y="354"/>
      <point x="278.6" y="354" type="curve"/>
      <point x="342.6" y="236"/>
      <point x="406.6" y="118"/>
      <point x="470.6" y="0" type="curve"/>
      <point x="618.6" y="0"/>
      <point x="470.6" y="0"/>
      <point x="618.6" y="0" type="curve"/>
      <point x="554.6" y="118"/>
      <point x="490.6" y="236"/>
      <point x="426.6" y="354" type="curve"/>
    </contour>
    <contour>
      <point x="268.6" y="0"/>
      <point x="125.6" y="0"/>
      <point x="268.6" y="0" type="curve"/>
      <point x="268.6" y="241"/>
      <point x="268.6" y="481"/>
      <point x="268.6" y="722" type="curve"/>
      <point x="125.6" y="722"/>
      <point x="268.6" y="722"/>
      <point x="125.6" y="722" type="curve"/>
      <point x="125.6" y="481"/>
      <point x="125.6" y="241"/>
      <point x="125.6" y="0" type="curve"/>
    </contour>
    <contour>
      <point x="198.6" y="297"/>
      <point x="198.6" y="408"/>
      <point x="198.6" y="297" type="curve"/>
      <point x="245.6" y="297"/>
      <point x="292.6" y="297"/>
      <point x="338.6" y="297" type="curve"/>
      <point x="471.6" y="297"/>
      <point x="553.6" y="377"/>
      <point x="553.6" y="519" type="curve"/>
      <point x="553.6" y="648"/>
      <point x="473.6" y="722"/>
      <point x="343.6" y="722" type="curve"/>
      <point x="295.6" y="722"/>
      <point x="247.6" y="722"/>
      <point x="198.6" y="722" type="curve"/>
      <point x="198.6" y="612"/>
      <point x="198.6" y="722"/>
      <point x="198.6" y="612" type="curve"/>
      <point x="238.6" y="612"/>
      <point x="278.6" y="612"/>
      <point x="317.6" y="612" type="curve"/>
      <point x="378.6" y="612"/>
      <point x="410.6" y="570"/>
      <point x="410.6" y="508" type="curve"/>
      <point x="410.6" y="450"/>
      <point x="388.6" y="408"/>
      <point x="333.6" y="408" type="curve"/>
      <point x="288.6" y="408"/>
      <point x="243.6" y="408"/>
      <point x="198.6" y="408" type="curve"/>
    </contour>
    <contour>
      <point x="298.6" y="780" type="move" name="top"/>
    </contour>
    <contour>
      <point x="431.6" y="-1" type="move" name="bottom"/>
    </contour>
  </outline>
</glyph>
<glyph name="T" format="1">
  <advance width="506.6"/>
  <unicode hex="0054"/>
  <outline>
    <contour>
      <point x="20.8" y="666"/>
      <point x="131.8" y="666"/>
      <point x="20.8" y="666" type="curve"/>
      <point x="20.8" y="546"/>
      <point x="20.8" y="666"/>
      <point x="20.8" y="546" type="curve"/>
      <point x="131.8" y="546"/>
      <point x="20.8" y="546"/>
      <point x="131.8" y="546" type="curve"/>
      <point x="131.8" y="666"/>
      <point x="131.8" y="546"/>
      <point x="131.8" y="666" type="curve"/>
    </contour>
    <contour>
      <point x="373.8" y="666"/>
      <point x="485.8" y="666"/>
      <point x="373.8" y="666" type="curve"/>
      <point x="373.8" y="546"/>
      <point x="373.8" y="666"/>
      <point x="373.8" y="546" type="curve"/>
      <point x="485.8" y="546"/>
      <point x="373.8" y="546"/>
      <point x="485.8" y="546" type="curve"/>
      <point x="485.8" y="666"/>
      <point x="485.8" y="546"/>
      <point x="485.8" y="666" type="curve"/>
    </contour>
    <contour>
      <point x="251.8" y="0"/>
      <point x="251.8" y="110"/>
      <point x="251.8" y="0" type="curve"/>
      <point x="297.8" y="0"/>
      <point x="343.8" y="0"/>
      <point x="389.8" y="0" type="curve"/>
      <point x="389.8" y="110"/>
      <point x="389.8" y="0"/>
      <point x="389.8" y="110" type="curve"/>
      <point x="251.8" y="110"/>
      <point x="389.8" y="110"/>
      <point x="251.8" y="110" type="curve"/>
    </contour>
    <contour>
      <point x="251.8" y="110"/>
      <point x="251.8" y="0"/>
      <point x="251.8" y="110" type="curve"/>
      <point x="114.8" y="110"/>
      <point x="251.8" y="110"/>
      <point x="114.8" y="110" type="curve"/>
      <point x="114.8" y="0"/>
      <point x="114.8" y="110"/>
      <point x="114.8" y="0" type="curve"/>
      <point x="160.8" y="0"/>
      <point x="206.8" y="0"/>
      <point x="251.8" y="0" type="curve"/>
    </contour>
    <contour>
      <point x="324.8" y="0"/>
      <point x="181.8" y="0"/>
      <point x="324.8" y="0" type="curve"/>
      <point x="324.8" y="237"/>
      <point x="324.8" y="473"/>
      <point x="324.8" y="710" type="curve"/>
      <point x="181.8" y="710"/>
      <point x="324.8" y="710"/>
      <point x="181.8" y="710" type="curve"/>
      <point x="180.8" y="473"/>
      <point x="181.8" y="237"/>
      <point x="181.8" y="0" type="curve"/>
    </contour>
    <contour>
      <point x="20.8" y="600"/>
      <point x="20.8" y="727"/>
      <point x="20.8" y="605" type="curve"/>
      <point x="174.8" y="605"/>
      <point x="330.8" y="605"/>
      <point x="485.8" y="605" type="curve"/>
      <point x="485.8" y="727"/>
      <point x="485.8" y="600"/>
      <point x="485.8" y="722" type="curve"/>
      <point x="330.8" y="722"/>
      <point x="174.8" y="722"/>
      <point x="20.8" y="722" type="curve"/>
    </contour>
    <contour>
      <point x="252.8" y="780" type="move" name="top"/>
    </contour>
    <contour>
      <point x="316.8" y="1" type="move" name="bottom"/>
    </contour>
  </outline>
</glyph>
<glyph name="V" format="1">
  <advance width="649.0"/>
  <unicode hex="0056"/>
  <outline>
    <contour>
      <point x="517.2" y="722"/>
      <point x="517.2" y="612"/>
      <point x="517.2" y="722" type="curve"/>
      <point x="470.2" y="722"/>
      <point x="424.2" y="722"/>
      <point x="377.2" y="722" type="curve"/>
      <point x="377.2" y="612"/>
      <point x="377.2" y="722"/>
      <point x="377.2" y="612" type="curve"/>
      <point x="517.2" y="612"/>
      <point x="377.2" y="612"/>
      <point x="517.2" y="612" type="curve"/>
    </contour>
    <contour>
      <point x="121.2" y="722"/>
      <point x="121.2" y="612"/>
      <point x="121.2" y="722" type="curve"/>
      <point x="82.2" y="722"/>
      <point x="42.2" y="722"/>
      <point x="3.2" y="722" type="curve"/>
      <point x="3.2" y="612"/>
      <point x="3.2" y="722"/>
      <point x="3.2" y="612" type="curve"/>
      <point x="121.2" y="612"/>
      <point x="3.2" y="612"/>
      <point x="121.2" y="612" type="curve"/>
    </contour>
    <contour>
      <point x="527.2" y="612"/>
      <point x="527.2" y="722"/>
      <point x="527.2" y="612" type="curve"/>
      <point x="644.2" y="612"/>
      <point x="527.2" y="612"/>
      <point x="644.2" y="612" type="curve"/>
      <point x="644.2" y="722"/>
      <point x="644.2" y="612"/>
      <point x="644.2" y="722" type="curve"/>
      <point x="606.2" y="722"/>
      <point x="566.2" y="722"/>
      <point x="527.2" y="722" type="curve"/>
    </contour>
    <contour>
      <point x="131.2" y="612"/>
      <point x="131.2" y="722"/>
      <point x="131.2" y="612" type="curve"/>
      <point x="270.2" y="612"/>
      <point x="131.2" y="612"/>
      <point x="270.2" y="612" type="curve"/>
      <point x="270.2" y="722"/>
      <point x="270.2" y="612"/>
      <point x="270.2" y="722" type="curve"/>
      <point x="224.2" y="722"/>
      <point x="177.2" y="722"/>
      <point x="131.2" y="722" type="curve"/>
    </contour>
    <contour>
      <point x="464.2" y="722"/>
      <point x="609.2" y="722"/>
      <point x="464.2" y="722" type="curve"/>
      <point x="398.2" y="480"/>
      <point x="334.2" y="242"/>
      <point x="271.2" y="0" type="curve"/>
      <point x="417.2" y="0"/>
      <point x="255.2" y="0"/>
      <point x="401.2" y="0" type="curve"/>
      <point x="470.2" y="241"/>
      <point x="539.2" y="481"/>
      <point x="609.2" y="722" type="curve"/>
    </contour>
    <contour>
      <point x="39.2" y="722"/>
      <point x="185.2" y="722"/>
      <point x="39.2" y="722" type="curve"/>
      <point x="109.2" y="481"/>
      <point x="180.2" y="241"/>
      <point x="250.2" y="0" type="curve"/>
      <point x="396.2" y="0"/>
      <point x="237.2" y="0"/>
      <point x="383.2" y="0" type="curve"/>
      <point x="318.2" y="242"/>
      <point x="253.2" y="482"/>
      <point x="185.2" y="722" type="curve"/>
    </contour>
  </outline>
</glyph>
<glyph name="W" format="1">
  <advance width="804.4"/>
  <unicode hex="0057"/>
  <outline>
    <contour>
      <point x="138.2" y="612"/>
      <point x="138.2" y="722"/>
      <point x="138.2" y="612" type="curve"/>
      <point x="245.2" y="612"/>
      <point x="138.2" y="612"/>
      <point x="245.2" y="612" type="curve"/>
      <point x="245.2" y="722"/>
      <point x="245.2" y="612"/>
      <point x="245.2" y="722" type="curve"/>
      <point x="210.2" y="722"/>
      <point x="174.2" y="722"/>
      <point x="138.2" y="722" type="curve"/>
    </contour>
    <contour>
      <point x="128.2" y="722"/>
      <point x="128.2" y="612"/>
      <point x="128.2" y="722" type="curve"/>
      <point x="89.2" y="722"/>
      <point x="49.2" y="722"/>
      <point x="11.2" y="722" type="curve"/>
      <point x="11.2" y="612"/>
      <point x="11.2" y="722"/>
      <point x="11.2" y="612" type="curve"/>
      <point x="128.2" y="612"/>
      <point x="11.2" y="612"/>
      <point x="128.2" y="612" type="curve"/>
    </contour>
    <contour>
      <point x="675.2" y="722"/>
      <point x="675.2" y="612"/>
      <point x="675.2" y="722" type="curve"/>
      <point x="639.2" y="722"/>
      <point x="603.2" y="722"/>
      <point x="568.2" y="722" type="curve"/>
      <point x="568.2" y="612"/>
      <point x="568.2" y="722"/>
      <point x="568.2" y="612" type="curve"/>
      <point x="675.2" y="612"/>
      <point x="568.2" y="612"/>
      <point x="675.2" y="612" type="curve"/>
    </contour>
    <contour>
      <point x="680.2" y="612"/>
      <point x="680.2" y="722"/>
      <point x="680.2" y="612" type="curve"/>
      <point x="797.2" y="612"/>
      <point x="680.2" y="612"/>
      <point x="797.2" y="612" type="curve"/>
      <point x="797.2" y="722"/>
      <point x="797.2" y="612"/>
      <point x="797.2" y="722" type="curve"/>
      <point x="759.2" y="722"/>
      <point x="719.2" y="722"/>
      <point x="680.2" y="722" type="curve"/>
    </contour>
    <contour>
      <point x="325.2" y="0"/>
      <point x="199.2" y="0"/>
      <point x="315.2" y="0" type="curve"/>
      <point x="366.2" y="241"/>
      <point x="416.2" y="481"/>
      <point x="466.2" y="722" type="curve"/>
      <point x="346.2" y="722"/>
      <point x="466.2" y="722"/>
      <point x="346.2" y="722" type="curve"/>
      <point x="300.2" y="482"/>
      <point x="256.2" y="243"/>
      <point x="209.2" y="0" type="curve"/>
    </contour>
    <contour>
      <point x="351.2" y="722"/>
      <point x="471.2" y="722"/>
      <point x="351.2" y="722" type="curve"/>
      <point x="396.2" y="481"/>
      <point x="441.2" y="241"/>
      <point x="487.2" y="0" type="curve"/>
      <point x="603.2" y="0"/>
      <point x="473.2" y="0"/>
      <point x="589.2" y="0" type="curve"/>
      <point x="548.2" y="245"/>
      <point x="511.2" y="481"/>
      <point x="471.2" y="722" type="curve"/>
    </contour>
    <contour>
      <point x="57.2" y="722"/>
      <point x="180.2" y="722"/>
      <point x="57.2" y="722" type="curve"/>
      <point x="103.2" y="481"/>
      <point x="149.2" y="241"/>
      <point x="194.2" y="0" type="curve"/>
      <point x="311.2" y="0"/>
      <point x="194.2" y="0"/>
      <point x="311.2" y="0" type="curve"/>
      <point x="267.2" y="241"/>
      <point x="223.2" y="481"/>
      <point x="180.2" y="722" type="curve"/>
    </contour>
    <contour>
      <point x="628.2" y="722"/>
      <point x="751.2" y="722"/>
      <point x="628.2" y="722" type="curve"/>
      <point x="583.2" y="481"/>
      <point x="537.2" y="241"/>
      <point x="491.2" y="0" type="curve"/>
      <point x="608.2" y="0"/>
      <point x="491.2" y="0"/>
      <point x="608.2" y="0" type="curve"/>
      <point x="655.2" y="241"/>
      <point x="703.2" y="481"/>
      <point x="751.2" y="722" type="curve"/>
    </contour>
  </outline>
</glyph>
<glyph name="X" format="1">
  <advance width="603.4"/>
  <unicode hex="0058"/>
  <outline>
    <contour>
      <point x="153.2" y="0"/>
      <point x="153.2" y="110"/>
      <point x="153.2" y="0" type="curve"/>
      <point x="195.2" y="0"/>
      <point x="153.2" y="0"/>
      <point x="280.2" y="0" type="curve"/>
      <point x="280.2" y="110"/>
      <point x="280.2" y="0"/>
      <point x="280.2" y="110" type="curve"/>
      <point x="153.2" y="110"/>
      <point x="280.2" y="110"/>
      <point x="153.2" y="110" type="curve"/>
    </contour>
    <contour>
      <point x="133.2" y="110"/>
      <point x="133.2" y="0"/>
      <point x="133.2" y="110" type="curve"/>
      <point x="16.2" y="110"/>
      <point x="133.2" y="110"/>
      <point x="16.2" y="110" type="curve"/>
      <point x="15.2" y="0"/>
      <point x="16.2" y="110"/>
      <point x="15.2" y="0" type="curve"/>
      <point x="54.2" y="0"/>
      <point x="94.2" y="0"/>
      <point x="133.2" y="0" type="curve"/>
    </contour>
    <contour>
      <point x="467.2" y="0"/>
      <point x="467.2" y="110"/>
      <point x="467.2" y="0" type="curve"/>
      <point x="506.2" y="0"/>
      <point x="546.2" y="0"/>
      <point x="584.2" y="0" type="curve"/>
      <point x="584.2" y="110"/>
      <point x="584.2" y="0"/>
      <point x="584.2" y="110" type="curve"/>
      <point x="467.2" y="110"/>
      <point x="584.2" y="110"/>
      <point x="467.2" y="110" type="curve"/>
    </contour>
    <contour>
      <point x="447.2" y="110"/>
      <point x="447.2" y="0"/>
      <point x="447.2" y="110" type="curve"/>
      <point x="320.2" y="110"/>
      <point x="447.2" y="110"/>
      <point x="320.2" y="110" type="curve"/>
      <point x="320.2" y="0"/>
      <point x="320.2" y="110"/>
      <point x="320.2" y="0" type="curve"/>
      <point x="362.2" y="0"/>
      <point x="404.2" y="0"/>
      <point x="447.2" y="0" type="curve"/>
    </contour>
    <contour>
      <point x="453.2" y="612"/>
      <point x="453.2" y="722"/>
      <point x="453.2" y="612" type="curve"/>
      <point x="570.2" y="612"/>
      <point x="453.2" y="612"/>
      <point x="570.2" y="612" type="curve"/>
      <point x="570.2" y="722"/>
      <point x="570.2" y="612"/>
      <point x="570.2" y="722" type="curve"/>
      <point x="531.2" y="722"/>
      <point x="491.2" y="722"/>
      <point x="453.2" y="722" type="curve"/>
    </contour>
    <contour>
      <point x="468.2" y="722"/>
      <point x="468.2" y="612"/>
      <point x="468.2" y="722" type="curve"/>
      <point x="422.2" y="722"/>
      <point x="376.2" y="722"/>
      <point x="330.2" y="722" type="curve"/>
      <point x="330.2" y="612"/>
      <point x="330.2" y="722"/>
      <point x="330.2" y="612" type="curve"/>
      <point x="468.2" y="612"/>
      <point x="330.2" y="612"/>
      <point x="468.2" y="612" type="curve"/>
    </contour>
    <contour>
      <point x="150.2" y="722"/>
      <point x="150.2" y="612"/>
      <point x="150.2" y="722" type="curve"/>
      <point x="112.2" y="722"/>
      <point x="72.2" y="722"/>
      <point x="33.2" y="722" type="curve"/>
      <point x="33.2" y="612"/>
      <point x="33.2" y="722"/>
      <point x="33.2" y="612" type="curve"/>
      <point x="150.2" y="612"/>
      <point x="33.2" y="612"/>
      <point x="150.2" y="612" type="curve"/>
    </contour>
    <contour>
      <point x="135.2" y="612"/>
      <point x="135.2" y="722"/>
      <point x="135.2" y="612" type="curve"/>
      <point x="273.2" y="612"/>
      <point x="135.2" y="612"/>
      <point x="273.2" y="612" type="curve"/>
      <point x="273.2" y="722"/>
      <point x="273.2" y="612"/>
      <point x="273.2" y="722" type="curve"/>
      <point x="227.2" y="722"/>
      <point x="181.2" y="722"/>
      <point x="135.2" y="722" type="curve"/>
    </contour>
    <contour>
      <point x="414.2" y="722"/>
      <point x="551.2" y="722"/>
      <point x="414.2" y="722" type="curve"/>
      <point x="289.2" y="481"/>
      <point x="164.2" y="241"/>
      <point x="39.2" y="0" type="curve"/>
      <point x="179.2" y="0"/>
      <point x="39.2" y="0"/>
      <point x="179.2" y="0" type="curve"/>
      <point x="303.2" y="241"/>
      <point x="427.2" y="481"/>
      <point x="551.2" y="722" type="curve"/>
    </contour>
    <contour>
      <point x="54.2" y="722"/>
      <point x="191.2" y="722"/>
      <point x="54.2" y="722" type="curve"/>
      <point x="177.2" y="481"/>
      <point x="300.2" y="241"/>
      <point x="423.2" y="0" type="curve"/>
      <point x="562.2" y="0"/>
      <point x="423.2" y="0"/>
      <point x="562.2" y="0" type="curve"/>
      <point x="438.2" y="241"/>
      <point x="315.2" y="481"/>
      <point x="191.2" y="722" type="curve"/>
    </contour>
  </outline>
</glyph>
<glyph name="Z" format="1">
  <advance width="595.6"/>
  <unicode hex="005A"/>
  <outline>
    <contour>
      <point x="56.2" y="667"/>
      <point x="168.2" y="667"/>
      <point x="56.2" y="667" type="curve"/>
      <point x="56.2" y="547"/>
      <point x="56.2" y="667"/>
      <point x="56.2" y="547" type="curve"/>
      <point x="168.2" y="547"/>
      <point x="56.2" y="547"/>
      <point x="168.2" y="547" type="curve"/>
      <point x="168.2" y="667"/>
      <point x="168.2" y="547"/>
      <point x="168.2" y="667" type="curve"/>
    </contour>
    <contour>
      <point x="549.2" y="55"/>
      <point x="437.2" y="55"/>
      <point x="549.2" y="55" type="curve"/>
      <point x="549.2" y="175"/>
      <point x="549.2" y="55"/>
      <point x="549.2" y="175" type="curve"/>
      <point x="437.2" y="175"/>
      <point x="549.2" y="175"/>
      <point x="437.2" y="175" type="curve"/>
      <point x="437.2" y="55"/>
      <point x="437.2" y="175"/>
      <point x="437.2" y="55" type="curve"/>
    </contour>
    <contour>
      <point x="56.2" y="612"/>
      <point x="56.2" y="722"/>
      <point x="56.2" y="612" type="curve"/>
      <point x="177.2" y="612"/>
      <point x="352.2" y="612"/>
      <point x="474.2" y="612" type="curve"/>
      <point x="462.2" y="622"/>
      <point x="443.2" y="620"/>
      <point x="432.2" y="631" type="curve"/>
      <point x="421.2" y="640"/>
      <point x="424.2" y="658"/>
      <point x="414.2" y="668" type="curve"/>
      <point x="407.2" y="658"/>
      <point x="391.2" y="668"/>
      <point x="385.2" y="658" type="curve"/>
      <point x="31.2" y="110" type="line"/>
      <point x="31.2" y="54"/>
      <point x="31.2" y="110"/>
      <point x="31.2" y="54" type="curve"/>
      <point x="31.2" y="0"/>
      <point x="31.2" y="54"/>
      <point x="31.2" y="0" type="curve"/>
      <point x="84.2" y="0"/>
      <point x="31.2" y="0"/>
      <point x="84.2" y="0" type="curve"/>
      <point x="518.2" y="0"/>
      <point x="404.2" y="0"/>
      <point x="549.2" y="0" type="curve"/>
      <point x="549.2" y="110"/>
      <point x="549.2" y="0"/>
      <point x="549.2" y="110" type="curve"/>
      <point x="404.2" y="110"/>
      <point x="228.2" y="110"/>
      <point x="84.2" y="110" type="curve"/>
      <point x="94.2" y="102"/>
      <point x="110.2" y="103"/>
      <point x="120.2" y="95" type="curve"/>
      <point x="131.2" y="84"/>
      <point x="130.2" y="65"/>
      <point x="141.2" y="54" type="curve"/>
      <point x="148.2" y="64"/>
      <point x="164.2" y="55"/>
      <point x="171.2" y="64" type="curve"/>
      <point x="531.2" y="612" type="line"/>
      <point x="531.2" y="668"/>
      <point x="531.2" y="612"/>
      <point x="531.2" y="668" type="curve"/>
      <point x="531.2" y="722"/>
      <point x="531.2" y="668"/>
      <point x="531.2" y="722" type="curve"/>
      <point x="474.2" y="722"/>
      <point x="531.2" y="722"/>
      <point x="474.2" y="722" type="curve"/>
      <point x="352.2" y="722"/>
      <point x="177.2" y="722"/>
      <point x="56.2" y="722" type="curve"/>
    </contour>
    <contour>
      <point x="294.2" y="780" type="move" name="top"/>
    </contour>
  </outline>
</glyph>
<glyph name="bracketleft" format="1">
  <advance width="292.2"/>
  <unicode hex="005B"/>
  <outline>
    <contour>
      <point x="248.2" y="769"/>
      <point x="248.2" y="648"/>
      <point x="248.2" y="769" type="curve"/>
      <point x="210.2" y="769"/>
      <point x="172.2" y="769"/>
      <point x="134.2" y="769" type="curve"/>
      <point x="118.2" y="769"/>
      <point x="82.2" y="769"/>
      <point x="67.2" y="769" type="curve"/>
      <point x="67.2" y="752"/>
      <point x="67.2" y="731"/>
      <point x="67.2" y="714" type="curve"/>
      <point x="67.2" y="456"/>
      <point x="67.2" y="199"/>
      <point x="67.2" y="-59" type="curve"/>
      <point x="67.2" y="-77"/>
      <point x="67.2" y="-89"/>
      <point x="67.2" y="-113" type="curve"/>
      <point x="82.2" y="-113"/>
      <point x="116.2" y="-113"/>
      <point x="133.2" y="-113" type="curve"/>
      <point x="171.2" y="-113"/>
      <point x="210.2" y="-113"/>
      <point x="248.2" y="-113" type="curve"/>
      <point x="248.2" y="9"/>
      <point x="248.2" y="-113"/>
      <point x="248.2" y="9" type="curve"/>
      <point x="210.2" y="9"/>
      <point x="171.2" y="9"/>
      <point x="133.2" y="9" type="curve"/>
      <point x="210.2" y="9"/>
      <point x="133.2" y="9"/>
      <point x="210.2" y="9" type="curve"/>
      <point x="210.2" y="-59"/>
      <point x="210.2" y="9"/>
      <point x="210.2" y="-59" type="curve"/>
      <point x="210.2" y="199"/>
      <point x="210.2" y="456"/>
      <point x="210.2" y="714" type="curve"/>
      <point x="210.2" y="648"/>
      <point x="210.2" y="714"/>
      <point x="210.2" y="648" type="curve"/>
      <point x="134.2" y="648"/>
      <point x="210.2" y="648"/>
      <point x="134.2" y="648" type="curve"/>
      <point x="172.2" y="648"/>
      <point x="210.2" y="648"/>
      <point x="248.2" y="648" type="curve"/>
    </contour>
  </outline>
</glyph>
<glyph name="backslash" format="1">
  <advance width="491.0"/>
  <unicode hex="005C"/>
  <outline>
    <contour>
      <point x="467.0" y="-68"/>
      <point x="318.0" y="-68"/>
      <point x="467.0" y="-68" type="curve"/>
      <point x="369.0" y="236"/>
      <point x="271.0" y="540"/>
      <point x="173.0" y="844" type="curve"/>
      <point x="24.0" y="844"/>
      <point x="173.0" y="844"/>
      <point x="24.0" y="844" type="curve"/>
      <point x="122.0" y="540"/>
      <point x="220.0" y="236"/>
      <point x="318.0" y="-68" type="curve"/>
    </contour>
  </outline>
</glyph>
<glyph name="bracketright" format="1">
  <advance width="293.2"/>
  <unicode hex="005D"/>
  <outline>
    <contour>
      <point x="45.0" y="648"/>
      <point x="45.0" y="769"/>
      <point x="45.0" y="648" type="curve"/>
      <point x="83.0" y="648"/>
      <point x="121.0" y="648"/>
      <point x="159.0" y="648" type="curve"/>
      <point x="147.0" y="660"/>
      <point x="127.0" y="661"/>
      <point x="115.0" y="673" type="curve"/>
      <point x="104.0" y="686"/>
      <point x="94.0" y="701"/>
      <point x="83.0" y="714" type="curve"/>
      <point x="83.0" y="456"/>
      <point x="82.0" y="199"/>
      <point x="83.0" y="-59" type="curve"/>
      <point x="94.0" y="-45"/>
      <point x="107.0" y="-33"/>
      <point x="119.0" y="-20" type="curve"/>
      <point x="130.0" y="-7"/>
      <point x="149.0" y="-4"/>
      <point x="160.0" y="9" type="curve"/>
      <point x="122.0" y="9"/>
      <point x="83.0" y="9"/>
      <point x="45.0" y="9" type="curve"/>
      <point x="44.0" y="-113"/>
      <point x="45.0" y="9"/>
      <point x="44.0" y="-113" type="curve"/>
      <point x="83.0" y="-113"/>
      <point x="122.0" y="-113"/>
      <point x="160.0" y="-113" type="curve"/>
      <point x="226.0" y="-113"/>
      <point x="160.0" y="-113"/>
      <point x="226.0" y="-113" type="curve"/>
      <point x="226.0" y="-59"/>
      <point x="226.0" y="-113"/>
      <point x="226.0" y="-59" type="curve"/>
      <point x="225.0" y="199"/>
      <point x="226.0" y="456"/>
      <point x="226.0" y="714" type="curve"/>
      <point x="226.0" y="769"/>
      <point x="226.0" y="714"/>
      <point x="226.0" y="769" type="curve"/>
      <point x="159.0" y="769"/>
      <point x="226.0" y="769"/>
      <point x="159.0" y="769" type="curve"/>
      <point x="121.0" y="769"/>
      <point x="83.0" y="769"/>
      <point x="45.0" y="769" type="curve"/>
    </contour>
  </outline>
</glyph>
<glyph name="underscore" format="1">
  <advance width="512.0"/>
  <unicode hex="005F"/>
  <outline>
    <contour>
      <point x="0.0" y="-183"/>
      <point x="0.0" y="-72"/>
      <point x="0.0" y="-183" type="curve"/>
      <point x="171.0" y="-183"/>
      <point x="342.0" y="-183"/>
      <point x="512.0" y="-183" type="curve"/>
      <point x="512.0" y="-72"/>
      <point x="512.0" y="-183"/>
      <point x="512.0" y="-72" type="curve"/>
      <point x="342.0" y="-72"/>
      <point x="171.0" y="-72"/>
      <point x="0.0" y="-72" type="curve"/>
    </contour>
  </outline>
</glyph>
<glyph name="grave" format="1">
  <advance width="328.6"/>
  <unicode hex="0060"/>
  <outline>
    <contour>
      <point x="311.0" y="591" type="line"/>
      <point x="227.0" y="757" type="line"/>
      <point x="52.0" y="757" type="line"/>
      <point x="176.0" y="591" type="line"/>
    </contour>
    <contour>
      <point x="243.0" y="590" type="move" name="_top"/>
    </contour>
  </outline>
</glyph>
<glyph name="b" format="1">
  <advance width="591.800000134"/>
  <unicode hex="0062"/>
  <outline>
    <contour>
      <point x="170.0" y="800"/>
      <point x="170.0" y="689"/>
      <point x="170.0" y="800" type="curve"/>
      <point x="123.0" y="800"/>
      <point x="78.0" y="800"/>
      <point x="33.0" y="800" type="curve"/>
      <point x="32.0" y="690"/>
      <point x="33.0" y="800"/>
      <point x="32.0" y="690" type="curve"/>
      <point x="170.0" y="689"/>
      <point x="32.0" y="690"/>
      <point x="170.0" y="689" type="curve"/>
    </contour>
    <contour>
      <point x="207.0" y="349"/>
      <point x="147.0" y="396"/>
      <point x="207.0" y="349" type="curve"/>
      <point x="230.0" y="379"/>
      <point x="270.0" y="423"/>
      <point x="325.0" y="423" type="curve"/>
      <point x="398.0" y="423"/>
      <point x="412.0" y="346"/>
      <point x="412.0" y="261" type="curve"/>
      <point x="413.0" y="180"/>
      <point x="396.0" y="110"/>
      <point x="327.0" y="110" type="curve"/>
      <point x="281.0" y="110"/>
      <point x="248.0" y="130"/>
      <point x="217.0" y="165" type="curve"/>
      <point x="145.0" y="117"/>
      <point x="217.0" y="165"/>
      <point x="145.0" y="117" type="curve"/>
      <point x="192.0" y="47"/>
      <point x="247.0" y="-5"/>
      <point x="342.0" y="-5" type="curve"/>
      <point x="478.0" y="-5"/>
      <point x="555.0" y="112"/>
      <point x="555.0" y="267" type="curve"/>
      <point x="555.0" y="421"/>
      <point x="480.0" y="538"/>
      <point x="345.0" y="538" type="curve"/>
      <point x="248.0" y="538"/>
      <point x="187.0" y="464"/>
      <point x="147.0" y="396" type="curve"/>
    </contour>
    <contour>
      <point x="240.0" y="0"/>
      <point x="97.0" y="0"/>
      <point x="240.0" y="0" type="curve"/>
      <point x="240.0" y="267"/>
      <point x="240.0" y="533"/>
      <point x="240.0" y="800" type="curve"/>
      <point x="97.0" y="800"/>
      <point x="240.0" y="800"/>
      <point x="97.0" y="800" type="curve"/>
      <point x="97.0" y="533"/>
      <point x="97.0" y="267"/>
      <point x="97.0" y="0" type="curve"/>
    </contour>
    <contour>
      <point x="170.0" y="110"/>
      <point x="170.0" y="0"/>
      <point x="170.0" y="110" type="curve"/>
      <point x="33.0" y="110"/>
      <point x="170.0" y="110"/>
      <point x="33.0" y="110" type="curve"/>
      <point x="33.0" y="0"/>
      <point x="33.0" y="110"/>
      <point x="33.0" y="0" type="curve"/>
      <point x="78.0" y="0"/>
      <point x="124.0" y="0"/>
      <point x="170.0" y="0" type="curve"/>
    </contour>
  </outline>
</glyph>
<glyph name="d" format="1">
  <advance width="598.4"/>
  <unicode hex="0064"/>
  <outline>
    <contour>
      <point x="428.4" y="800"/>
      <point x="427.4" y="690"/>
      <point x="427.4" y="800" type="curve"/>
      <point x="381.4" y="800"/>
      <point x="337.4" y="800"/>
      <point x="291.4" y="800" type="curve"/>
      <point x="291.4" y="690"/>
      <point x="291.4" y="800"/>
      <point x="291.4" y="690" type="curve"/>
      <point x="428.4" y="690"/>
      <point x="291.4" y="690"/>
      <point x="428.4" y="690" type="curve"/>
    </contour>
    <contour>
      <point x="429.4" y="-1"/>
      <point x="429.4" y="111"/>
      <point x="429.4" y="0" type="curve"/>
      <point x="475.4" y="0"/>
      <point x="520.4" y="0"/>
      <point x="566.4" y="0" type="curve"/>
      <point x="566.4" y="110"/>
      <point x="566.4" y="0"/>
      <point x="566.4" y="110" type="curve"/>
      <point x="429.4" y="110"/>
      <point x="566.4" y="110"/>
      <point x="429.4" y="110" type="curve"/>
    </contour>
    <contour>
      <point x="432.4" y="451"/>
      <point x="383.4" y="368"/>
      <point x="432.4" y="451" type="curve"/>
      <point x="386.4" y="507"/>
      <point x="328.4" y="533"/>
      <point x="254.4" y="533" type="curve"/>
      <point x="107.4" y="533"/>
      <point x="38.4" y="413"/>
      <point x="38.4" y="262" type="curve"/>
      <point x="38.4" y="114"/>
      <point x="111.4" y="0"/>
      <point x="250.4" y="0" type="curve"/>
      <point x="334.4" y="0"/>
      <point x="394.4" y="38"/>
      <point x="432.4" y="112" type="curve"/>
      <point x="383.4" y="189"/>
      <point x="432.4" y="112"/>
      <point x="383.4" y="189" type="curve"/>
      <point x="359.4" y="144"/>
      <point x="330.4" y="110"/>
      <point x="279.4" y="110" type="curve"/>
      <point x="204.4" y="110"/>
      <point x="181.4" y="183"/>
      <point x="181.4" y="268" type="curve"/>
      <point x="181.4" y="352"/>
      <point x="209.4" y="423"/>
      <point x="284.4" y="423" type="curve"/>
      <point x="327.4" y="423"/>
      <point x="358.4" y="401"/>
      <point x="383.4" y="368" type="curve"/>
    </contour>
    <contour>
      <point x="503.4" y="0"/>
      <point x="354.4" y="0"/>
      <point x="503.4" y="0" type="curve"/>
      <point x="503.4" y="267"/>
      <point x="503.4" y="533"/>
      <point x="503.4" y="800" type="curve"/>
      <point x="354.4" y="800"/>
      <point x="503.4" y="800"/>
      <point x="354.4" y="800" type="curve"/>
      <point x="354.4" y="533"/>
      <point x="354.4" y="267"/>
      <point x="354.4" y="0" type="curve"/>
    </contour>
  </outline>
</glyph>
<glyph name="f" format="1">
  <advance width="403.4"/>
  <unicode hex="0066"/>
  <outline>
    <contour>
      <point x="268.2" y="769"/>
      <point x="380.2" y="769"/>
      <point x="268.2" y="769" type="curve"/>
      <point x="268.2" y="654"/>
      <point x="268.2" y="769"/>
      <point x="268.2" y="654" type="curve"/>
      <point x="380.2" y="654"/>
      <point x="268.2" y="654"/>
      <point x="380.2" y="654" type="curve"/>
      <point x="380.2" y="769"/>
      <point x="380.2" y="654"/>
      <point x="380.2" y="769" type="curve"/>
    </contour>
    <contour>
      <point x="162.2" y="-1"/>
      <point x="162.2" y="110"/>
      <point x="162.2" y="-1" type="curve"/>
      <point x="206.2" y="-1"/>
      <point x="252.2" y="0"/>
      <point x="297.2" y="0" type="curve"/>
      <point x="297.2" y="111"/>
      <point x="297.2" y="0"/>
      <point x="297.2" y="111" type="curve"/>
      <point x="162.2" y="110"/>
      <point x="297.2" y="111"/>
      <point x="162.2" y="110" type="curve"/>
    </contour>
    <contour>
      <point x="162.2" y="110"/>
      <point x="162.2" y="-1"/>
      <point x="162.2" y="110" type="curve"/>
      <point x="26.2" y="111"/>
      <point x="162.2" y="110"/>
      <point x="26.2" y="111" type="curve"/>
      <point x="26.2" y="0"/>
      <point x="26.2" y="111"/>
      <point x="26.2" y="0" type="curve"/>
      <point x="71.2" y="0"/>
      <point x="117.2" y="-1"/>
      <point x="162.2" y="-1" type="curve"/>
    </contour>
    <contour>
      <point x="23.2" y="423"/>
      <point x="23.2" y="533"/>
      <point x="23.2" y="423" type="curve"/>
      <point x="23.2" y="423"/>
      <point x="339.2" y="423"/>
      <point x="339.2" y="423" type="curve"/>
      <point x="339.2" y="533"/>
      <point x="339.2" y="423"/>
      <point x="339.2" y="533" type="curve"/>
      <point x="339.2" y="533"/>
      <point x="23.2" y="533"/>
      <point x="23.2" y="533" type="curve"/>
    </contour>
    <contour>
      <point x="233.2" y="0"/>
      <point x="90.2" y="0"/>
      <point x="233.2" y="0" type="curve"/>
      <point x="233.2" y="0"/>
      <point x="233.2" y="604"/>
      <point x="233.2" y="604" type="curve"/>
      <point x="233.2" y="653"/>
      <point x="230.2" y="699"/>
      <point x="274.2" y="699" type="curve"/>
      <point x="292.2" y="699"/>
      <point x="307.2" y="690"/>
      <point x="322.2" y="681" type="curve"/>
      <point x="380.2" y="769"/>
      <point x="322.2" y="681"/>
      <point x="380.2" y="769" type="curve"/>
      <point x="349.2" y="790"/>
      <point x="312.2" y="805"/>
      <point x="274.2" y="805" type="curve"/>
      <point x="157.2" y="805"/>
      <point x="89.2" y="723"/>
      <point x="90.2" y="604" type="curve"/>
      <point x="90.2" y="604"/>
      <point x="90.2" y="0"/>
      <point x="90.2" y="0" type="curve"/>
    </contour>
  </outline>
</glyph>
<glyph name="h" format="1">
  <advance width="564.2"/>
  <unicode hex="0068"/>
  <outline>
    <contour>
      <point x="423.2" y="-1"/>
      <point x="423.2" y="110"/>
      <point x="423.2" y="-1" type="curve"/>
      <point x="469.2" y="-1"/>
      <point x="514.2" y="0"/>
      <point x="560.2" y="0" type="curve"/>
      <point x="560.2" y="110"/>
      <point x="560.2" y="0"/>
      <point x="560.2" y="110" type="curve"/>
      <point x="423.2" y="110"/>
      <point x="560.2" y="110"/>
      <point x="423.2" y="110" type="curve"/>
    </contour>
    <contour>
      <point x="145.2" y="-1"/>
      <point x="145.2" y="110"/>
      <point x="145.2" y="-1" type="curve"/>
      <point x="184.2" y="-1"/>
      <point x="145.2" y="-1"/>
      <point x="262.2" y="0" type="curve"/>
      <point x="262.2" y="110"/>
      <point x="262.2" y="0"/>
      <point x="262.2" y="110" type="curve"/>
      <point x="145.2" y="110"/>
      <point x="262.2" y="110"/>
      <point x="145.2" y="110" type="curve"/>
    </contour>
    <contour>
      <point x="145.2" y="799"/>
      <point x="145.2" y="689"/>
      <point x="145.2" y="799" type="curve"/>
      <point x="99.2" y="799"/>
      <point x="53.2" y="800"/>
      <point x="8.2" y="800" type="curve"/>
      <point x="7.2" y="690"/>
      <point x="8.2" y="800"/>
      <point x="7.2" y="690" type="curve"/>
      <point x="145.2" y="689"/>
      <point x="7.2" y="690"/>
      <point x="145.2" y="689" type="curve"/>
    </contour>
    <contour>
      <point x="145.2" y="110"/>
      <point x="145.2" y="-1"/>
      <point x="145.2" y="110" type="curve"/>
      <point x="8.2" y="110"/>
      <point x="145.2" y="110"/>
      <point x="8.2" y="110" type="curve"/>
      <point x="7.2" y="0"/>
      <point x="8.2" y="110"/>
      <point x="7.2" y="0" type="curve"/>
      <point x="53.2" y="0"/>
      <point x="99.2" y="-1"/>
      <point x="145.2" y="-1" type="curve"/>
    </contour>
    <contour>
      <point x="184.2" y="301"/>
      <point x="148.2" y="356"/>
      <point x="184.2" y="301" type="curve"/>
      <point x="203.2" y="361"/>
      <point x="235.2" y="423"/>
      <point x="292.2" y="423" type="curve"/>
      <point x="351.2" y="423"/>
      <point x="352.2" y="371"/>
      <point x="352.2" y="308" type="curve"/>
      <point x="352.2" y="205"/>
      <point x="352.2" y="103"/>
      <point x="352.2" y="0" type="curve"/>
      <point x="495.2" y="0"/>
      <point x="352.2" y="0"/>
      <point x="495.2" y="0" type="curve"/>
      <point x="495.2" y="106"/>
      <point x="495.2" y="213"/>
      <point x="495.2" y="319" type="curve"/>
      <point x="495.2" y="444"/>
      <point x="459.2" y="533"/>
      <point x="334.2" y="533" type="curve"/>
      <point x="243.2" y="533"/>
      <point x="171.2" y="455"/>
      <point x="148.2" y="356" type="curve"/>
    </contour>
    <contour>
      <point x="216.2" y="0"/>
      <point x="73.2" y="0"/>
      <point x="216.2" y="0" type="curve"/>
      <point x="216.2" y="267"/>
      <point x="216.2" y="533"/>
      <point x="216.2" y="800" type="curve"/>
      <point x="73.2" y="800"/>
      <point x="216.2" y="800"/>
      <point x="73.2" y="800" type="curve"/>
      <point x="73.2" y="533"/>
      <point x="73.2" y="267"/>
      <point x="73.2" y="0" type="curve"/>
    </contour>
  </outline>
</glyph>
<glyph name="i" format="1">
  <advance width="313.6"/>
  <unicode hex="0069"/>
  <outline>
    <contour>
      <point x="163.6" y="110"/>
      <point x="163.6" y="0"/>
      <point x="163.6" y="110" type="curve"/>
      <point x="26.6" y="110"/>
      <point x="163.6" y="110"/>
      <point x="26.6" y="110" type="curve"/>
      <point x="25.6" y="0"/>
      <point x="26.6" y="110"/>
      <point x="25.6" y="0" type="curve"/>
      <point x="71.6" y="0"/>
      <point x="117.6" y="0"/>
      <point x="163.6" y="0" type="curve"/>
    </contour>
    <contour>
      <point x="163.6" y="0"/>
      <point x="163.6" y="110"/>
      <point x="163.6" y="0" type="curve"/>
      <point x="206.6" y="0"/>
      <point x="249.6" y="0"/>
      <point x="293.6" y="0" type="curve"/>
      <point x="293.6" y="110"/>
      <point x="293.6" y="0"/>
      <point x="293.6" y="110" type="curve"/>
      <point x="163.6" y="110"/>
      <point x="293.6" y="110"/>
      <point x="163.6" y="110" type="curve"/>
    </contour>
    <contour>
      <point x="163.6" y="533"/>
      <point x="163.6" y="423"/>
      <point x="163.6" y="533" type="curve"/>
      <point x="117.6" y="533"/>
      <point x="71.6" y="533"/>
      <point x="26.6" y="533" type="curve"/>
      <point x="25.6" y="423"/>
      <point x="26.6" y="533"/>
      <point x="25.6" y="423" type="curve"/>
      <point x="163.6" y="423"/>
      <point x="25.6" y="423"/>
      <point x="163.6" y="423" type="curve"/>
    </contour>
    <contour>
      <point x="238.6" y="0"/>
      <point x="88.6" y="0"/>
      <point x="238.6" y="0" type="curve"/>
      <point x="238.6" y="178"/>
      <point x="238.6" y="355"/>
      <point x="238.6" y="533" type="curve"/>
      <point x="88.6" y="533"/>
      <point x="238.6" y="533"/>
      <point x="88.6" y="533" type="curve"/>
      <point x="88.6" y="355"/>
      <point x="88.6" y="178"/>
      <point x="88.6" y="0" type="curve"/>
    </contour>
    <contour>
      <point x="233.6" y="678"/>
      <point x="85.6" y="678"/>
      <point x="233.6" y="678" type="curve"/>
      <point x="233.6" y="726"/>
      <point x="201.6" y="750"/>
      <point x="158.6" y="750" type="curve"/>
      <point x="114.6" y="750"/>
      <point x="85.6" y="724"/>
      <point x="85.6" y="678" type="curve"/>
      <point x="233.6" y="678"/>
      <point x="85.6" y="678"/>
      <point x="233.6" y="678" type="curve"/>
      <point x="233.6" y="629"/>
      <point x="202.6" y="607"/>
      <point x="158.6" y="607" type="curve"/>
      <point x="113.6" y="607"/>
      <point x="85.6" y="631"/>
      <point x="85.6" y="678" type="curve"/>
    </contour>
    <contour>
      <point x="158.6" y="611" type="move" name="top"/>
    </contour>
    <contour>
      <point x="227.6" y="4" type="move" name="bottom"/>
    </contour>
  </outline>
</glyph>
<glyph name="j" format="1">
  <advance width="259.4"/>
  <unicode hex="006A"/>
  <outline>
    <contour>
      <point x="123.2" y="533"/>
      <point x="123.2" y="423"/>
      <point x="123.2" y="533" type="curve"/>
      <point x="78.2" y="533"/>
      <point x="32.2" y="533"/>
      <point x="-13.8" y="533" type="curve"/>
      <point x="-13.8" y="423"/>
      <point x="-13.8" y="533"/>
      <point x="-13.8" y="423" type="curve"/>
      <point x="123.2" y="423"/>
      <point x="-13.8" y="423"/>
      <point x="123.2" y="423" type="curve"/>
    </contour>
    <contour>
      <point x="-16.8" y="-304"/>
      <point x="3.2" y="-199"/>
      <point x="-16.8" y="-304" type="curve"/>
      <point x="-8.8" y="-305"/>
      <point x="1.2" y="-305"/>
      <point x="11.2" y="-305" type="curve"/>
      <point x="121.2" y="-305"/>
      <point x="196.2" y="-230"/>
      <point x="196.2" y="-120" type="curve"/>
      <point x="196.2" y="98"/>
      <point x="196.2" y="316"/>
      <point x="196.2" y="534" type="curve"/>
      <point x="53.2" y="534"/>
      <point x="196.2" y="534"/>
      <point x="53.2" y="534" type="curve"/>
      <point x="53.2" y="316"/>
      <point x="53.2" y="98"/>
      <point x="53.2" y="-120" type="curve"/>
      <point x="53.2" y="-160"/>
      <point x="52.2" y="-200"/>
      <point x="17.2" y="-200" type="curve"/>
      <point x="12.2" y="-200"/>
      <point x="10.2" y="-200"/>
      <point x="3.2" y="-199" type="curve"/>
    </contour>
    <contour>
      <point x="196.2" y="670"/>
      <point x="48.2" y="670"/>
      <point x="196.2" y="670" type="curve"/>
      <point x="196.2" y="718"/>
      <point x="164.2" y="742"/>
      <point x="121.2" y="742" type="curve"/>
      <point x="77.2" y="742"/>
      <point x="48.2" y="716"/>
      <point x="48.2" y="670" type="curve"/>
      <point x="196.2" y="670"/>
      <point x="48.2" y="670"/>
      <point x="196.2" y="670" type="curve"/>
      <point x="196.2" y="621"/>
      <point x="165.2" y="599"/>
      <point x="121.2" y="599" type="curve"/>
      <point x="76.2" y="599"/>
      <point x="48.2" y="623"/>
      <point x="48.2" y="670" type="curve"/>
    </contour>
  </outline>
</glyph>
<glyph name="k" format="1">
  <advance width="540.6"/>
  <unicode hex="006B"/>
  <outline>
    <contour>
      <point x="143.4" y="110"/>
      <point x="143.4" y="-1"/>
      <point x="143.4" y="110" type="curve"/>
      <point x="6.4" y="110"/>
      <point x="143.4" y="110"/>
      <point x="6.4" y="110" type="curve"/>
      <point x="6.4" y="0"/>
      <point x="6.4" y="110"/>
      <point x="6.4" y="0" type="curve"/>
      <point x="52.4" y="0"/>
      <point x="97.4" y="-1"/>
      <point x="143.4" y="-1" type="curve"/>
    </contour>
    <contour>
      <point x="390.4" y="0"/>
      <point x="387.4" y="110"/>
      <point x="387.4" y="0" type="curve"/>
      <point x="430.4" y="0"/>
      <point x="474.4" y="0"/>
      <point x="517.4" y="0" type="curve"/>
      <point x="517.4" y="110"/>
      <point x="517.4" y="0"/>
      <point x="517.4" y="110" type="curve"/>
      <point x="390.4" y="110"/>
      <point x="517.4" y="110"/>
      <point x="390.4" y="110" type="curve"/>
    </contour>
    <contour>
      <point x="401.4" y="423"/>
      <point x="401.4" y="533"/>
      <point x="401.4" y="423" type="curve"/>
      <point x="498.4" y="423"/>
      <point x="401.4" y="423"/>
      <point x="498.4" y="423" type="curve"/>
      <point x="498.4" y="533"/>
      <point x="498.4" y="423"/>
      <point x="498.4" y="533" type="curve"/>
      <point x="466.4" y="533"/>
      <point x="433.4" y="533"/>
      <point x="401.4" y="533" type="curve"/>
    </contour>
    <contour>
      <point x="143.4" y="-1"/>
      <point x="143.4" y="110"/>
      <point x="143.4" y="-1" type="curve"/>
      <point x="183.4" y="-1"/>
      <point x="143.4" y="-1"/>
      <point x="261.4" y="0" type="curve"/>
      <point x="261.4" y="110"/>
      <point x="261.4" y="0"/>
      <point x="261.4" y="110" type="curve"/>
      <point x="143.4" y="110"/>
      <point x="261.4" y="110"/>
      <point x="143.4" y="110" type="curve"/>
    </contour>
    <contour>
      <point x="431.4" y="533"/>
      <point x="431.4" y="423"/>
      <point x="431.4" y="533" type="curve"/>
      <point x="370.4" y="533"/>
      <point x="310.4" y="533"/>
      <point x="249.4" y="533" type="curve"/>
      <point x="249.4" y="423"/>
      <point x="249.4" y="533"/>
      <point x="249.4" y="423" type="curve"/>
      <point x="431.4" y="423"/>
      <point x="249.4" y="423"/>
      <point x="431.4" y="423" type="curve"/>
    </contour>
    <contour>
      <point x="145.4" y="799"/>
      <point x="145.4" y="689"/>
      <point x="145.4" y="799" type="curve"/>
      <point x="99.4" y="799"/>
      <point x="53.4" y="800"/>
      <point x="7.4" y="800" type="curve"/>
      <point x="7.4" y="690"/>
      <point x="7.4" y="800"/>
      <point x="7.4" y="690" type="curve"/>
      <point x="145.4" y="689"/>
      <point x="7.4" y="690"/>
      <point x="145.4" y="689" type="curve"/>
    </contour>
    <contour>
      <point x="215.4" y="0"/>
      <point x="72.4" y="0"/>
      <point x="215.4" y="0" type="curve"/>
      <point x="215.4" y="0"/>
      <point x="215.4" y="800"/>
      <point x="215.4" y="800" type="curve"/>
      <point x="72.4" y="800"/>
      <point x="215.4" y="800"/>
      <point x="72.4" y="800" type="curve"/>
      <point x="72.4" y="533"/>
      <point x="72.4" y="267"/>
      <point x="72.4" y="0" type="curve"/>
    </contour>
    <contour>
      <point x="366.4" y="480"/>
      <point x="480.4" y="533"/>
      <point x="366.4" y="533" type="curve"/>
      <point x="193.4" y="275" type="line"/>
      <point x="328.4" y="275"/>
      <point x="193.4" y="275"/>
      <point x="328.4" y="275" type="curve"/>
      <point x="480.4" y="480" type="line"/>
    </contour>
    <contour>
      <point x="489.4" y="0"/>
      <point x="386.4" y="70"/>
      <point x="489.4" y="70" type="curve"/>
      <point x="328.4" y="275" type="line"/>
      <point x="193.4" y="275"/>
      <point x="328.4" y="275"/>
      <point x="193.4" y="275" type="curve"/>
      <point x="386.4" y="0" type="line"/>
    </contour>
    <contour>
      <point x="352.4" y="0" type="move" name="bottom"/>
    </contour>
  </outline>
</glyph>
<glyph name="l" format="1">
  <advance width="311.8"/>
  <unicode hex="006C"/>
  <outline>
    <contour>
      <point x="156.2" y="111"/>
      <point x="156.2" y="-1"/>
      <point x="156.2" y="110" type="curve"/>
      <point x="19.2" y="110"/>
      <point x="156.2" y="110"/>
      <point x="19.2" y="110" type="curve"/>
      <point x="19.2" y="0"/>
      <point x="19.2" y="110"/>
      <point x="19.2" y="0" type="curve"/>
      <point x="65.2" y="0"/>
      <point x="110.2" y="0"/>
      <point x="156.2" y="0" type="curve"/>
    </contour>
    <contour>
      <point x="158.2" y="799"/>
      <point x="158.2" y="690"/>
      <point x="158.2" y="800" type="curve"/>
      <point x="112.2" y="800"/>
      <point x="66.2" y="800"/>
      <point x="21.2" y="800" type="curve"/>
      <point x="20.2" y="690"/>
      <point x="21.2" y="800"/>
      <point x="20.2" y="690" type="curve"/>
      <point x="158.2" y="689"/>
      <point x="20.2" y="690"/>
      <point x="158.2" y="689" type="curve"/>
    </contour>
    <contour>
      <point x="156.2" y="-1"/>
      <point x="156.2" y="111"/>
      <point x="156.2" y="0" type="curve"/>
      <point x="202.2" y="0"/>
      <point x="248.2" y="0"/>
      <point x="294.2" y="0" type="curve"/>
      <point x="294.2" y="110"/>
      <point x="294.2" y="0"/>
      <point x="294.2" y="110" type="curve"/>
      <point x="156.2" y="110"/>
      <point x="294.2" y="110"/>
      <point x="156.2" y="110" type="curve"/>
    </contour>
    <contour>
      <point x="227.2" y="0"/>
      <point x="84.2" y="0"/>
      <point x="227.2" y="0" type="curve"/>
      <point x="227.2" y="267"/>
      <point x="227.2" y="533"/>
      <point x="227.2" y="800" type="curve"/>
      <point x="84.2" y="800"/>
      <point x="227.2" y="800"/>
      <point x="84.2" y="800" type="curve"/>
      <point x="84.2" y="533"/>
      <point x="84.2" y="267"/>
      <point x="84.2" y="0" type="curve"/>
    </contour>
    <contour>
      <point x="159.2" y="882" type="move" name="top"/>
    </contour>
    <contour>
      <point x="217.2" y="2" type="move" name="bottom"/>
    </contour>
  </outline>
</glyph>
<glyph name="m" format="1">
  <advance width="859.6"/>
  <unicode hex="006D"/>
  <outline>
    <contour>
      <point x="435.8" y="0"/>
      <point x="435.8" y="110"/>
      <point x="435.8" y="0" type="curve"/>
      <point x="557.8" y="0"/>
      <point x="435.8" y="0"/>
      <point x="557.8" y="0" type="curve"/>
      <point x="557.8" y="110"/>
      <point x="557.8" y="0"/>
      <point x="557.8" y="110" type="curve"/>
      <point x="435.8" y="110"/>
      <point x="557.8" y="110"/>
      <point x="435.8" y="110" type="curve"/>
    </contour>
    <contour>
      <point x="685.8" y="0"/>
      <point x="685.8" y="110"/>
      <point x="685.8" y="0" type="curve"/>
      <point x="730.8" y="0"/>
      <point x="776.8" y="0"/>
      <point x="822.8" y="0" type="curve"/>
      <point x="822.8" y="110"/>
      <point x="822.8" y="0"/>
      <point x="822.8" y="110" type="curve"/>
      <point x="685.8" y="110"/>
      <point x="822.8" y="110"/>
      <point x="685.8" y="110" type="curve"/>
    </contour>
    <contour>
      <point x="186.8" y="110"/>
      <point x="186.8" y="0"/>
      <point x="186.8" y="110" type="curve"/>
      <point x="49.8" y="110"/>
      <point x="186.8" y="110"/>
      <point x="49.8" y="110" type="curve"/>
      <point x="48.8" y="0"/>
      <point x="49.8" y="110"/>
      <point x="48.8" y="0" type="curve"/>
      <point x="94.8" y="0"/>
      <point x="140.8" y="0"/>
      <point x="186.8" y="0" type="curve"/>
    </contour>
    <contour>
      <point x="186.8" y="0"/>
      <point x="186.8" y="110"/>
      <point x="186.8" y="0" type="curve"/>
      <point x="226.8" y="0"/>
      <point x="186.8" y="0"/>
      <point x="308.8" y="0" type="curve"/>
      <point x="308.8" y="110"/>
      <point x="308.8" y="0"/>
      <point x="308.8" y="110" type="curve"/>
      <point x="186.8" y="110"/>
      <point x="308.8" y="110"/>
      <point x="186.8" y="110" type="curve"/>
    </contour>
    <contour>
      <point x="186.8" y="533"/>
      <point x="186.8" y="423"/>
      <point x="186.8" y="533" type="curve"/>
      <point x="140.8" y="533"/>
      <point x="94.8" y="533"/>
      <point x="49.8" y="533" type="curve"/>
      <point x="48.8" y="423"/>
      <point x="49.8" y="533"/>
      <point x="48.8" y="423" type="curve"/>
      <point x="186.8" y="423"/>
      <point x="48.8" y="423"/>
      <point x="186.8" y="423" type="curve"/>
    </contour>
    <contour>
      <point x="479.8" y="274"/>
      <point x="433.8" y="333"/>
      <point x="474.8" y="271" type="curve"/>
      <point x="492.8" y="343"/>
      <point x="506.8" y="423"/>
      <point x="564.8" y="423" type="curve"/>
      <point x="622.8" y="423"/>
      <point x="612.8" y="374"/>
      <point x="612.8" y="308" type="curve"/>
      <point x="612.8" y="205"/>
      <point x="612.8" y="103"/>
      <point x="612.8" y="0" type="curve"/>
      <point x="755.8" y="0"/>
      <point x="612.8" y="0"/>
      <point x="755.8" y="0" type="curve"/>
      <point x="755.8" y="106"/>
      <point x="755.8" y="213"/>
      <point x="755.8" y="319" type="curve"/>
      <point x="755.8" y="451"/>
      <point x="744.8" y="538"/>
      <point x="616.8" y="538" type="curve"/>
      <point x="522.8" y="538"/>
      <point x="465.8" y="453"/>
      <point x="438.8" y="336" type="curve"/>
    </contour>
    <contour>
      <point x="230.8" y="274"/>
      <point x="184.8" y="333"/>
      <point x="225.8" y="271" type="curve"/>
      <point x="241.8" y="343"/>
      <point x="256.8" y="423"/>
      <point x="315.8" y="423" type="curve"/>
      <point x="372.8" y="423"/>
      <point x="363.8" y="374"/>
      <point x="363.8" y="308" type="curve"/>
      <point x="363.8" y="205"/>
      <point x="363.8" y="103"/>
      <point x="363.8" y="0" type="curve"/>
      <point x="506.8" y="0"/>
      <point x="363.8" y="0"/>
      <point x="506.8" y="0" type="curve"/>
      <point x="506.8" y="106"/>
      <point x="506.8" y="213"/>
      <point x="506.8" y="319" type="curve"/>
      <point x="506.8" y="451"/>
      <point x="495.8" y="538"/>
      <point x="367.8" y="538" type="curve"/>
      <point x="272.8" y="538"/>
      <point x="217.8" y="454"/>
      <point x="189.8" y="336" type="curve"/>
    </contour>
    <contour>
      <point x="257.8" y="0"/>
      <point x="114.8" y="0"/>
      <point x="257.8" y="0" type="curve"/>
      <point x="257.8" y="178"/>
      <point x="257.8" y="355"/>
      <point x="257.8" y="533" type="curve"/>
      <point x="114.8" y="533"/>
      <point x="257.8" y="533"/>
      <point x="114.8" y="533" type="curve"/>
      <point x="114.8" y="355"/>
      <point x="114.8" y="178"/>
      <point x="114.8" y="0" type="curve"/>
    </contour>
  </outline>
</glyph>
<glyph name="p" format="1">
  <advance width="569.40000058"/>
  <unicode hex="0070"/>
  <outline>
    <contour>
      <point x="142.6" y="-189"/>
      <point x="142.6" y="-300"/>
      <point x="142.6" y="-189" type="curve"/>
      <point x="5.6" y="-189"/>
      <point x="142.6" y="-189"/>
      <point x="5.6" y="-189" type="curve"/>
      <point x="5.6" y="-300"/>
      <point x="5.6" y="-189"/>
      <point x="5.6" y="-300" type="curve"/>
      <point x="51.6" y="-300"/>
      <point x="96.6" y="-300"/>
      <point x="142.6" y="-300" type="curve"/>
    </contour>
    <contour>
      <point x="142.6" y="-300"/>
      <point x="142.6" y="-189"/>
      <point x="142.6" y="-300" type="curve"/>
      <point x="186.6" y="-300"/>
      <point x="229.6" y="-300"/>
      <point x="272.6" y="-300" type="curve"/>
      <point x="272.6" y="-189"/>
      <point x="272.6" y="-300"/>
      <point x="272.6" y="-189" type="curve"/>
      <point x="142.6" y="-189"/>
      <point x="272.6" y="-189"/>
      <point x="142.6" y="-189" type="curve"/>
    </contour>
    <contour>
      <point x="143.6" y="533"/>
      <point x="143.6" y="423"/>
      <point x="143.6" y="533" type="curve"/>
      <point x="97.6" y="533"/>
      <point x="52.6" y="533"/>
      <point x="6.6" y="533" type="curve"/>
      <point x="6.6" y="423"/>
      <point x="6.6" y="533"/>
      <point x="6.6" y="423" type="curve"/>
      <point x="143.6" y="423"/>
      <point x="6.6" y="423"/>
      <point x="143.6" y="423" type="curve"/>
    </contour>
    <contour>
      <point x="181.6" y="295"/>
      <point x="149.6" y="387"/>
      <point x="184.6" y="296" type="curve"/>
      <point x="199.6" y="358"/>
      <point x="242.6" y="424"/>
      <point x="293.6" y="424" type="curve"/>
      <point x="380.6" y="424"/>
      <point x="389.6" y="346"/>
      <point x="389.6" y="261" type="curve"/>
      <point x="390.6" y="179"/>
      <point x="378.6" y="105"/>
      <point x="297.6" y="105" type="curve"/>
      <point x="251.6" y="105"/>
      <point x="218.6" y="126"/>
      <point x="188.6" y="162" type="curve"/>
      <point x="139.6" y="102"/>
      <point x="188.6" y="162"/>
      <point x="139.6" y="102" type="curve"/>
      <point x="190.6" y="33"/>
      <point x="246.6" y="-5"/>
      <point x="328.6" y="-5" type="curve"/>
      <point x="477.6" y="-5"/>
      <point x="532.6" y="119"/>
      <point x="532.6" y="267" type="curve"/>
      <point x="532.6" y="413"/>
      <point x="479.6" y="539"/>
      <point x="328.6" y="539" type="curve"/>
      <point x="245.6" y="539"/>
      <point x="181.6" y="464"/>
      <point x="146.6" y="386" type="curve"/>
    </contour>
    <contour>
      <point x="214.6" y="-300"/>
      <point x="71.6" y="-300"/>
      <point x="214.6" y="-300" type="curve"/>
      <point x="214.6" y="-22"/>
      <point x="214.6" y="255"/>
      <point x="214.6" y="533" type="curve"/>
      <point x="71.6" y="533"/>
      <point x="214.6" y="533"/>
      <point x="71.6" y="533" type="curve"/>
      <point x="71.6" y="255"/>
      <point x="71.6" y="-22"/>
      <point x="71.6" y="-300" type="curve"/>
    </contour>
  </outline>
</glyph>
<glyph name="q" format="1">
  <advance width="597.0"/>
  <unicode hex="0071"/>
  <outline>
    <contour>
      <point x="429.6" y="423"/>
      <point x="429.6" y="533"/>
      <point x="429.6" y="423" type="curve"/>
      <point x="556.6" y="423"/>
      <point x="429.6" y="423"/>
      <point x="558.6" y="423" type="curve"/>
      <point x="558.6" y="533"/>
      <point x="558.6" y="423"/>
      <point x="558.6" y="533" type="curve"/>
      <point x="515.6" y="533"/>
      <point x="472.6" y="533"/>
      <point x="429.6" y="533" type="curve"/>
    </contour>
    <contour>
      <point x="427.6" y="-189"/>
      <point x="427.6" y="-300"/>
      <point x="427.6" y="-189" type="curve"/>
      <point x="290.6" y="-189"/>
      <point x="427.6" y="-189"/>
      <point x="290.6" y="-189" type="curve"/>
      <point x="290.6" y="-300"/>
      <point x="290.6" y="-189"/>
      <point x="290.6" y="-300" type="curve"/>
      <point x="336.6" y="-300"/>
      <point x="381.6" y="-300"/>
      <point x="427.6" y="-300" type="curve"/>
    </contour>
    <contour>
      <point x="427.6" y="-300"/>
      <point x="427.6" y="-189"/>
      <point x="427.6" y="-300" type="curve"/>
      <point x="471.6" y="-300"/>
      <point x="514.6" y="-300"/>
      <point x="557.6" y="-300" type="curve"/>
      <point x="557.6" y="-189"/>
      <point x="557.6" y="-300"/>
      <point x="557.6" y="-189" type="curve"/>
      <point x="427.6" y="-189"/>
      <point x="557.6" y="-189"/>
      <point x="427.6" y="-189" type="curve"/>
    </contour>
    <contour>
      <point x="419.6" y="400"/>
      <point x="400.6" y="330"/>
      <point x="429.6" y="395" type="curve"/>
      <point x="392.6" y="480"/>
      <point x="325.6" y="538"/>
      <point x="243.6" y="538" type="curve"/>
      <point x="90.6" y="538"/>
      <point x="36.6" y="414"/>
      <point x="37.6" y="265" type="curve"/>
      <point x="37.6" y="115"/>
      <point x="97.6" y="-5"/>
      <point x="248.6" y="-5" type="curve"/>
      <point x="325.6" y="-5"/>
      <point x="387.6" y="54"/>
      <point x="427.6" y="124" type="curve"/>
      <point x="385.6" y="185"/>
      <point x="427.6" y="124"/>
      <point x="385.6" y="185" type="curve"/>
      <point x="359.6" y="140"/>
      <point x="321.6" y="105"/>
      <point x="272.6" y="105" type="curve"/>
      <point x="194.6" y="105"/>
      <point x="180.6" y="184"/>
      <point x="180.6" y="271" type="curve"/>
      <point x="180.6" y="351"/>
      <point x="197.6" y="424"/>
      <point x="270.6" y="424" type="curve"/>
      <point x="315.6" y="424"/>
      <point x="349.6" y="403"/>
      <point x="390.6" y="335" type="curve"/>
    </contour>
    <contour>
      <point x="502.6" y="-300"/>
      <point x="353.6" y="-300"/>
      <point x="502.6" y="-300" type="curve"/>
      <point x="502.6" y="-22"/>
      <point x="502.6" y="255"/>
      <point x="502.6" y="533" type="curve"/>
      <point x="353.6" y="533"/>
      <point x="502.6" y="533"/>
      <point x="353.6" y="533" type="curve"/>
      <point x="353.6" y="255"/>
      <point x="353.6" y="-22"/>
      <point x="353.6" y="-300" type="curve"/>
    </contour>
  </outline>
</glyph>
<glyph name="r" format="1">
  <advance width="389.0"/>
  <unicode hex="0072"/>
  <outline>
    <contour>
      <point x="185.2" y="0"/>
      <point x="185.2" y="110"/>
      <point x="185.2" y="0" type="curve"/>
      <point x="228.2" y="0"/>
      <point x="271.2" y="0"/>
      <point x="315.2" y="0" type="curve"/>
      <point x="315.2" y="110"/>
      <point x="315.2" y="0"/>
      <point x="315.2" y="110" type="curve"/>
      <point x="185.2" y="110"/>
      <point x="315.2" y="110"/>
      <point x="185.2" y="110" type="curve"/>
    </contour>
    <contour>
      <point x="185.2" y="110"/>
      <point x="185.2" y="0"/>
      <point x="185.2" y="110" type="curve"/>
      <point x="48.2" y="110"/>
      <point x="185.2" y="110"/>
      <point x="48.2" y="110" type="curve"/>
      <point x="47.2" y="0"/>
      <point x="48.2" y="110"/>
      <point x="47.2" y="0" type="curve"/>
      <point x="93.2" y="0"/>
      <point x="139.2" y="0"/>
      <point x="185.2" y="0" type="curve"/>
    </contour>
    <contour>
      <point x="184.2" y="533"/>
      <point x="184.2" y="423"/>
      <point x="184.2" y="533" type="curve"/>
      <point x="138.2" y="533"/>
      <point x="92.2" y="533"/>
      <point x="47.2" y="533" type="curve"/>
      <point x="47.2" y="423"/>
      <point x="47.2" y="533"/>
      <point x="47.2" y="423" type="curve"/>
      <point x="184.2" y="423"/>
      <point x="47.2" y="423"/>
      <point x="184.2" y="423" type="curve"/>
    </contour>
    <contour>
      <point x="256.2" y="0"/>
      <point x="113.2" y="0"/>
      <point x="256.2" y="0" type="curve"/>
      <point x="256.2" y="178"/>
      <point x="256.2" y="355"/>
      <point x="256.2" y="533" type="curve"/>
      <point x="113.2" y="533"/>
      <point x="256.2" y="533"/>
      <point x="113.2" y="533" type="curve"/>
      <point x="113.2" y="355"/>
      <point x="113.2" y="178"/>
      <point x="113.2" y="0" type="curve"/>
    </contour>
    <contour>
      <point x="223.2" y="282"/>
      <point x="178.2" y="338"/>
      <point x="226.2" y="284" type="curve"/>
      <point x="257.2" y="399"/>
      <point x="309.2" y="423"/>
      <point x="372.2" y="423" type="curve"/>
      <point x="372.2" y="538"/>
      <point x="372.2" y="423"/>
      <point x="372.2" y="538" type="curve"/>
      <point x="278.2" y="538"/>
      <point x="211.2" y="447"/>
      <point x="175.2" y="336" type="curve"/>
    </contour>
    <contour>
      <point x="250.2" y="2" type="move" name="bottom"/>
    </contour>
    <contour>
      <point x="196.2" y="610" type="move" name="top"/>
    </contour>
  </outline>
</glyph>
<glyph name="s" format="1">
  <advance width="445.8"/>
  <unicode hex="0073"/>
  <outline>
    <contour>
      <point x="48.0" y="47"/>
      <point x="120.0" y="146"/>
      <point x="48.0" y="47" type="curve"/>
      <point x="104.0" y="15"/>
      <point x="158.0" y="-5"/>
      <point x="218.0" y="-5" type="curve"/>
      <point x="333.0" y="-5"/>
      <point x="409.0" y="51"/>
      <point x="409.0" y="162" type="curve"/>
      <point x="408.0" y="259"/>
      <point x="337.0" y="293"/>
      <point x="242.0" y="327" type="curve"/>
      <point x="207.0" y="339"/>
      <point x="181.0" y="357"/>
      <point x="181.0" y="388" type="curve"/>
      <point x="181.0" y="407"/>
      <point x="194.0" y="423"/>
      <point x="219.0" y="423" type="curve"/>
      <point x="248.0" y="423"/>
      <point x="282.0" y="407"/>
      <point x="301.0" y="393" type="curve"/>
      <point x="366.0" y="493"/>
      <point x="301.0" y="393"/>
      <point x="366.0" y="493" type="curve"/>
      <point x="334.0" y="516"/>
      <point x="273.0" y="538"/>
      <point x="222.0" y="538" type="curve"/>
      <point x="118.0" y="538"/>
      <point x="51.0" y="487"/>
      <point x="51.0" y="388" type="curve"/>
      <point x="51.0" y="297"/>
      <point x="107.0" y="253"/>
      <point x="196.0" y="222" type="curve"/>
      <point x="237.0" y="208"/>
      <point x="272.0" y="191"/>
      <point x="272.0" y="153" type="curve"/>
      <point x="272.0" y="128"/>
      <point x="252.0" y="114"/>
      <point x="227.0" y="114" type="curve"/>
      <point x="187.0" y="114"/>
      <point x="155.0" y="126"/>
      <point x="120.0" y="146" type="curve"/>
    </contour>
    <contour>
      <point x="254.0" y="493"/>
      <point x="366.0" y="493"/>
      <point x="254.0" y="493" type="curve"/>
      <point x="254.0" y="361"/>
      <point x="254.0" y="493"/>
      <point x="254.0" y="361" type="curve"/>
      <point x="366.0" y="361"/>
      <point x="254.0" y="361"/>
      <point x="366.0" y="361" type="curve"/>
      <point x="366.0" y="493"/>
      <point x="366.0" y="361"/>
      <point x="366.0" y="493" type="curve"/>
    </contour>
    <contour>
      <point x="160.0" y="47"/>
      <point x="48.0" y="47"/>
      <point x="160.0" y="47" type="curve"/>
      <point x="160.0" y="183"/>
      <point x="160.0" y="47"/>
      <point x="160.0" y="183" type="curve"/>
      <point x="48.0" y="183"/>
      <point x="160.0" y="183"/>
      <point x="48.0" y="183" type="curve"/>
      <point x="48.0" y="47"/>
      <point x="48.0" y="183"/>
      <point x="48.0" y="47" type="curve"/>
    </contour>
    <contour>
      <point x="268.0" y="3" type="move" name="bottom"/>
    </contour>
    <contour>
      <point x="224.0" y="610" type="move" name="top"/>
    </contour>
  </outline>
</glyph>
<glyph name="t" format="1">
  <advance width="329.6"/>
  <unicode hex="0074"/>
  <outline>
    <contour>
      <point x="12.0" y="421"/>
      <point x="12.0" y="532"/>
      <point x="12.0" y="421" type="curve"/>
      <point x="12.0" y="421"/>
      <point x="306.0" y="421"/>
      <point x="306.0" y="421" type="curve"/>
      <point x="306.0" y="532"/>
      <point x="306.0" y="421"/>
      <point x="306.0" y="532" type="curve"/>
      <point x="306.0" y="532"/>
      <point x="12.0" y="532"/>
      <point x="12.0" y="532" type="curve"/>
    </contour>
    <contour>
      <point x="262.0" y="125"/>
      <point x="320.0" y="31"/>
      <point x="262.0" y="125" type="curve"/>
      <point x="250.0" y="115"/>
      <point x="242.0" y="110"/>
      <point x="228.0" y="110" type="curve"/>
      <point x="197.0" y="110"/>
      <point x="199.0" y="140"/>
      <point x="199.0" y="175" type="curve"/>
      <point x="199.0" y="175"/>
      <point x="199.0" y="680"/>
      <point x="199.0" y="680" type="curve"/>
      <point x="56.0" y="590"/>
      <point x="199.0" y="680"/>
      <point x="56.0" y="590" type="curve"/>
      <point x="56.0" y="590"/>
      <point x="56.0" y="170"/>
      <point x="56.0" y="170" type="curve"/>
      <point x="56.0" y="60"/>
      <point x="106.0" y="-6"/>
      <point x="207.0" y="-6" type="curve"/>
      <point x="251.0" y="-6"/>
      <point x="281.0" y="8"/>
      <point x="320.0" y="31" type="curve"/>
    </contour>
    <contour>
      <point x="259.0" y="7" type="move" name="bottom"/>
    </contour>
  </outline>
</glyph>
<glyph name="v" format="1">
  <advance width="568.0"/>
  <unicode hex="0076"/>
  <outline>
    <contour>
      <point x="126.0" y="533"/>
      <point x="126.0" y="423"/>
      <point x="126.0" y="533" type="curve"/>
      <point x="90.0" y="533"/>
      <point x="55.0" y="533"/>
      <point x="20.0" y="533" type="curve"/>
      <point x="20.0" y="423"/>
      <point x="20.0" y="533"/>
      <point x="20.0" y="423" type="curve"/>
      <point x="126.0" y="423"/>
      <point x="20.0" y="423"/>
      <point x="126.0" y="423" type="curve"/>
    </contour>
    <contour>
      <point x="126.0" y="423"/>
      <point x="126.0" y="533"/>
      <point x="126.0" y="423" type="curve"/>
      <point x="263.0" y="423"/>
      <point x="126.0" y="423"/>
      <point x="263.0" y="423" type="curve"/>
      <point x="263.0" y="533"/>
      <point x="263.0" y="423"/>
      <point x="263.0" y="533" type="curve"/>
      <point x="218.0" y="533"/>
      <point x="172.0" y="533"/>
      <point x="126.0" y="533" type="curve"/>
    </contour>
    <contour>
      <point x="453.0" y="533"/>
      <point x="453.0" y="423"/>
      <point x="453.0" y="533" type="curve"/>
      <point x="407.0" y="533"/>
      <point x="361.0" y="533"/>
      <point x="316.0" y="533" type="curve"/>
      <point x="316.0" y="423"/>
      <point x="316.0" y="533"/>
      <point x="316.0" y="423" type="curve"/>
      <point x="453.0" y="423"/>
      <point x="316.0" y="423"/>
      <point x="453.0" y="423" type="curve"/>
    </contour>
    <contour>
      <point x="453.0" y="423"/>
      <point x="453.0" y="533"/>
      <point x="453.0" y="423" type="curve"/>
      <point x="560.0" y="423"/>
      <point x="453.0" y="423"/>
      <point x="560.0" y="423" type="curve"/>
      <point x="560.0" y="533"/>
      <point x="560.0" y="423"/>
      <point x="560.0" y="533" type="curve"/>
      <point x="524.0" y="533"/>
      <point x="488.0" y="533"/>
      <point x="453.0" y="533" type="curve"/>
    </contour>
    <contour>
      <point x="46.0" y="533"/>
      <point x="191.0" y="533"/>
      <point x="46.0" y="533" type="curve"/>
      <point x="98.0" y="355"/>
      <point x="150.0" y="178"/>
      <point x="202.0" y="0" type="curve"/>
      <point x="335.0" y="0"/>
      <point x="202.0" y="0"/>
      <point x="335.0" y="0" type="curve"/>
      <point x="284.0" y="177"/>
      <point x="242.0" y="356"/>
      <point x="191.0" y="533" type="curve"/>
    </contour>
    <contour>
      <point x="389.0" y="533"/>
      <point x="533.0" y="533"/>
      <point x="389.0" y="533" type="curve"/>
      <point x="389.0" y="533"/>
      <point x="235.0" y="0"/>
      <point x="235.0" y="0" type="curve"/>
      <point x="369.0" y="0"/>
      <point x="235.0" y="0"/>
      <point x="369.0" y="0" type="curve"/>
      <point x="424.0" y="178"/>
      <point x="478.0" y="355"/>
      <point x="533.0" y="533" type="curve"/>
    </contour>
  </outline>
</glyph>
<glyph name="w" format="1">
  <advance width="794.8"/>
  <unicode hex="0077"/>
  <outline>
    <contour>
      <point x="665.0" y="423"/>
      <point x="665.0" y="533"/>
      <point x="665.0" y="423" type="curve"/>
      <point x="782.0" y="423"/>
      <point x="665.0" y="423"/>
      <point x="782.0" y="423" type="curve"/>
      <point x="782.0" y="533"/>
      <point x="782.0" y="423"/>
      <point x="782.0" y="533" type="curve"/>
      <point x="743.0" y="533"/>
      <point x="703.0" y="533"/>
      <point x="665.0" y="533" type="curve"/>
    </contour>
    <contour>
      <point x="665.0" y="533"/>
      <point x="665.0" y="423"/>
      <point x="665.0" y="533" type="curve"/>
      <point x="624.0" y="533"/>
      <point x="582.0" y="533"/>
      <point x="542.0" y="533" type="curve"/>
      <point x="542.0" y="423"/>
      <point x="542.0" y="533"/>
      <point x="542.0" y="423" type="curve"/>
      <point x="665.0" y="423"/>
      <point x="542.0" y="423"/>
      <point x="665.0" y="423" type="curve"/>
    </contour>
    <contour>
      <point x="134.0" y="533"/>
      <point x="134.0" y="423"/>
      <point x="134.0" y="533" type="curve"/>
      <point x="95.0" y="533"/>
      <point x="55.0" y="533"/>
      <point x="16.0" y="533" type="curve"/>
      <point x="16.0" y="423"/>
      <point x="16.0" y="533"/>
      <point x="16.0" y="423" type="curve"/>
      <point x="134.0" y="423"/>
      <point x="16.0" y="423"/>
      <point x="134.0" y="423" type="curve"/>
    </contour>
    <contour>
      <point x="134.0" y="423"/>
      <point x="134.0" y="533"/>
      <point x="134.0" y="423" type="curve"/>
      <point x="251.0" y="423"/>
      <point x="134.0" y="423"/>
      <point x="251.0" y="423" type="curve"/>
      <point x="251.0" y="533"/>
      <point x="251.0" y="423"/>
      <point x="251.0" y="533" type="curve"/>
      <point x="212.0" y="533"/>
      <point x="172.0" y="533"/>
      <point x="134.0" y="533" type="curve"/>
    </contour>
    <contour>
      <point x="311.0" y="0"/>
      <point x="190.0" y="0"/>
      <point x="311.0" y="0" type="curve"/>
      <point x="362.0" y="178"/>
      <point x="413.0" y="355"/>
      <point x="463.0" y="533" type="curve"/>
      <point x="340.0" y="533"/>
      <point x="463.0" y="533"/>
      <point x="340.0" y="533" type="curve"/>
      <point x="290.0" y="355"/>
      <point x="240.0" y="178"/>
      <point x="190.0" y="0" type="curve"/>
    </contour>
    <contour>
      <point x="623.0" y="533"/>
      <point x="746.0" y="533"/>
      <point x="623.0" y="533" type="curve"/>
      <point x="576.0" y="355"/>
      <point x="529.0" y="178"/>
      <point x="483.0" y="0" type="curve"/>
      <point x="603.0" y="0"/>
      <point x="483.0" y="0"/>
      <point x="603.0" y="0" type="curve"/>
      <point x="651.0" y="178"/>
      <point x="699.0" y="355"/>
      <point x="746.0" y="533" type="curve"/>
    </contour>
    <contour>
      <point x="345.0" y="533"/>
      <point x="467.0" y="533"/>
      <point x="345.0" y="533" type="curve"/>
      <point x="390.0" y="355"/>
      <point x="436.0" y="178"/>
      <point x="482.0" y="0" type="curve"/>
      <point x="603.0" y="0"/>
      <point x="482.0" y="0"/>
      <point x="603.0" y="0" type="curve"/>
      <point x="558.0" y="178"/>
      <point x="512.0" y="355"/>
      <point x="467.0" y="533" type="curve"/>
    </contour>
    <contour>
      <point x="53.0" y="533"/>
      <point x="175.0" y="533"/>
      <point x="53.0" y="533" type="curve"/>
      <point x="98.0" y="355"/>
      <point x="144.0" y="178"/>
      <point x="190.0" y="0" type="curve"/>
      <point x="310.0" y="0"/>
      <point x="190.0" y="0"/>
      <point x="310.0" y="0" type="curve"/>
      <point x="265.0" y="178"/>
      <point x="220.0" y="355"/>
      <point x="175.0" y="533" type="curve"/>
    </contour>
  </outline>
</glyph>
<glyph name="x" format="1">
  <advance width="548"/>
  <unicode hex="0078"/>
  <outline>
    <contour>
      <point x="106" y="110"/>
      <point x="106" y="0"/>
      <point x="106" y="110" type="curve"/>
      <point x="39" y="110"/>
      <point x="96" y="110"/>
      <point x="29" y="110" type="curve"/>
      <point x="29" y="0"/>
      <point x="29" y="110"/>
      <point x="29" y="0" type="curve"/>
      <point x="51" y="0"/>
      <point x="83" y="0"/>
      <point x="106" y="0" type="curve"/>
    </contour>
    <contour>
      <point x="470" y="110"/>
      <point x="470" y="0"/>
      <point x="470" y="110" type="curve"/>
      <point x="321" y="110"/>
      <point x="452" y="110"/>
      <point x="303" y="110" type="curve"/>
      <point x="303" y="0"/>
      <point x="303" y="110"/>
      <point x="303" y="0" type="curve"/>
      <point x="352" y="0"/>
      <point x="420" y="0"/>
      <point x="470" y="0" type="curve"/>
    </contour>
    <contour>
      <point x="450" y="0"/>
      <point x="450" y="110"/>
      <point x="450" y="0" type="curve"/>
      <point x="474" y="0"/>
      <point x="516" y="0"/>
      <point x="539" y="0" type="curve"/>
      <point x="539" y="110"/>
      <point x="539" y="0"/>
      <point x="539" y="110" type="curve"/>
      <point x="470" y="110"/>
      <point x="519" y="110"/>
      <point x="450" y="110" type="curve"/>
    </contour>
    <contour>
      <point x="86" y="0"/>
      <point x="86" y="110"/>
      <point x="86" y="0" type="curve"/>
      <point x="137" y="0"/>
      <point x="101" y="0"/>
      <point x="252" y="0" type="curve"/>
      <point x="252" y="110"/>
      <point x="252" y="0"/>
      <point x="252" y="110" type="curve"/>
      <point x="101" y="110"/>
      <point x="237" y="110"/>
      <point x="86" y="110" type="curve"/>
    </contour>
    <contour>
      <point x="438" y="423"/>
      <point x="438" y="533"/>
      <point x="438" y="423" type="curve"/>
      <point x="513" y="423"/>
      <point x="463" y="423"/>
      <point x="538" y="423" type="curve"/>
      <point x="538" y="533"/>
      <point x="538" y="423"/>
      <point x="538" y="533" type="curve"/>
      <point x="513" y="533"/>
      <point x="463" y="533"/>
      <point x="438" y="533" type="curve"/>
    </contour>
    <contour>
      <point x="155" y="533"/>
      <point x="155" y="423"/>
      <point x="155" y="533" type="curve"/>
      <point x="125" y="533"/>
      <point x="81" y="533"/>
      <point x="52" y="533" type="curve"/>
      <point x="52" y="423"/>
      <point x="52" y="533"/>
      <point x="52" y="423" type="curve"/>
      <point x="140" y="423"/>
      <point x="67" y="423"/>
      <point x="155" y="423" type="curve"/>
    </contour>
    <contour>
      <point x="125" y="423"/>
      <point x="125" y="533"/>
      <point x="125" y="423" type="curve"/>
      <point x="262" y="423"/>
      <point x="130" y="423"/>
      <point x="267" y="423" type="curve"/>
      <point x="267" y="533"/>
      <point x="267" y="423"/>
      <point x="267" y="533" type="curve"/>
      <point x="223" y="533"/>
      <point x="171" y="533"/>
      <point x="125" y="533" type="curve"/>
    </contour>
    <contour>
      <point x="468" y="533"/>
      <point x="468" y="423"/>
      <point x="468" y="533" type="curve"/>
      <point x="418" y="533"/>
      <point x="363" y="533"/>
      <point x="314" y="533" type="curve"/>
      <point x="314" y="423"/>
      <point x="314" y="533"/>
      <point x="314" y="423" type="curve"/>
      <point x="463" y="423"/>
      <point x="319" y="423"/>
      <point x="468" y="423" type="curve"/>
    </contour>
    <contour>
      <point x="487" y="0"/>
      <point x="422" y="42"/>
      <point x="512" y="42" type="curve"/>
      <point x="172" y="533" type="line"/>
      <point x="88" y="533"/>
      <point x="147" y="483"/>
      <point x="63" y="483" type="curve"/>
      <point x="397" y="0" type="line"/>
    </contour>
    <contour>
      <point x="437" y="491"/>
      <point x="498" y="533"/>
      <point x="412" y="533" type="curve"/>
      <point x="52" y="51" type="line"/>
      <point x="135" y="51"/>
      <point x="77" y="0"/>
      <point x="160" y="0" type="curve"/>
      <point x="523" y="491" type="line"/>
    </contour>
  </outline>
</glyph>
<glyph name="braceleft" format="1">
  <advance width="252.2"/>
  <unicode hex="007B"/>
  <outline>
    <contour>
      <point x="206.6" y="2"/>
      <point x="206.6" y="-108"/>
      <point x="206.6" y="2" type="curve"/>
      <point x="177.6" y="2"/>
      <point x="184.6" y="34"/>
      <point x="184.6" y="66" type="curve"/>
      <point x="184.6" y="117"/>
      <point x="184.6" y="168"/>
      <point x="184.6" y="219" type="curve"/>
      <point x="184.6" y="323"/>
      <point x="131.6" y="399"/>
      <point x="33.6" y="399" type="curve"/>
      <point x="33.6" y="283"/>
      <point x="33.6" y="399"/>
      <point x="33.6" y="283" type="curve"/>
      <point x="56.6" y="283"/>
      <point x="54.6" y="257"/>
      <point x="54.6" y="230" type="curve"/>
      <point x="54.6" y="177"/>
      <point x="54.6" y="124"/>
      <point x="54.6" y="72" type="curve"/>
      <point x="54.6" y="-34"/>
      <point x="106.6" y="-108"/>
      <point x="206.6" y="-108" type="curve"/>
    </contour>
    <contour>
      <point x="206.6" y="790"/>
      <point x="206.6" y="679"/>
      <point x="206.6" y="790" type="curve"/>
      <point x="106.6" y="790"/>
      <point x="54.6" y="718"/>
      <point x="54.6" y="614" type="curve"/>
      <point x="54.6" y="559"/>
      <point x="54.6" y="504"/>
      <point x="54.6" y="449" type="curve"/>
      <point x="54.6" y="423"/>
      <point x="55.6" y="399"/>
      <point x="33.6" y="399" type="curve"/>
      <point x="33.6" y="283"/>
      <point x="33.6" y="399"/>
      <point x="33.6" y="283" type="curve"/>
      <point x="132.6" y="283"/>
      <point x="184.6" y="359"/>
      <point x="184.6" y="466" type="curve"/>
      <point x="184.6" y="515"/>
      <point x="184.6" y="564"/>
      <point x="184.6" y="614" type="curve"/>
      <point x="184.6" y="647"/>
      <point x="176.6" y="679"/>
      <point x="206.6" y="679" type="curve"/>
    </contour>
  </outline>
</glyph>
<glyph name="braceright" format="1">
  <advance width="253.0"/>
  <unicode hex="007D"/>
  <outline>
    <contour>
      <point x="46.4" y="-108"/>
      <point x="46.4" y="2"/>
      <point x="46.4" y="-108" type="curve"/>
      <point x="145.4" y="-108"/>
      <point x="198.4" y="-34"/>
      <point x="198.4" y="72" type="curve"/>
      <point x="198.4" y="124"/>
      <point x="198.4" y="177"/>
      <point x="198.4" y="230" type="curve"/>
      <point x="198.4" y="257"/>
      <point x="195.4" y="283"/>
      <point x="219.4" y="283" type="curve"/>
      <point x="219.4" y="399"/>
      <point x="219.4" y="283"/>
      <point x="219.4" y="399" type="curve"/>
      <point x="120.4" y="399"/>
      <point x="68.4" y="323"/>
      <point x="68.4" y="219" type="curve"/>
      <point x="68.4" y="168"/>
      <point x="68.4" y="117"/>
      <point x="68.4" y="66" type="curve"/>
      <point x="68.4" y="34"/>
      <point x="74.4" y="2"/>
      <point x="46.4" y="2" type="curve"/>
    </contour>
    <contour>
      <point x="46.4" y="679"/>
      <point x="46.4" y="790"/>
      <point x="46.4" y="679" type="curve"/>
      <point x="75.4" y="679"/>
      <point x="68.4" y="647"/>
      <point x="68.4" y="614" type="curve"/>
      <point x="68.4" y="564"/>
      <point x="68.4" y="515"/>
      <point x="68.4" y="466" type="curve"/>
      <point x="68.4" y="359"/>
      <point x="119.4" y="283"/>
      <point x="219.4" y="283" type="curve"/>
      <point x="219.4" y="399"/>
      <point x="219.4" y="283"/>
      <point x="219.4" y="399" type="curve"/>
      <point x="196.4" y="399"/>
      <point x="198.4" y="423"/>
      <point x="198.4" y="449" type="curve"/>
      <point x="198.4" y="504"/>
      <point x="198.4" y="559"/>
      <point x="198.4" y="614" type="curve"/>
      <point x="198.4" y="718"/>
      <point x="145.4" y="790"/>
      <point x="46.4" y="790" type="curve"/>
    </contour>
  </outline>
</glyph>
<glyph name="asciitilde" format="1">
  <advance width="591.2"/>
  <unicode hex="007E"/>
  <outline>
    <contour>
      <point x="493.6" y="358"/>
      <point x="468.6" y="366"/>
      <point x="424.6" y="380" type="curve"/>
      <point x="414.6" y="344"/>
      <point x="400.6" y="310"/>
      <point x="381.6" y="310" type="curve"/>
      <point x="363.6" y="310"/>
      <point x="354.6" y="317"/>
      <point x="342.6" y="329" type="curve"/>
      <point x="301.6" y="371"/>
      <point x="271.6" y="393"/>
      <point x="212.6" y="393" type="curve"/>
      <point x="118.6" y="393"/>
      <point x="75.6" y="337"/>
      <point x="53.6" y="242" type="curve"/>
      <point x="98.6" y="227"/>
      <point x="123.6" y="218"/>
      <point x="168.6" y="203" type="curve"/>
      <point x="176.6" y="241"/>
      <point x="189.6" y="275"/>
      <point x="210.6" y="275" type="curve"/>
      <point x="229.6" y="275"/>
      <point x="238.6" y="268"/>
      <point x="252.6" y="255" type="curve"/>
      <point x="294.6" y="213"/>
      <point x="324.6" y="193"/>
      <point x="383.6" y="192" type="curve"/>
      <point x="475.6" y="192"/>
      <point x="510.6" y="252"/>
      <point x="537.6" y="344" type="curve"/>
    </contour>
  </outline>
</glyph>
<glyph name="exclamdown" format="1">
  <advance width="263.0"/>
  <unicode hex="00A1"/>
  <outline>
    <contour>
      <point x="61.6" y="301" type="line"/>
      <point x="49.6" y="-192" type="line"/>
      <point x="212.6" y="-193" type="line"/>
      <point x="204.6" y="300" type="line"/>
    </contour>
    <contour>
      <point x="60.6" y="468"/>
      <point x="208.6" y="467"/>
      <point x="60.6" y="468" type="curve"/>
      <point x="60.6" y="420"/>
      <point x="91.6" y="396"/>
      <point x="134.6" y="395" type="curve"/>
      <point x="178.6" y="395"/>
      <point x="208.6" y="421"/>
      <point x="208.6" y="467" type="curve"/>
      <point x="60.6" y="468"/>
      <point x="208.6" y="467"/>
      <point x="60.6" y="468" type="curve"/>
      <point x="60.6" y="517"/>
      <point x="91.6" y="539"/>
      <point x="135.6" y="538" type="curve"/>
      <point x="180.6" y="538"/>
      <point x="208.6" y="514"/>
      <point x="208.6" y="467" type="curve"/>
    </contour>
  </outline>
</glyph>
<glyph name="cent" format="1">
  <advance width="568.0"/>
  <unicode hex="00A2"/>
  <outline>
    <contour>
      <point x="375.0" y="-53"/>
      <point x="232.0" y="-53"/>
      <point x="375.0" y="-53" type="curve"/>
      <point x="375.0" y="-13"/>
      <point x="375.0" y="27"/>
      <point x="375.0" y="67" type="curve"/>
      <point x="232.0" y="67"/>
      <point x="375.0" y="67"/>
      <point x="232.0" y="67" type="curve"/>
      <point x="232.0" y="27"/>
      <point x="232.0" y="-13"/>
      <point x="232.0" y="-53" type="curve"/>
    </contour>
    <contour>
      <point x="248.0" y="778"/>
      <point x="391.0" y="778"/>
      <point x="248.0" y="778" type="curve"/>
      <point x="248.0" y="742"/>
      <point x="248.0" y="706"/>
      <point x="248.0" y="670" type="curve"/>
      <point x="391.0" y="670"/>
      <point x="248.0" y="670"/>
      <point x="391.0" y="670" type="curve"/>
      <point x="391.0" y="706"/>
      <point x="391.0" y="742"/>
      <point x="391.0" y="778" type="curve"/>
    </contour>
    <contour>
      <point x="520.0" y="610"/>
      <point x="439.0" y="519"/>
      <point x="520.0" y="610" type="curve"/>
      <point x="458.0" y="667"/>
      <point x="405.0" y="687"/>
      <point x="328.0" y="687" type="curve"/>
      <point x="146.0" y="687"/>
      <point x="44.0" y="554"/>
      <point x="44.0" y="363" type="curve"/>
      <point x="44.0" y="180"/>
      <point x="127.0" y="45"/>
      <point x="297.0" y="45" type="curve"/>
      <point x="389.0" y="45"/>
      <point x="454.0" y="71"/>
      <point x="516.0" y="146" type="curve"/>
      <point x="430.0" y="228"/>
      <point x="516.0" y="146"/>
      <point x="430.0" y="228" type="curve"/>
      <point x="392.0" y="191"/>
      <point x="363.0" y="161"/>
      <point x="310.0" y="161" type="curve"/>
      <point x="217.0" y="161"/>
      <point x="187.0" y="256"/>
      <point x="187.0" y="369" type="curve"/>
      <point x="187.0" y="480"/>
      <point x="227.0" y="571"/>
      <point x="315.0" y="571" type="curve"/>
      <point x="366.0" y="571"/>
      <point x="400.0" y="553"/>
      <point x="439.0" y="519" type="curve"/>
    </contour>
    <contour>
      <point x="408.0" y="610"/>
      <point x="520.0" y="610"/>
      <point x="408.0" y="610" type="curve"/>
      <point x="408.0" y="490"/>
      <point x="408.0" y="590"/>
      <point x="408.0" y="470" type="curve"/>
      <point x="520.0" y="470"/>
      <point x="408.0" y="470"/>
      <point x="520.0" y="470" type="curve"/>
      <point x="520.0" y="590"/>
      <point x="520.0" y="490"/>
      <point x="520.0" y="610" type="curve"/>
    </contour>
  </outline>
</glyph>
<glyph name="sterling" format="1">
  <advance width="421.8"/>
  <unicode hex="00A3"/>
  <outline>
    <contour>
      <point x="356.4" y="111"/>
      <point x="356.4" y="0"/>
      <point x="356.4" y="111" type="curve"/>
      <point x="256.4" y="111"/>
      <point x="146.4" y="111"/>
      <point x="46.4" y="111" type="curve"/>
      <point x="46.4" y="0"/>
      <point x="46.4" y="111"/>
      <point x="46.4" y="0" type="curve"/>
      <point x="146.4" y="0"/>
      <point x="255.4" y="0"/>
      <point x="356.4" y="0" type="curve"/>
    </contour>
    <contour>
      <point x="313.4" y="430"/>
      <point x="313.4" y="320"/>
      <point x="313.4" y="430" type="curve"/>
      <point x="232.4" y="430"/>
      <point x="141.4" y="430"/>
      <point x="61.4" y="430" type="curve"/>
      <point x="61.4" y="320"/>
      <point x="61.4" y="430"/>
      <point x="61.4" y="320" type="curve"/>
      <point x="141.4" y="320"/>
      <point x="232.4" y="320"/>
      <point x="313.4" y="320" type="curve"/>
    </contour>
    <contour>
      <point x="387.4" y="660"/>
      <point x="315.4" y="579"/>
      <point x="387.4" y="660" type="curve"/>
      <point x="347.4" y="707"/>
      <point x="310.4" y="720"/>
      <point x="258.4" y="720" type="curve"/>
      <point x="99.4" y="720"/>
      <point x="63.4" y="557"/>
      <point x="97.4" y="362" type="curve"/>
      <point x="119.4" y="234"/>
      <point x="116.4" y="111"/>
      <point x="46.4" y="111" type="curve"/>
      <point x="46.4" y="0"/>
      <point x="46.4" y="111"/>
      <point x="46.4" y="0" type="curve"/>
      <point x="220.4" y="0"/>
      <point x="258.4" y="177"/>
      <point x="223.4" y="386" type="curve"/>
      <point x="203.4" y="502"/>
      <point x="195.4" y="615"/>
      <point x="251.4" y="615" type="curve"/>
      <point x="279.4" y="615"/>
      <point x="294.4" y="598"/>
      <point x="315.4" y="579" type="curve"/>
    </contour>
  </outline>
</glyph>
<glyph name="currency" format="1">
  <advance width="607.2"/>
  <unicode hex="00A4"/>
  <outline>
    <contour>
      <point x="265.0" y="317"/>
      <point x="114.0" y="317"/>
      <point x="257.0" y="317" type="curve"/>
      <point x="257.0" y="359"/>
      <point x="263.0" y="400"/>
      <point x="300.0" y="400" type="curve"/>
      <point x="340.0" y="400"/>
      <point x="347.0" y="364"/>
      <point x="347.0" y="318" type="curve"/>
      <point x="347.0" y="274"/>
      <point x="341.0" y="228"/>
      <point x="303.0" y="228" type="curve"/>
      <point x="262.0" y="228"/>
      <point x="257.0" y="270"/>
      <point x="257.0" y="317" type="curve"/>
      <point x="114.0" y="317"/>
      <point x="265.0" y="317"/>
      <point x="122.0" y="317" type="curve"/>
      <point x="122.0" y="198"/>
      <point x="189.0" y="118"/>
      <point x="304.0" y="118" type="curve"/>
      <point x="419.0" y="118"/>
      <point x="485.0" y="201"/>
      <point x="485.0" y="320" type="curve"/>
      <point x="485.0" y="433"/>
      <point x="422.0" y="510"/>
      <point x="312.0" y="510" type="curve"/>
      <point x="195.0" y="510"/>
      <point x="122.0" y="434"/>
      <point x="122.0" y="317" type="curve"/>
    </contour>
    <contour>
      <point x="393.0" y="337" type="line"/>
      <point x="554.0" y="484" type="line"/>
      <point x="453.0" y="585" type="line"/>
      <point x="306.0" y="424" type="line"/>
    </contour>
    <contour>
      <point x="312.0" y="213" type="line"/>
      <point x="459.0" y="52" type="line"/>
      <point x="560.0" y="153" type="line"/>
      <point x="399.0" y="300" type="line"/>
    </contour>
    <contour>
      <point x="209.0" y="299" type="line"/>
      <point x="48.0" y="152" type="line"/>
      <point x="149.0" y="51" type="line"/>
      <point x="296.0" y="212" type="line"/>
    </contour>
    <contour>
      <point x="304.0" y="425" type="line"/>
      <point x="157.0" y="586" type="line"/>
      <point x="56.0" y="485" type="line"/>
      <point x="217.0" y="338" type="line"/>
    </contour>
  </outline>
</glyph>
<glyph name="yen" format="1">
  <advance width="621.6"/>
  <unicode hex="00A5"/>
  <outline>
    <contour>
      <point x="469.4" y="420"/>
      <point x="469.4" y="298"/>
      <point x="469.4" y="420" type="curve"/>
      <point x="416.4" y="420"/>
      <point x="363.4" y="420"/>
      <point x="311.4" y="420" type="curve"/>
      <point x="311.4" y="298"/>
      <point x="311.4" y="420"/>
      <point x="311.4" y="298" type="curve"/>
      <point x="363.4" y="298"/>
      <point x="416.4" y="298"/>
      <point x="469.4" y="298" type="curve"/>
    </contour>
    <contour>
      <point x="289.4" y="420"/>
      <point x="289.4" y="298"/>
      <point x="289.4" y="420" type="curve"/>
      <point x="237.4" y="420"/>
      <point x="185.4" y="420"/>
      <point x="134.4" y="420" type="curve"/>
      <point x="134.4" y="298"/>
      <point x="134.4" y="420"/>
      <point x="134.4" y="298" type="curve"/>
      <point x="185.4" y="298"/>
      <point x="237.4" y="298"/>
      <point x="289.4" y="298" type="curve"/>
    </contour>
    <contour>
      <point x="469.4" y="276"/>
      <point x="469.4" y="155"/>
      <point x="469.4" y="276" type="curve"/>
      <point x="357.4" y="276"/>
      <point x="245.4" y="276"/>
      <point x="134.4" y="276" type="curve"/>
      <point x="134.4" y="155"/>
      <point x="134.4" y="276"/>
      <point x="134.4" y="155" type="curve"/>
      <point x="245.4" y="155"/>
      <point x="357.4" y="155"/>
      <point x="469.4" y="155" type="curve"/>
    </contour>
    <contour>
      <point x="302.4" y="110"/>
      <point x="302.4" y="0"/>
      <point x="302.4" y="110" type="curve"/>
      <point x="165.4" y="110"/>
      <point x="302.4" y="110"/>
      <point x="165.4" y="110" type="curve"/>
      <point x="165.4" y="0"/>
      <point x="165.4" y="110"/>
      <point x="165.4" y="0" type="curve"/>
      <point x="210.4" y="0"/>
      <point x="256.4" y="0"/>
      <point x="302.4" y="0" type="curve"/>
    </contour>
    <contour>
      <point x="302.4" y="0"/>
      <point x="302.4" y="110"/>
      <point x="302.4" y="0" type="curve"/>
      <point x="348.4" y="0"/>
      <point x="394.4" y="0"/>
      <point x="439.4" y="0" type="curve"/>
      <point x="439.4" y="110"/>
      <point x="439.4" y="0"/>
      <point x="439.4" y="110" type="curve"/>
      <point x="302.4" y="110"/>
      <point x="439.4" y="110"/>
      <point x="302.4" y="110" type="curve"/>
    </contour>
    <contour>
      <point x="459.4" y="722"/>
      <point x="459.4" y="612"/>
      <point x="459.4" y="722" type="curve"/>
      <point x="416.4" y="722"/>
      <point x="374.4" y="722"/>
      <point x="332.4" y="722" type="curve"/>
      <point x="332.4" y="612"/>
      <point x="332.4" y="722"/>
      <point x="332.4" y="612" type="curve"/>
      <point x="459.4" y="612"/>
      <point x="332.4" y="612"/>
      <point x="459.4" y="612" type="curve"/>
    </contour>
    <contour>
      <point x="135.4" y="722"/>
      <point x="135.4" y="612"/>
      <point x="135.4" y="722" type="curve"/>
      <point x="101.4" y="722"/>
      <point x="68.4" y="722"/>
      <point x="35.4" y="722" type="curve"/>
      <point x="34.4" y="612"/>
      <point x="35.4" y="722"/>
      <point x="34.4" y="612" type="curve"/>
      <point x="135.4" y="612"/>
      <point x="34.4" y="612"/>
      <point x="135.4" y="612" type="curve"/>
    </contour>
    <contour>
      <point x="155.4" y="612"/>
      <point x="155.4" y="722"/>
      <point x="155.4" y="612" type="curve"/>
      <point x="282.4" y="612"/>
      <point x="155.4" y="612"/>
      <point x="282.4" y="612" type="curve"/>
      <point x="282.4" y="722"/>
      <point x="282.4" y="612"/>
      <point x="282.4" y="722" type="curve"/>
      <point x="239.4" y="722"/>
      <point x="197.4" y="722"/>
      <point x="155.4" y="722" type="curve"/>
    </contour>
    <contour>
      <point x="479.4" y="612"/>
      <point x="479.4" y="722"/>
      <point x="479.4" y="612" type="curve"/>
      <point x="586.4" y="612"/>
      <point x="479.4" y="612"/>
      <point x="586.4" y="612" type="curve"/>
      <point x="586.4" y="722"/>
      <point x="586.4" y="612"/>
      <point x="586.4" y="722" type="curve"/>
      <point x="551.4" y="722"/>
      <point x="515.4" y="722"/>
      <point x="479.4" y="722" type="curve"/>
    </contour>
    <contour>
      <point x="53.4" y="722"/>
      <point x="198.4" y="722"/>
      <point x="53.4" y="722" type="curve"/>
      <point x="112.4" y="594"/>
      <point x="167.4" y="469"/>
      <point x="224.4" y="337" type="curve"/>
      <point x="369.4" y="337"/>
      <point x="202.4" y="337"/>
      <point x="347.4" y="337" type="curve"/>
      <point x="298.4" y="470"/>
      <point x="251.4" y="591"/>
      <point x="198.4" y="722" type="curve"/>
    </contour>
    <contour>
      <point x="416.4" y="722"/>
      <point x="561.4" y="722"/>
      <point x="416.4" y="722" type="curve"/>
      <point x="357.4" y="589"/>
      <point x="307.4" y="469"/>
      <point x="247.4" y="337" type="curve"/>
      <point x="392.4" y="337"/>
      <point x="235.4" y="337"/>
      <point x="380.4" y="337" type="curve"/>
      <point x="441.4" y="468"/>
      <point x="499.4" y="594"/>
      <point x="561.4" y="722" type="curve"/>
    </contour>
    <contour>
      <point x="380.4" y="0"/>
      <point x="224.4" y="0"/>
      <point x="380.4" y="0" type="curve"/>
      <point x="380.4" y="115"/>
      <point x="380.4" y="222"/>
      <point x="380.4" y="337" type="curve"/>
      <point x="224.4" y="337"/>
      <point x="380.4" y="337"/>
      <point x="224.4" y="337" type="curve"/>
      <point x="224.4" y="222"/>
      <point x="224.4" y="115"/>
      <point x="224.4" y="0" type="curve"/>
    </contour>
  </outline>
</glyph>
<glyph name="section" format="1">
  <advance width="481.8"/>
  <unicode hex="00A7"/>
  <outline>
    <contour>
      <point x="381.2" y="698"/>
      <point x="314.2" y="610"/>
      <point x="381.2" y="698" type="curve"/>
      <point x="334.2" y="733"/>
      <point x="299.2" y="748"/>
      <point x="246.2" y="748" type="curve"/>
      <point x="141.2" y="748"/>
      <point x="73.2" y="690"/>
      <point x="73.2" y="594" type="curve"/>
      <point x="73.2" y="510"/>
      <point x="118.2" y="458"/>
      <point x="197.2" y="426" type="curve"/>
      <point x="242.2" y="407"/>
      <point x="293.2" y="400"/>
      <point x="293.2" y="361" type="curve"/>
      <point x="293.2" y="318"/>
      <point x="268.2" y="291"/>
      <point x="225.2" y="282" type="curve"/>
      <point x="310.2" y="193"/>
      <point x="225.2" y="282"/>
      <point x="310.2" y="193" type="curve"/>
      <point x="393.2" y="216"/>
      <point x="436.2" y="275"/>
      <point x="436.2" y="361" type="curve"/>
      <point x="435.2" y="456"/>
      <point x="361.2" y="496"/>
      <point x="268.2" y="531" type="curve"/>
      <point x="237.2" y="543"/>
      <point x="207.2" y="561"/>
      <point x="207.2" y="594" type="curve"/>
      <point x="207.2" y="616"/>
      <point x="221.2" y="638"/>
      <point x="247.2" y="638" type="curve"/>
      <point x="279.2" y="638"/>
      <point x="291.2" y="627"/>
      <point x="314.2" y="610" type="curve"/>
    </contour>
    <contour>
      <point x="173.2" y="528"/>
      <point x="244.2" y="445"/>
      <point x="173.2" y="528" type="curve"/>
      <point x="94.2" y="499"/>
      <point x="47.2" y="449"/>
      <point x="47.2" y="366" type="curve"/>
      <point x="47.2" y="275"/>
      <point x="107.2" y="227"/>
      <point x="195.2" y="194" type="curve"/>
      <point x="233.2" y="179"/>
      <point x="276.2" y="172"/>
      <point x="276.2" y="133" type="curve"/>
      <point x="276.2" y="107"/>
      <point x="262.2" y="84"/>
      <point x="240.2" y="84" type="curve"/>
      <point x="205.2" y="84"/>
      <point x="188.2" y="99"/>
      <point x="161.2" y="121" type="curve"/>
      <point x="83.2" y="43"/>
      <point x="161.2" y="121"/>
      <point x="83.2" y="43" type="curve"/>
      <point x="131.2" y="-8"/>
      <point x="175.2" y="-26"/>
      <point x="238.2" y="-26" type="curve"/>
      <point x="342.2" y="-26"/>
      <point x="414.2" y="31"/>
      <point x="414.2" y="133" type="curve"/>
      <point x="413.2" y="217"/>
      <point x="366.2" y="269"/>
      <point x="286.2" y="299" type="curve"/>
      <point x="240.2" y="317"/>
      <point x="190.2" y="325"/>
      <point x="190.2" y="366" type="curve"/>
      <point x="190.2" y="405"/>
      <point x="208.2" y="432"/>
      <point x="244.2" y="445" type="curve"/>
    </contour>
    <contour>
      <point x="195.2" y="43"/>
      <point x="83.2" y="43"/>
      <point x="195.2" y="43" type="curve"/>
      <point x="195.2" y="163"/>
      <point x="195.2" y="38"/>
      <point x="195.2" y="158" type="curve"/>
      <point x="83.2" y="158"/>
      <point x="195.2" y="158"/>
      <point x="83.2" y="158" type="curve"/>
      <point x="83.2" y="38"/>
      <point x="83.2" y="163"/>
      <point x="83.2" y="43" type="curve"/>
    </contour>
    <contour>
      <point x="381.2" y="583"/>
      <point x="269.2" y="583"/>
      <point x="381.2" y="583" type="curve"/>
      <point x="381.2" y="703"/>
      <point x="381.2" y="578"/>
      <point x="381.2" y="698" type="curve"/>
      <point x="269.2" y="698"/>
      <point x="381.2" y="698"/>
      <point x="269.2" y="698" type="curve"/>
      <point x="269.2" y="578"/>
      <point x="269.2" y="703"/>
      <point x="269.2" y="583" type="curve"/>
    </contour>
  </outline>
</glyph>
<glyph name="dieresis" format="1">
  <advance width="379.2"/>
  <unicode hex="00A8"/>
  <outline>
    <contour>
      <point x="170.4" y="670"/>
      <point x="22.4" y="670"/>
      <point x="170.4" y="670" type="curve"/>
      <point x="170.4" y="718"/>
      <point x="138.4" y="742"/>
      <point x="95.4" y="742" type="curve"/>
      <point x="51.4" y="742"/>
      <point x="22.4" y="716"/>
      <point x="22.4" y="670" type="curve"/>
      <point x="170.4" y="670"/>
      <point x="22.4" y="670"/>
      <point x="170.4" y="670" type="curve"/>
      <point x="170.4" y="621"/>
      <point x="139.4" y="599"/>
      <point x="95.4" y="599" type="curve"/>
      <point x="50.4" y="599"/>
      <point x="22.4" y="623"/>
      <point x="22.4" y="670" type="curve"/>
    </contour>
    <contour>
      <point x="370.4" y="670"/>
      <point x="222.4" y="670"/>
      <point x="370.4" y="670" type="curve"/>
      <point x="370.4" y="718"/>
      <point x="338.4" y="742"/>
      <point x="295.4" y="742" type="curve"/>
      <point x="251.4" y="742"/>
      <point x="222.4" y="716"/>
      <point x="222.4" y="670" type="curve"/>
      <point x="370.4" y="670"/>
      <point x="222.4" y="670"/>
      <point x="370.4" y="670" type="curve"/>
      <point x="370.4" y="621"/>
      <point x="339.4" y="599"/>
      <point x="295.4" y="599" type="curve"/>
      <point x="250.4" y="599"/>
      <point x="222.4" y="623"/>
      <point x="222.4" y="670" type="curve"/>
    </contour>
    <contour>
      <point x="195.4" y="605" type="move" name="_top"/>
    </contour>
  </outline>
</glyph>
<glyph name="copyright" format="1">
  <advance width="667.2"/>
  <unicode hex="00A9"/>
  <outline>
    <contour>
      <point x="164.6" y="324"/>
      <point x="45.6" y="324"/>
      <point x="161.6" y="324" type="curve"/>
      <point x="161.6" y="452"/>
      <point x="220.6" y="556"/>
      <point x="336.6" y="556" type="curve"/>
      <point x="450.6" y="556"/>
      <point x="507.6" y="450"/>
      <point x="507.6" y="322" type="curve"/>
      <point x="507.6" y="199"/>
      <point x="453.6" y="94"/>
      <point x="343.6" y="94" type="curve"/>
      <point x="227.6" y="94"/>
      <point x="161.6" y="197"/>
      <point x="161.6" y="324" type="curve"/>
      <point x="45.6" y="324"/>
      <point x="164.6" y="324"/>
      <point x="49.6" y="324" type="curve"/>
      <point x="49.6" y="142"/>
      <point x="161.6" y="6"/>
      <point x="338.6" y="6" type="curve"/>
      <point x="511.6" y="6"/>
      <point x="617.6" y="144"/>
      <point x="617.6" y="326" type="curve"/>
      <point x="617.6" y="508"/>
      <point x="509.6" y="645"/>
      <point x="336.6" y="645" type="curve"/>
      <point x="160.6" y="645"/>
      <point x="49.6" y="508"/>
      <point x="49.6" y="324" type="curve"/>
    </contour>
    <contour>
      <point x="365.6" y="417"/>
      <point x="469.6" y="462"/>
      <point x="365.6" y="417" type="curve"/>
      <point x="365.6" y="407"/>
      <point x="365.6" y="383"/>
      <point x="365.6" y="368" type="curve"/>
      <point x="469.6" y="368"/>
      <point x="365.6" y="368"/>
      <point x="469.6" y="368" type="curve"/>
      <point x="469.6" y="399"/>
      <point x="469.6" y="440"/>
      <point x="469.6" y="462" type="curve"/>
    </contour>
    <contour>
      <point x="469.6" y="462"/>
      <point x="365.6" y="417"/>
      <point x="469.6" y="462" type="curve"/>
      <point x="435.6" y="500"/>
      <point x="393.6" y="513"/>
      <point x="343.6" y="513" type="curve"/>
      <point x="233.6" y="513"/>
      <point x="179.6" y="436"/>
      <point x="179.6" y="323" type="curve"/>
      <point x="179.6" y="214"/>
      <point x="226.6" y="138"/>
      <point x="329.6" y="138" type="curve"/>
      <point x="385.6" y="138"/>
      <point x="425.6" y="148"/>
      <point x="464.6" y="206" type="curve"/>
      <point x="393.6" y="257"/>
      <point x="464.6" y="206"/>
      <point x="393.6" y="257" type="curve"/>
      <point x="374.6" y="239"/>
      <point x="360.6" y="227"/>
      <point x="334.6" y="227" type="curve"/>
      <point x="289.6" y="227"/>
      <point x="284.6" y="274"/>
      <point x="284.6" y="327" type="curve"/>
      <point x="284.6" y="380"/>
      <point x="292.6" y="425"/>
      <point x="338.6" y="425" type="curve"/>
      <point x="349.6" y="425"/>
      <point x="358.6" y="423"/>
      <point x="365.6" y="417" type="curve"/>
    </contour>
  </outline>
</glyph>
<glyph name="ordfeminine" format="1">
  <advance width="385.0"/>
  <unicode hex="00AA"/>
  <outline>
    <contour>
      <point x="60.4" y="721"/>
      <point x="132.4" y="721"/>
      <point x="60.4" y="721" type="curve"/>
      <point x="60.4" y="649"/>
      <point x="60.4" y="721"/>
      <point x="60.4" y="649" type="curve"/>
      <point x="132.4" y="649"/>
      <point x="60.4" y="649"/>
      <point x="132.4" y="649" type="curve"/>
      <point x="132.4" y="721"/>
      <point x="132.4" y="649"/>
      <point x="132.4" y="721" type="curve"/>
    </contour>
    <contour>
      <point x="303.4" y="424"/>
      <point x="211.4" y="424"/>
      <point x="303.4" y="424" type="curve"/>
      <point x="303.4" y="503"/>
      <point x="303.4" y="583"/>
      <point x="303.4" y="662" type="curve"/>
      <point x="303.4" y="738"/>
      <point x="252.4" y="767"/>
      <point x="178.4" y="767" type="curve"/>
      <point x="125.4" y="767"/>
      <point x="87.4" y="749"/>
      <point x="60.4" y="721" type="curve"/>
      <point x="94.4" y="661"/>
      <point x="60.4" y="721"/>
      <point x="94.4" y="661" type="curve"/>
      <point x="111.4" y="678"/>
      <point x="132.4" y="696"/>
      <point x="166.4" y="696" type="curve"/>
      <point x="195.4" y="696"/>
      <point x="211.4" y="680"/>
      <point x="211.4" y="651" type="curve"/>
      <point x="211.4" y="575"/>
      <point x="211.4" y="499"/>
      <point x="211.4" y="424" type="curve"/>
    </contour>
    <contour>
      <point x="258.4" y="424"/>
      <point x="258.4" y="495"/>
      <point x="258.4" y="424" type="curve"/>
      <point x="285.4" y="424"/>
      <point x="312.4" y="424"/>
      <point x="339.4" y="424" type="curve"/>
      <point x="339.4" y="495"/>
      <point x="339.4" y="424"/>
      <point x="339.4" y="495" type="curve"/>
      <point x="258.4" y="495"/>
      <point x="339.4" y="495"/>
      <point x="258.4" y="495" type="curve"/>
    </contour>
    <contour>
      <point x="255.4" y="649"/>
      <point x="259.4" y="589"/>
      <point x="255.4" y="649" type="curve"/>
      <point x="218.4" y="644"/>
      <point x="195.4" y="642"/>
      <point x="158.4" y="636" type="curve"/>
      <point x="88.4" y="626"/>
      <point x="42.4" y="597"/>
      <point x="42.4" y="530" type="curve"/>
      <point x="42.4" y="461"/>
      <point x="79.4" y="421"/>
      <point x="147.4" y="421" type="curve"/>
      <point x="214.4" y="421"/>
      <point x="240.4" y="477"/>
      <point x="280.4" y="523" type="curve"/>
      <point x="234.4" y="562"/>
      <point x="280.4" y="523"/>
      <point x="234.4" y="562" type="curve"/>
      <point x="218.4" y="524"/>
      <point x="205.4" y="492"/>
      <point x="169.4" y="492" type="curve"/>
      <point x="141.4" y="492"/>
      <point x="131.4" y="507"/>
      <point x="131.4" y="534" type="curve"/>
      <point x="131.4" y="554"/>
      <point x="145.4" y="570"/>
      <point x="161.4" y="573" type="curve"/>
      <point x="202.4" y="579"/>
      <point x="218.4" y="582"/>
      <point x="259.4" y="589" type="curve"/>
    </contour>
  </outline>
</glyph>
<glyph name="guillemotleft" format="1">
  <advance width="447.2"/>
  <unicode hex="00AB"/>
  <outline>
    <contour>
      <point x="200.4" y="479"/>
      <point x="200.4" y="368"/>
      <point x="200.4" y="489" type="curve"/>
      <point x="158.4" y="454"/>
      <point x="85.4" y="393"/>
      <point x="42.4" y="358" type="curve"/>
      <point x="42.4" y="236"/>
      <point x="42.4" y="338"/>
      <point x="42.4" y="216" type="curve"/>
      <point x="85.4" y="251"/>
      <point x="158.4" y="323"/>
      <point x="200.4" y="358" type="curve"/>
    </contour>
    <contour>
      <point x="200.4" y="209"/>
      <point x="200.4" y="98"/>
      <point x="200.4" y="219" type="curve"/>
      <point x="158.4" y="254"/>
      <point x="85.4" y="323"/>
      <point x="42.4" y="358" type="curve"/>
      <point x="42.4" y="236"/>
      <point x="42.4" y="338"/>
      <point x="42.4" y="216" type="curve"/>
      <point x="85.4" y="181"/>
      <point x="158.4" y="122"/>
      <point x="200.4" y="88" type="curve"/>
    </contour>
    <contour>
      <point x="382.4" y="479"/>
      <point x="382.4" y="368"/>
      <point x="382.4" y="489" type="curve"/>
      <point x="340.4" y="454"/>
      <point x="267.4" y="393"/>
      <point x="224.4" y="358" type="curve"/>
      <point x="224.4" y="236"/>
      <point x="224.4" y="338"/>
      <point x="224.4" y="216" type="curve"/>
      <point x="267.4" y="251"/>
      <point x="340.4" y="323"/>
      <point x="382.4" y="358" type="curve"/>
    </contour>
    <contour>
      <point x="382.4" y="209"/>
      <point x="382.4" y="98"/>
      <point x="382.4" y="219" type="curve"/>
      <point x="340.4" y="254"/>
      <point x="267.4" y="323"/>
      <point x="224.4" y="358" type="curve"/>
      <point x="224.4" y="236"/>
      <point x="224.4" y="338"/>
      <point x="224.4" y="216" type="curve"/>
      <point x="267.4" y="181"/>
      <point x="340.4" y="122"/>
      <point x="382.4" y="88" type="curve"/>
    </contour>
  </outline>
</glyph>
<glyph name="logicalnot" format="1">
  <advance width="512.2"/>
  <unicode hex="00AC"/>
  <outline>
    <contour>
      <point x="67.2" y="255"/>
      <point x="67.2" y="376"/>
      <point x="67.2" y="255" type="curve"/>
      <point x="67.2" y="255"/>
      <point x="448.2" y="255"/>
      <point x="448.2" y="255" type="curve"/>
      <point x="448.2" y="376"/>
      <point x="448.2" y="255"/>
      <point x="448.2" y="376" type="curve"/>
      <point x="448.2" y="376"/>
      <point x="67.2" y="376"/>
      <point x="67.2" y="376" type="curve"/>
    </contour>
    <contour>
      <point x="449.2" y="138"/>
      <point x="305.2" y="138"/>
      <point x="448.2" y="138" type="curve"/>
      <point x="448.2" y="138"/>
      <point x="448.2" y="376"/>
      <point x="448.2" y="376" type="curve"/>
      <point x="305.2" y="376"/>
      <point x="449.2" y="376"/>
      <point x="306.2" y="376" type="curve"/>
      <point x="306.2" y="376"/>
      <point x="306.2" y="138"/>
      <point x="306.2" y="138" type="curve"/>
    </contour>
  </outline>
</glyph>
